# Blender v2.92.0 OBJ File: ''
# www.blender.org
o model_0.009
v 13.029129 1.537843 -0.305420
v 8.905426 -0.323938 -0.270065
v 12.013657 1.437603 -5.424179
v 8.201324 -0.393566 -3.813004
v 9.109573 1.353918 -9.760437
v 6.200195 -0.452764 -6.813110
v 4.767853 1.294511 -12.660660
v 3.196075 -0.493229 -8.819885
v -0.348343 1.275134 -13.679825
v -0.341385 -0.507745 -9.522354
v -5.465027 1.295234 -12.658188
v -3.888107 -0.491907 -8.813614
v -9.798615 1.351472 -9.761307
v -6.885452 -0.454425 -6.816345
v -12.698212 1.438105 -5.426712
v -8.890503 -0.394368 -3.815628
v -13.715378 1.536894 -0.311386
v -9.598541 -0.324569 -0.270783
v -12.699814 1.639599 4.807023
v -8.894455 -0.254942 3.272156
v -9.802628 1.724246 9.148254
v -6.886414 -0.196706 6.267273
v -5.465881 1.780460 12.042236
v -3.882278 -0.156242 8.274078
v -0.349579 1.802302 13.061035
v -0.344833 -0.141725 8.976532
v 4.771957 1.782930 12.046021
v 3.194992 -0.156601 8.272766
v 9.112366 1.723266 9.144501
v 6.199234 -0.195045 6.270508
v 12.012054 1.639097 4.809556
v 8.204300 -0.255102 3.269806
v 4.771957 1.782930 12.046021
v -0.344986 2.080971 13.057800
v -0.349579 1.802302 13.061035
v -5.461197 2.061595 12.038635
v -5.465881 1.780460 12.042236
v -9.802811 2.004653 9.138062
v -9.802628 1.724246 9.148254
v -12.695221 1.918268 4.803788
v -12.699814 1.639599 4.807023
v -13.717590 1.818991 -0.309997
v -13.715378 1.536894 -0.311386
v -12.700531 1.717737 -5.424972
v -12.698212 1.438105 -5.426712
v -9.798798 1.631878 -9.771500
v -9.798615 1.351472 -9.761307
v -5.460327 1.576368 -12.661774
v -5.465027 1.295234 -12.658188
v -0.343658 1.556269 -13.683411
v -0.348343 1.275134 -13.679825
v 4.772552 1.575646 -12.664261
v 4.767853 1.294511 -12.660660
v 9.109299 1.631859 -9.770294
v 9.109573 1.353918 -9.760437
v 12.006577 1.718972 -5.429397
v 12.013657 1.437603 -5.424179
v 13.028946 1.818250 -0.315612
v 13.029129 1.537843 -0.305420
v 12.011887 1.919503 4.799363
v 12.012054 1.639097 4.809556
v 9.110153 2.005363 9.145874
v 9.112366 1.723266 9.144501
v 4.771683 2.060872 12.036163
v 3.199677 0.124533 8.269196
v -0.340240 0.136945 8.973297
v -3.889359 0.125127 8.268860
v -6.881714 0.084429 6.263702
v -8.894623 0.025465 3.261963
v -9.593857 -0.043434 -0.274368
v -8.892731 -0.112272 -3.814240
v -6.887665 -0.172328 -6.814941
v -3.888275 -0.211501 -8.823822
v -0.348465 -0.226377 -9.527573
v 3.193848 -0.211133 -8.818497
v 6.193008 -0.173860 -6.817978
v 8.205917 -0.114897 -3.816238
v 8.905243 -0.043532 -0.280258
v 8.204117 0.025304 3.259598
v 6.199051 0.085362 6.260315
vt 0.458546 0.864925
vt 0.445882 0.867486
vt 0.452737 0.850780
vt 0.441932 0.857975
vt 0.441932 0.839927
vt 0.434613 0.850780
vt 0.427759 0.834073
vt 0.425203 0.846877
vt 0.412423 0.834073
vt 0.414979 0.846877
vt 0.398249 0.839927
vt 0.405453 0.850780
vt 0.387445 0.850658
vt 0.398249 0.857975
vt 0.381520 0.864803
vt 0.394299 0.867364
vt 0.381520 0.880169
vt 0.394299 0.877608
vt 0.387445 0.894436
vt 0.398249 0.887120
vt 0.398249 0.905168
vt 0.405569 0.894314
vt 0.412423 0.911143
vt 0.414979 0.898217
vt 0.427875 0.911143
vt 0.425203 0.898339
vt 0.441932 0.905168
vt 0.434729 0.894436
vt 0.452737 0.894314
vt 0.441932 0.887120
vt 0.458662 0.880291
vt 0.445766 0.877730
vt 0.538360 0.865047
vt 0.531389 0.851146
vt 0.532087 0.850658
vt 0.520353 0.840536
vt 0.520817 0.839805
vt 0.506179 0.834927
vt 0.506295 0.834073
vt 0.490960 0.835171
vt 0.490727 0.834317
vt 0.476902 0.841024
vt 0.476437 0.840292
vt 0.466446 0.851999
vt 0.465633 0.851511
vt 0.460637 0.866023
vt 0.459708 0.865901
vt 0.460637 0.881144
vt 0.459708 0.881388
vt 0.466446 0.894924
vt 0.465749 0.895290
vt 0.477018 0.905412
vt 0.476553 0.906143
vt 0.490843 0.911631
vt 0.490727 0.912484
vt 0.506179 0.911997
vt 0.506295 0.912850
vt 0.520585 0.906387
vt 0.521050 0.907119
vt 0.531970 0.895412
vt 0.532667 0.895900
vt 0.537779 0.880778
vt 0.538593 0.880900
vt 0.537431 0.865291
vt 0.524535 0.867730
vt 0.520469 0.858340
vt 0.513150 0.851146
vt 0.503739 0.847487
vt 0.493632 0.847731
vt 0.484221 0.851633
vt 0.477134 0.858950
vt 0.473184 0.868340
vt 0.473184 0.878583
vt 0.477134 0.887973
vt 0.484221 0.895046
vt 0.493399 0.899070
vt 0.503623 0.899192
vt 0.513266 0.895290
vt 0.520817 0.887973
vt 0.524651 0.878096
vn 0.8585 -0.5126 0.0128
vn 0.2352 -0.9718 0.0156
vn 0.7908 -0.5210 -0.3213
vn 0.2157 -0.9737 -0.0728
vn 0.6055 -0.5244 -0.5986
vn 0.1685 -0.9747 -0.1467
vn 0.3293 -0.5308 -0.7809
vn 0.0880 -0.9759 -0.1999
vn 0.0001 -0.5312 -0.8472
vn 0.0031 -0.9764 -0.2162
vn -0.3278 -0.5294 -0.7825
vn -0.0890 -0.9762 -0.1977
vn -0.6067 -0.5244 -0.5974
vn -0.1642 -0.9751 -0.1492
vn -0.7927 -0.5207 -0.3169
vn -0.2155 -0.9739 -0.0718
vn -0.8575 -0.5144 0.0086
vn -0.2359 -0.9716 0.0182
vn -0.7925 -0.5077 0.3380
vn -0.2190 -0.9693 0.1114
vn -0.6094 -0.5013 0.6143
vn -0.1686 -0.9683 0.1843
vn -0.3253 -0.4965 0.8048
vn -0.0932 -0.9676 0.2346
vn 0.0007 -0.4970 0.8678
vn 0.0029 -0.9670 0.2549
vn 0.3312 -0.4980 0.8014
vn 0.0920 -0.9671 0.2371
vn 0.6068 -0.5020 0.6163
vn 0.1673 -0.9675 0.1896
vn 0.7937 -0.5074 0.3356
vn 0.2160 -0.9702 0.1094
vn 0.3312 -0.4981 0.8014
vn 0.0019 0.8053 0.5929
vn -0.2307 0.8049 0.5467
vn -0.3254 -0.4965 0.8048
vn -0.4271 0.8035 0.4147
vn -0.5615 0.7990 0.2153
vn -0.7924 -0.5078 0.3380
vn -0.6095 0.7927 -0.0116
vn -0.8575 -0.5143 0.0086
vn -0.5618 0.7880 -0.2518
vn -0.4318 0.7848 -0.4446
vn -0.6067 -0.5245 -0.5974
vn -0.2324 0.7830 -0.5770
vn -0.3279 -0.5294 -0.7824
vn -0.0003 0.7812 -0.6242
vn 0.2320 0.7832 -0.5769
vn 0.3294 -0.5308 -0.7808
vn 0.4297 0.7844 -0.4474
vn 0.5632 0.7878 -0.2493
vn 0.6079 0.7939 -0.0127
vn 0.5607 0.7986 0.2189
vn 0.4292 0.8026 0.4143
vn 0.2306 0.8051 0.5465
vn -0.0892 0.9665 -0.2405
vn -0.0000 0.9667 -0.2559
vn 0.0907 0.9675 -0.2361
vn 0.1692 0.9685 -0.1828
vn 0.2182 0.9702 -0.1058
vn 0.2375 0.9712 -0.0212
vn 0.2154 0.9739 0.0719
vn 0.1681 0.9747 0.1475
vn 0.0895 0.9762 0.1976
vn 0.0024 0.9762 0.2168
vn -0.0905 0.9758 0.1990
vn -0.1661 0.9749 0.1485
vn -0.2158 0.9737 0.0727
vn -0.2358 0.9717 -0.0171
vn -0.2158 0.9706 -0.1069
vn -0.1687 0.9683 -0.1840
s 1
f 1/1/1 2/2/2 3/3/3
f 2/2/2 4/4/4 3/3/3
f 3/3/3 4/4/4 5/5/5
f 4/4/4 6/6/6 5/5/5
f 5/5/5 6/6/6 7/7/7
f 6/6/6 8/8/8 7/7/7
f 7/7/7 8/8/8 9/9/9
f 8/8/8 10/10/10 9/9/9
f 9/9/9 10/10/10 11/11/11
f 10/10/10 12/12/12 11/11/11
f 11/11/11 12/12/12 13/13/13
f 12/12/12 14/14/14 13/13/13
f 13/13/13 14/14/14 15/15/15
f 14/14/14 16/16/16 15/15/15
f 15/15/15 16/16/16 17/17/17
f 16/16/16 18/18/18 17/17/17
f 17/17/17 18/18/18 19/19/19
f 18/18/18 20/20/20 19/19/19
f 19/19/19 20/20/20 21/21/21
f 20/20/20 22/22/22 21/21/21
f 21/21/21 22/22/22 23/23/23
f 22/22/22 24/24/24 23/23/23
f 23/23/23 24/24/24 25/25/25
f 24/24/24 26/26/26 25/25/25
f 25/25/25 26/26/26 27/27/27
f 26/26/26 28/28/28 27/27/27
f 27/27/27 28/28/28 29/29/29
f 28/28/28 30/30/30 29/29/29
f 29/29/29 30/30/30 31/31/31
f 30/30/30 32/32/32 31/31/31
f 31/31/31 32/32/32 1/1/1
f 32/32/32 2/2/2 1/1/1
f 8/8/8 6/6/6 10/10/10
f 6/6/6 4/4/4 10/10/10
f 10/10/10 4/4/4 2/2/2
f 2/2/2 32/32/32 10/10/10
f 32/32/32 30/30/30 10/10/10
f 10/10/10 30/30/30 28/28/28
f 28/28/28 26/26/26 10/10/10
f 26/26/26 24/24/24 10/10/10
f 10/10/10 24/24/24 22/22/22
f 22/22/22 20/20/20 10/10/10
f 20/20/20 18/18/18 10/10/10
f 10/10/10 18/18/18 16/16/16
f 16/16/16 14/14/14 10/10/10
f 14/14/14 12/12/12 10/10/10
f 33/33/33 34/34/34 35/35/25
f 34/34/34 36/36/35 35/35/25
f 35/35/25 36/36/35 37/37/36
f 36/36/35 38/38/37 37/37/36
f 37/37/36 38/38/37 39/39/21
f 38/38/37 40/40/38 39/39/21
f 39/39/21 40/40/38 41/41/39
f 40/40/38 42/42/40 41/41/39
f 41/41/39 42/42/40 43/43/41
f 42/42/40 44/44/42 43/43/41
f 43/43/41 44/44/42 45/45/15
f 44/44/42 46/46/43 45/45/15
f 45/45/15 46/46/43 47/47/44
f 46/46/43 48/48/45 47/47/44
f 47/47/44 48/48/45 49/49/46
f 48/48/45 50/50/47 49/49/46
f 49/49/46 50/50/47 51/51/9
f 50/50/47 52/52/48 51/51/9
f 51/51/9 52/52/48 53/53/49
f 52/52/48 54/54/50 53/53/49
f 53/53/49 54/54/50 55/55/5
f 54/54/50 56/56/51 55/55/5
f 55/55/5 56/56/51 57/57/3
f 56/56/51 58/58/52 57/57/3
f 57/57/3 58/58/52 59/59/1
f 58/58/52 60/60/53 59/59/1
f 59/59/1 60/60/53 61/61/31
f 60/60/53 62/62/54 61/61/31
f 61/61/31 62/62/54 63/63/29
f 62/62/54 64/64/55 63/63/29
f 63/63/29 64/64/55 33/33/33
f 64/64/55 34/34/34 33/33/33
f 64/64/55 65/65/56 34/34/34
f 65/65/56 66/66/57 34/34/34
f 34/34/34 66/66/57 36/36/35
f 66/66/57 67/67/58 36/36/35
f 36/36/35 67/67/58 38/38/37
f 67/67/58 68/68/59 38/38/37
f 38/38/37 68/68/59 40/40/38
f 68/68/59 69/69/60 40/40/38
f 40/40/38 69/69/60 42/42/40
f 69/69/60 70/70/61 42/42/40
f 42/42/40 70/70/61 44/44/42
f 70/70/61 71/71/62 44/44/42
f 44/44/42 71/71/62 46/46/43
f 71/71/62 72/72/63 46/46/43
f 46/46/43 72/72/63 48/48/45
f 72/72/63 73/73/64 48/48/45
f 48/48/45 73/73/64 50/50/47
f 73/73/64 74/74/65 50/50/47
f 50/50/47 74/74/65 52/52/48
f 74/74/65 75/75/66 52/52/48
f 52/52/48 75/75/66 54/54/50
f 75/75/66 76/76/67 54/54/50
f 54/54/50 76/76/67 56/56/51
f 76/76/67 77/77/68 56/56/51
f 56/56/51 77/77/68 58/58/52
f 77/77/68 78/78/69 58/58/52
f 58/58/52 78/78/69 60/60/53
f 78/78/69 79/79/70 60/60/53
f 60/60/53 79/79/70 62/62/54
f 79/79/70 80/80/71 62/62/54
f 62/62/54 80/80/71 64/64/55
f 80/80/71 65/65/56 64/64/55
f 74/74/65 73/73/64 75/75/66
f 73/73/64 72/72/63 75/75/66
f 75/75/66 72/72/63 71/71/62
f 71/71/62 70/70/61 75/75/66
f 70/70/61 69/69/60 75/75/66
f 75/75/66 69/69/60 68/68/59
f 68/68/59 67/67/58 75/75/66
f 67/67/58 66/66/57 75/75/66
f 75/75/66 66/66/57 65/65/56
f 65/65/56 80/80/71 75/75/66
f 80/80/71 79/79/70 75/75/66
f 75/75/66 79/79/70 78/78/69
f 78/78/69 77/77/68 75/75/66
f 77/77/68 76/76/67 75/75/66
