# Blender v2.92.0 OBJ File: ''
# www.blender.org
o model_0.015
v -3.383610 -0.265076 1.461823
v -3.504448 -0.417296 1.382599
v -2.313549 -0.264261 1.280121
v -2.613789 -0.651428 1.071136
v -1.265858 -0.269870 0.375732
v -1.636044 -0.783124 0.108856
v -0.737587 -0.263636 -0.897583
v -1.035789 -0.652492 -1.118134
v -0.549770 -0.263812 -2.258606
v -0.696194 -0.451714 -2.366455
v 3.529198 -0.338811 -9.219940
v 3.389648 -0.367319 -9.319519
v -3.788616 -0.479968 1.177460
v -3.332001 -0.821529 0.550049
v -2.544109 -1.046527 -0.539612
v -1.754005 -0.822592 -1.639221
v -1.045372 -0.530378 -2.614441
v 3.257175 -0.338406 -9.420410
v -4.065140 -0.416981 0.973389
v -4.045345 -0.652112 0.029083
v -3.449013 -0.782896 -1.197052
v -2.474251 -0.652215 -2.155212
v -1.390514 -0.452066 -2.872437
v 3.198471 -0.263245 -9.457397
v -4.192181 -0.265648 0.885864
v -4.350849 -0.265386 -0.189301
v -3.816063 -0.269973 -1.466217
v -2.767982 -0.265722 -2.371948
v -1.537621 -0.264981 -2.979950
v -4.192181 -0.265648 0.885864
v -4.066486 -0.112701 0.971680
v -4.350849 -0.265386 -0.189301
v -4.052067 -0.253981 0.031280
v -3.816063 -0.269973 -1.466217
v -3.447483 -0.297765 -1.200226
v -2.767982 -0.265722 -2.371948
v -2.474060 -0.255044 -2.157990
v -1.537621 -0.264981 -2.979950
v -1.391193 -0.077079 -2.872131
v 3.258694 -0.192065 -9.417084
v 3.393482 -0.161820 -9.324432
v -3.782310 -0.050027 1.176849
v -3.330009 -0.270622 0.549560
v -2.540386 -0.397800 -0.541870
v -1.752007 -0.271685 -1.639709
v -1.049015 0.000081 -2.618805
v 3.525944 -0.190732 -9.223572
v -3.505795 -0.113015 1.380920
v -2.613602 -0.254258 1.068359
v -1.641422 -0.297033 0.110657
v -1.035606 -0.255322 -1.120911
v -0.696877 -0.076727 -2.366119
v 3.589520 -0.265167 -9.179962
v -3.383610 -0.265076 1.461823
v -2.313549 -0.264261 1.280121
v -1.265858 -0.269870 0.375732
v -0.737587 -0.263636 -0.897583
v -0.549770 -0.263812 -2.258606
v 3.257175 -0.338406 -9.420410
v 3.198471 -0.263245 -9.457397
v 3.389648 -0.367319 -9.319519
v 3.258694 -0.192065 -9.417084
v 3.393482 -0.161820 -9.324432
v 3.525944 -0.190732 -9.223572
v 3.589520 -0.265167 -9.179962
v 3.529198 -0.338811 -9.219940
v -3.788616 -0.479968 1.177460
v -3.504448 -0.417296 1.382599
v -4.065140 -0.416981 0.973389
v -4.192181 -0.265648 0.885864
v -4.066486 -0.112701 0.971680
v -3.782310 -0.050027 1.176849
v -3.505795 -0.113015 1.380920
v -3.383610 -0.265076 1.461823
v 3.589520 -0.265167 -9.179962
v 3.198471 -0.263245 -9.457397
vt 0.468189 0.492015
vt 0.468305 0.491405
vt 0.470396 0.494210
vt 0.470628 0.492746
vt 0.474114 0.495185
vt 0.474230 0.493356
vt 0.478064 0.494332
vt 0.477831 0.492868
vt 0.481549 0.492502
vt 0.481549 0.491771
vt 0.505830 0.490063
vt 0.505830 0.489454
vt 0.468421 0.490429
vt 0.470745 0.490429
vt 0.474230 0.490429
vt 0.477831 0.490429
vt 0.481433 0.490429
vt 0.505830 0.488966
vt 0.468305 0.489332
vt 0.470628 0.487990
vt 0.474230 0.487381
vt 0.477831 0.487868
vt 0.481549 0.489088
vt 0.505830 0.488600
vt 0.468189 0.488722
vt 0.470396 0.486527
vt 0.474114 0.485551
vt 0.478064 0.486405
vt 0.481549 0.488234
vt 0.506992 0.491649
vt 0.506992 0.491039
vt 0.509316 0.493600
vt 0.509200 0.492624
vt 0.513150 0.494575
vt 0.513150 0.493234
vt 0.516983 0.493600
vt 0.516983 0.492624
vt 0.520469 0.492015
vt 0.520469 0.491283
vt 0.543123 0.491283
vt 0.543123 0.490795
vt 0.506992 0.490063
vt 0.509200 0.490063
vt 0.513150 0.490063
vt 0.516983 0.490063
vt 0.520469 0.490063
vt 0.543123 0.490307
vt 0.506992 0.489088
vt 0.509200 0.487503
vt 0.513150 0.486893
vt 0.516983 0.487503
vt 0.520469 0.488844
vt 0.543123 0.489942
vt 0.506992 0.488478
vt 0.509316 0.486405
vt 0.513150 0.485551
vt 0.516983 0.486405
vt 0.520469 0.488112
vt 0.479923 0.277755
vt 0.479806 0.277512
vt 0.480387 0.277999
vt 0.480039 0.277390
vt 0.480504 0.277390
vt 0.480968 0.277512
vt 0.481084 0.277755
vt 0.480852 0.277999
vt 0.471674 0.277390
vt 0.472603 0.277755
vt 0.470628 0.277390
vt 0.470164 0.277755
vt 0.470512 0.278243
vt 0.471442 0.278609
vt 0.472487 0.278609
vt 0.472952 0.278243
vt 0.505830 0.490429
vt 0.543123 0.491771
vn -0.0911 0.2116 0.9731
vn -0.2894 -0.5261 0.7997
vn 0.4425 0.3284 0.8345
vn 0.1776 -0.8106 0.5580
vn 0.7566 0.3647 0.5427
vn 0.4171 -0.8580 0.2997
vn 0.9029 0.3230 0.2836
vn 0.5302 -0.8435 0.0859
vn 0.9220 0.1313 0.3643
vn 0.4706 -0.8744 0.1183
vn 0.6697 -0.6649 -0.3306
vn 0.3937 -0.7369 -0.5496
vn -0.4721 -0.5881 0.6567
vn -0.1587 -0.9624 0.2205
vn 0.0029 -1.0000 -0.0000
vn 0.1134 -0.9820 -0.1510
vn 0.0755 -0.9919 -0.1024
vn 0.0805 -0.6696 -0.7384
vn -0.6685 -0.5252 0.5265
vn -0.5853 -0.8108 0.0071
vn -0.4164 -0.8578 -0.3014
vn -0.2498 -0.8414 -0.4792
vn -0.2686 -0.8808 -0.3899
vn -0.3150 0.0016 -0.9491
vn -0.8936 0.2111 0.3961
vn -0.9320 0.3246 -0.1614
vn -0.7569 0.3637 -0.5430
vn -0.5524 0.3201 -0.7697
vn -0.6716 0.1288 -0.7297
vn -0.4189 0.8113 0.4079
vn -0.9320 0.3246 -0.1613
vn -0.0729 0.9959 -0.0537
vn 0.0276 0.9993 0.0233
vn -0.0916 0.9954 -0.0282
vn -0.2795 0.9468 -0.1598
vn 0.0844 0.6705 -0.7371
vn 0.3952 0.7351 -0.5508
vn -0.3388 0.8140 0.4718
vn 0.0813 0.9900 -0.1152
vn 0.0027 1.0000 0.0016
vn -0.0726 0.9924 0.0990
vn -0.0403 0.9970 0.0656
vn 0.6683 0.6661 -0.3312
vn -0.2566 0.8120 0.5243
vn 0.0760 0.9958 0.0507
vn -0.0293 0.9994 -0.0209
vn 0.0551 0.9953 0.0798
vn 0.2505 0.9465 0.2033
vn 0.9994 -0.0021 -0.0357
vn -0.0912 0.2115 0.9731
vn 0.7565 0.3647 0.5428
vn 0.9220 0.1312 0.3644
vn 0.0806 -0.6696 -0.7384
vn -0.3151 0.0016 -0.9490
vn 0.3936 -0.7369 -0.5496
vn 0.0842 0.6705 -0.7371
vn 0.3952 0.7352 -0.5508
vn 0.6684 0.6660 -0.3311
vn 0.9994 -0.0022 -0.0358
vn 0.6696 -0.6650 -0.3309
vn -0.4722 -0.5881 0.6566
vn -0.8936 0.2112 0.3961
vn -0.4189 0.8113 0.4078
vn -0.0914 0.2115 0.9731
vn 0.9994 -0.0022 -0.0357
s 1
f 1/1/1 2/2/2 3/3/3
f 2/2/2 4/4/4 3/3/3
f 3/3/3 4/4/4 5/5/5
f 4/4/4 6/6/6 5/5/5
f 5/5/5 6/6/6 7/7/7
f 6/6/6 8/8/8 7/7/7
f 7/7/7 8/8/8 9/9/9
f 8/8/8 10/10/10 9/9/9
f 9/9/9 10/10/10 11/11/11
f 10/10/10 12/12/12 11/11/11
f 2/2/2 13/13/13 4/4/4
f 13/13/13 14/14/14 4/4/4
f 4/4/4 14/14/14 6/6/6
f 14/14/14 15/15/15 6/6/6
f 6/6/6 15/15/15 8/8/8
f 15/15/15 16/16/16 8/8/8
f 8/8/8 16/16/16 10/10/10
f 16/16/16 17/17/17 10/10/10
f 10/10/10 17/17/17 12/12/12
f 17/17/17 18/18/18 12/12/12
f 13/13/13 19/19/19 14/14/14
f 19/19/19 20/20/20 14/14/14
f 14/14/14 20/20/20 15/15/15
f 20/20/20 21/21/21 15/15/15
f 15/15/15 21/21/21 16/16/16
f 21/21/21 22/22/22 16/16/16
f 16/16/16 22/22/22 17/17/17
f 22/22/22 23/23/23 17/17/17
f 17/17/17 23/23/23 18/18/18
f 23/23/23 24/24/24 18/18/18
f 19/19/19 25/25/25 20/20/20
f 25/25/25 26/26/26 20/20/20
f 20/20/20 26/26/26 21/21/21
f 26/26/26 27/27/27 21/21/21
f 21/21/21 27/27/27 22/22/22
f 27/27/27 28/28/28 22/22/22
f 22/22/22 28/28/28 23/23/23
f 28/28/28 29/29/29 23/23/23
f 23/23/23 29/29/29 24/24/24
f 30/30/25 31/31/30 32/32/31
f 31/31/30 33/33/32 32/32/31
f 32/32/31 33/33/32 34/34/27
f 33/33/32 35/35/33 34/34/27
f 34/34/27 35/35/33 36/36/28
f 35/35/33 37/37/34 36/36/28
f 36/36/28 37/37/34 38/38/29
f 37/37/34 39/39/35 38/38/29
f 38/38/29 39/39/35 40/40/36
f 39/39/35 41/41/37 40/40/36
f 31/31/30 42/42/38 33/33/32
f 42/42/38 43/43/39 33/33/32
f 33/33/32 43/43/39 35/35/33
f 43/43/39 44/44/40 35/35/33
f 35/35/33 44/44/40 37/37/34
f 44/44/40 45/45/41 37/37/34
f 37/37/34 45/45/41 39/39/35
f 45/45/41 46/46/42 39/39/35
f 39/39/35 46/46/42 41/41/37
f 46/46/42 47/47/43 41/41/37
f 42/42/38 48/48/44 43/43/39
f 48/48/44 49/49/45 43/43/39
f 43/43/39 49/49/45 44/44/40
f 49/49/45 50/50/46 44/44/40
f 44/44/40 50/50/46 45/45/41
f 50/50/46 51/51/47 45/45/41
f 45/45/41 51/51/47 46/46/42
f 51/51/47 52/52/48 46/46/42
f 46/46/42 52/52/48 47/47/43
f 52/52/48 53/53/49 47/47/43
f 48/48/44 54/54/50 49/49/45
f 54/54/50 55/55/3 49/49/45
f 49/49/45 55/55/3 50/50/46
f 55/55/3 56/56/51 50/50/46
f 50/50/46 56/56/51 51/51/47
f 56/56/51 57/57/7 51/51/47
f 51/51/47 57/57/7 52/52/48
f 57/57/7 58/58/52 52/52/48
f 52/52/48 58/58/52 53/53/49
f 59/59/53 60/60/54 61/61/55
f 60/60/54 62/62/56 61/61/55
f 61/61/55 62/62/56 63/63/57
f 63/63/57 64/64/58 61/61/55
f 64/64/58 65/65/59 61/61/55
f 61/61/55 65/65/59 66/66/60
f 67/67/61 68/68/2 69/69/19
f 68/68/2 70/70/62 69/69/19
f 70/70/62 68/68/2 71/71/63
f 68/68/2 72/72/38 71/71/63
f 72/72/38 68/68/2 73/73/44
f 68/68/2 74/74/64 73/73/44
f 11/11/11 75/75/65 9/9/9
f 40/40/36 76/76/24 38/38/29
