# Blender v2.92.0 OBJ File: ''
# www.blender.org
o Stove.007_Mesh.007
v 0.002459 0.036237 0.005409
v -0.001896 0.043616 0.014583
v -0.004246 0.048378 0.019517
v -0.005662 0.054657 0.022440
v -0.006144 0.061631 0.023435
v -0.005662 0.068605 0.022440
v -0.004246 0.074885 0.019517
v -0.001896 0.079663 0.014583
v 0.001265 0.082042 0.007796
v 0.004848 0.081391 -0.000132
v 0.008229 0.077869 -0.007958
v 0.010784 0.072693 -0.014324
v 0.012231 0.067701 -0.018434
v 0.012783 0.064225 -0.020422
v 0.012890 0.062125 -0.020963
v 0.005263 0.021523 -0.000105
v -0.002751 0.036237 0.002884
v -0.007252 0.043616 0.011986
v -0.009669 0.048378 0.016890
v -0.011088 0.054657 0.019810
v -0.011570 0.061631 0.020805
v -0.011088 0.068605 0.019810
v -0.009669 0.074885 0.016890
v -0.007252 0.079663 0.011986
v -0.003886 0.082042 0.005300
v 0.000118 0.081391 -0.002426
v 0.004164 0.077869 -0.009928
v 0.007576 0.072693 -0.015879
v 0.009902 0.067701 -0.019563
v 0.011126 0.064225 -0.021226
v 0.011483 0.062125 -0.021645
v -0.000163 0.021523 -0.002733
v -0.000587 0.030205 0.011965
v -0.004243 0.036566 0.019511
v -0.009669 0.036566 0.016883
v -0.006013 0.030205 0.009335
v -0.007231 0.043421 0.025681
v -0.012657 0.043421 0.023050
v -0.009150 0.052057 0.029641
v -0.014576 0.052057 0.027011
v -0.009813 0.061631 0.031007
v -0.015239 0.061631 0.028377
v -0.009150 0.071205 0.029641
v -0.014576 0.071205 0.027011
v -0.007231 0.079842 0.025681
v -0.012657 0.079842 0.023050
v -0.004243 0.086696 0.019511
v -0.009669 0.086696 0.016883
v -0.000477 0.091096 0.011740
v -0.005903 0.091096 0.009110
v 0.003961 0.091729 0.002384
v -0.001310 0.091729 -0.000169
v 0.008461 0.087568 -0.007548
v 0.003698 0.087568 -0.009855
v 0.011926 0.079888 -0.015781
v 0.008013 0.079888 -0.017675
v 0.013692 0.071478 -0.020792
v 0.010851 0.071478 -0.022167
v 0.013918 0.065182 -0.022642
v 0.012160 0.065182 -0.023495
v 0.013839 0.062470 -0.022927
v 0.012435 0.062470 -0.023606
v 0.000585 0.021159 0.009548
v -0.004841 0.021159 0.006918
v 0.005324 0.004247 -0.000229
v -0.000102 0.004247 -0.002859
v 0.000646 0.003881 0.009422
v -0.004780 0.003881 0.006791
v 0.003295 -0.021351 0.003679
v 0.007800 -0.028730 -0.005422
v 0.010213 -0.033492 -0.010326
v 0.011633 -0.039770 -0.013247
v 0.012111 -0.046745 -0.014241
v 0.011633 -0.053718 -0.013247
v 0.010213 -0.059998 -0.010326
v 0.007800 -0.064776 -0.005422
v 0.004431 -0.067155 0.001265
v 0.000429 -0.066505 0.008989
v -0.003620 -0.062982 0.016493
v -0.007032 -0.057806 0.022441
v -0.009361 -0.052814 0.026126
v -0.010578 -0.049338 0.027791
v -0.010938 -0.047238 0.028208
v 0.000707 -0.006637 0.009298
v -0.001915 -0.021351 0.001156
v 0.002441 -0.028730 -0.008018
v 0.004793 -0.033492 -0.012954
v 0.006207 -0.039770 -0.015877
v 0.006685 -0.046745 -0.016869
v 0.006207 -0.053718 -0.015877
v 0.004793 -0.059998 -0.012954
v 0.002441 -0.064776 -0.008018
v -0.000721 -0.067155 -0.001232
v -0.004304 -0.066505 0.006697
v -0.007685 -0.062982 0.014523
v -0.010240 -0.057806 0.020888
v -0.011689 -0.052814 0.024997
v -0.012238 -0.049338 0.026987
v -0.012342 -0.047238 0.027528
v -0.004719 -0.006637 0.006668
v 0.006555 -0.015319 -0.002770
v 0.010213 -0.021679 -0.010318
v 0.004787 -0.021679 -0.012949
v 0.001129 -0.015319 -0.005400
v 0.013201 -0.028534 -0.016487
v 0.007775 -0.028534 -0.019115
v 0.015120 -0.037171 -0.020446
v 0.009694 -0.037171 -0.023076
v 0.015783 -0.046745 -0.021811
v 0.010357 -0.046745 -0.024441
v 0.015120 -0.056318 -0.020446
v 0.009694 -0.056318 -0.023076
v 0.013201 -0.064955 -0.016487
v 0.007775 -0.064955 -0.019116
v 0.010213 -0.071809 -0.010319
v 0.004787 -0.071809 -0.012949
v 0.006447 -0.076210 -0.002547
v 0.001021 -0.076210 -0.005175
v 0.001855 -0.076842 0.006734
v -0.003416 -0.076842 0.004179
v -0.003154 -0.072681 0.016420
v -0.007914 -0.072681 0.014113
v -0.007465 -0.065002 0.024240
v -0.011381 -0.065002 0.022343
v -0.010307 -0.056591 0.028731
v -0.013145 -0.056591 0.027357
v -0.011619 -0.050296 0.030058
v -0.013377 -0.050296 0.029207
v -0.011890 -0.047584 0.030172
v -0.013294 -0.047584 0.029489
v 0.005383 -0.006272 -0.000353
v -0.000043 -0.006272 -0.002983
vt 0.829772 0.904516
vt 0.829772 0.907467
vt 0.838534 0.907467
vt 0.838534 0.904516
vt 0.829772 0.910647
vt 0.838534 0.910647
vt 0.829772 0.914655
vt 0.838534 0.914655
vt 0.829772 0.919097
vt 0.838534 0.919097
vt 0.829772 0.923539
vt 0.838534 0.923539
vt 0.829772 0.927546
vt 0.838534 0.927546
vt 0.829772 0.930726
vt 0.838534 0.930726
vt 0.829772 0.932768
vt 0.838534 0.932768
vt 0.829898 0.933061
vt 0.838408 0.933061
vt 0.830309 0.931131
vt 0.837997 0.931131
vt 0.830993 0.927568
vt 0.837313 0.927568
vt 0.831860 0.923665
vt 0.836446 0.923665
vt 0.832735 0.920744
vt 0.835571 0.920744
vt 0.833017 0.919486
vt 0.835289 0.919486
vt 0.829772 0.900318
vt 0.838534 0.900318
vt 0.829947 0.907314
vt 0.838359 0.907314
vt 0.838479 0.910738
vt 0.829827 0.910738
vt 0.838530 0.912948
vt 0.829776 0.912948
vt 0.838534 0.915861
vt 0.829772 0.915861
vt 0.838534 0.919097
vt 0.829772 0.919097
vt 0.838534 0.922333
vt 0.829772 0.922333
vt 0.838530 0.925246
vt 0.829776 0.925246
vt 0.838479 0.927463
vt 0.829827 0.927463
vt 0.838312 0.928567
vt 0.829994 0.928567
vt 0.837974 0.928265
vt 0.830332 0.928265
vt 0.837435 0.926631
vt 0.830871 0.926631
vt 0.836741 0.924229
vt 0.831562 0.924229
vt 0.836033 0.921913
vt 0.832273 0.921913
vt 0.835492 0.920300
vt 0.832814 0.920300
vt 0.835289 0.919326
vt 0.833017 0.919326
vt 0.829772 0.900488
vt 0.838534 0.900488
vt 0.815475 0.827059
vt 0.808964 0.830483
vt 0.805463 0.827212
vt 0.810841 0.824261
vt 0.812759 0.912972
vt 0.806248 0.909548
vt 0.810882 0.906749
vt 0.816260 0.909701
vt 0.805458 0.832693
vt 0.801068 0.830392
vt 0.816265 0.915182
vt 0.820655 0.912881
vt 0.803376 0.835606
vt 0.798246 0.834399
vt 0.818347 0.918095
vt 0.823477 0.916888
vt 0.802668 0.838842
vt 0.797274 0.838842
vt 0.819055 0.921330
vt 0.824450 0.921330
vt 0.803376 0.842078
vt 0.798246 0.843284
vt 0.818347 0.924567
vt 0.823477 0.925773
vt 0.805458 0.844991
vt 0.801068 0.847291
vt 0.816265 0.927480
vt 0.820655 0.929780
vt 0.808964 0.847208
vt 0.805463 0.850471
vt 0.812759 0.929697
vt 0.816260 0.932960
vt 0.813764 0.848312
vt 0.805569 0.852513
vt 0.807959 0.930801
vt 0.816154 0.935002
vt 0.819341 0.848010
vt 0.819294 0.852806
vt 0.802382 0.930499
vt 0.802429 0.935295
vt 0.824803 0.846376
vt 0.824630 0.850876
vt 0.796920 0.928864
vt 0.797093 0.933365
vt 0.829190 0.843974
vt 0.830350 0.847313
vt 0.792533 0.926463
vt 0.791373 0.929802
vt 0.831967 0.841658
vt 0.833735 0.843410
vt 0.789756 0.924147
vt 0.787988 0.925899
vt 0.833269 0.840045
vt 0.834868 0.840489
vt 0.788455 0.922534
vt 0.786855 0.922978
vt 0.833610 0.839071
vt 0.835009 0.839231
vt 0.788113 0.921559
vt 0.786714 0.921720
vt 0.819441 0.820232
vt 0.812564 0.820063
vt 0.802282 0.902721
vt 0.809160 0.902552
vt 0.829772 0.892471
vt 0.838534 0.892471
vt 0.812653 0.812047
vt 0.819530 0.812216
vt 0.838534 0.892302
vt 0.829772 0.892302
vt 0.802193 0.894705
vt 0.809071 0.894536
vt 0.829772 0.883393
vt 0.829772 0.880442
vt 0.838534 0.880442
vt 0.838534 0.883393
vt 0.829772 0.877262
vt 0.838534 0.877262
vt 0.829772 0.873254
vt 0.838534 0.873254
vt 0.829772 0.868812
vt 0.838534 0.868812
vt 0.829772 0.864370
vt 0.838534 0.864370
vt 0.829772 0.860363
vt 0.838534 0.860363
vt 0.829772 0.857182
vt 0.838534 0.857182
vt 0.829772 0.855141
vt 0.838534 0.855141
vt 0.829898 0.854847
vt 0.838408 0.854847
vt 0.830309 0.856778
vt 0.837997 0.856778
vt 0.830993 0.860341
vt 0.837313 0.860341
vt 0.831860 0.864243
vt 0.836446 0.864243
vt 0.832735 0.867164
vt 0.835571 0.867164
vt 0.833017 0.868423
vt 0.835289 0.868423
vt 0.829772 0.887591
vt 0.838534 0.887591
vt 0.829947 0.880594
vt 0.838359 0.880594
vt 0.838479 0.877171
vt 0.829827 0.877171
vt 0.838530 0.874961
vt 0.829776 0.874961
vt 0.838534 0.872048
vt 0.829772 0.872048
vt 0.838534 0.868812
vt 0.829772 0.868812
vt 0.838534 0.865576
vt 0.829772 0.865576
vt 0.838530 0.862663
vt 0.829776 0.862663
vt 0.838479 0.860445
vt 0.829827 0.860445
vt 0.838312 0.859342
vt 0.829994 0.859342
vt 0.837974 0.859644
vt 0.830332 0.859644
vt 0.837435 0.861278
vt 0.830871 0.861278
vt 0.836741 0.863680
vt 0.831562 0.863680
vt 0.836033 0.865996
vt 0.832273 0.865996
vt 0.835492 0.867609
vt 0.832814 0.867609
vt 0.835289 0.868583
vt 0.833017 0.868583
vt 0.829772 0.887421
vt 0.838534 0.887421
vt 0.816707 0.800339
vt 0.823218 0.796916
vt 0.826719 0.800187
vt 0.821341 0.803138
vt 0.798505 0.879405
vt 0.805016 0.882828
vt 0.800382 0.885627
vt 0.795004 0.882676
vt 0.826724 0.794706
vt 0.831115 0.797007
vt 0.794999 0.877195
vt 0.790609 0.879496
vt 0.828806 0.791793
vt 0.833937 0.792999
vt 0.792917 0.874282
vt 0.787787 0.875488
vt 0.829514 0.788557
vt 0.834909 0.788557
vt 0.792209 0.871046
vt 0.786814 0.871046
vt 0.828806 0.785321
vt 0.833937 0.784115
vt 0.792917 0.867810
vt 0.787787 0.866604
vt 0.826724 0.782407
vt 0.831115 0.780107
vt 0.794999 0.864896
vt 0.790609 0.862596
vt 0.823218 0.780190
vt 0.826719 0.776927
vt 0.798505 0.862679
vt 0.795004 0.859416
vt 0.818418 0.779087
vt 0.821181 0.774886
vt 0.803305 0.861576
vt 0.800542 0.857375
vt 0.812841 0.779389
vt 0.814542 0.774592
vt 0.808882 0.861878
vt 0.807181 0.857081
vt 0.807379 0.781023
vt 0.807552 0.776523
vt 0.814344 0.863512
vt 0.814171 0.859012
vt 0.802992 0.783424
vt 0.801833 0.780086
vt 0.818731 0.865913
vt 0.819890 0.862575
vt 0.800215 0.785741
vt 0.798447 0.783988
vt 0.821508 0.868230
vt 0.823276 0.866477
vt 0.798914 0.787354
vt 0.797314 0.786909
vt 0.822809 0.869843
vt 0.824409 0.869398
vt 0.798572 0.788328
vt 0.797174 0.788168
vt 0.823151 0.870817
vt 0.824549 0.870657
vt 0.812741 0.807166
vt 0.819619 0.807335
vt 0.808982 0.889655
vt 0.802104 0.889825
vn -0.3541 -0.5835 0.7308
vn -0.2857 -0.7555 0.5895
vn -0.3542 -0.5835 0.7308
vn -0.3529 -0.5878 0.7280
vn -0.3528 -0.5878 0.7280
vn -0.4148 -0.3091 0.8558
vn -0.4362 -0.0000 0.8999
vn -0.4361 -0.0000 0.8999
vn -0.4149 0.3091 0.8558
vn -0.4148 0.3091 0.8558
vn -0.3529 0.5878 0.7280
vn -0.3528 0.5878 0.7280
vn -0.2564 0.8090 0.5290
vn -0.2563 0.8090 0.5290
vn -0.1126 0.9661 0.2324
vn -0.1126 0.9661 0.2323
vn 0.0675 0.9880 -0.1393
vn 0.0674 0.9880 -0.1393
vn 0.2175 0.8667 -0.4489
vn 0.3202 0.6788 -0.6609
vn 0.3202 0.6787 -0.6609
vn 0.3871 0.4599 -0.7991
vn 0.3872 0.4598 -0.7992
vn 0.4242 0.2319 -0.8754
vn 0.4349 0.0811 -0.8968
vn -0.4337 -0.1067 0.8947
vn -0.4336 -0.1067 0.8947
vn 0.3508 0.5938 -0.7241
vn 0.2678 0.7892 -0.5526
vn 0.2677 0.7892 -0.5527
vn 0.2679 0.7892 -0.5526
vn 0.2676 0.7892 -0.5527
vn 0.3426 0.6188 -0.7069
vn 0.3418 0.6188 -0.7073
vn 0.3424 0.6188 -0.7070
vn 0.4144 0.3120 -0.8550
vn 0.4143 0.3120 -0.8550
vn 0.4362 0.0000 -0.8999
vn 0.4143 -0.3120 -0.8550
vn 0.4144 -0.3120 -0.8550
vn 0.4144 -0.3119 -0.8550
vn 0.3428 -0.6182 -0.7074
vn 0.3427 -0.6182 -0.7073
vn 0.3437 -0.6182 -0.7069
vn 0.2124 -0.8734 -0.4383
vn 0.2134 -0.8733 -0.4379
vn 0.2124 -0.8733 -0.4384
vn 0.0500 -0.9934 -0.1031
vn 0.0500 -0.9934 -0.1032
vn -0.0973 -0.9748 0.2009
vn -0.0973 -0.9748 0.2008
vn -0.2089 -0.8779 0.4309
vn -0.2878 -0.7514 0.5938
vn -0.2878 -0.7513 0.5938
vn -0.3439 -0.6147 0.7098
vn -0.3922 -0.4373 0.8093
vn -0.4230 -0.2461 0.8721
vn 0.4279 0.1915 -0.8833
vn 0.9025 0.0056 0.4307
vn 0.9025 0.0027 0.4308
vn 0.9025 0.0027 0.4307
vn 0.9024 0.0056 0.4308
vn -0.8973 0.0029 -0.4414
vn -0.8972 0.0058 -0.4415
vn -0.8973 0.0059 -0.4414
vn -0.8973 0.0030 -0.4415
vn 0.9024 0.0026 0.4308
vn 0.9007 0.0001 0.4345
vn 0.9006 0.0001 0.4346
vn -0.8992 0.0001 -0.4376
vn -0.8973 0.0029 -0.4413
vn -0.8973 0.0030 -0.4414
vn 0.9000 0.0001 0.4359
vn -0.8998 -0.0002 -0.4362
vn 0.9000 0.0001 0.4360
vn -0.9000 -0.0001 -0.4359
vn 0.9000 -0.0001 0.4360
vn -0.9000 0.0001 -0.4359
vn 0.9000 -0.0001 0.4359
vn 0.9007 -0.0001 0.4345
vn 0.9006 -0.0001 0.4346
vn -0.8992 -0.0001 -0.4376
vn -0.8998 0.0002 -0.4362
vn 0.9029 -0.0034 0.4299
vn 0.9027 -0.0032 0.4302
vn -0.8969 -0.0036 -0.4422
vn -0.8991 -0.0001 -0.4377
vn -0.8970 -0.0033 -0.4419
vn 0.9059 -0.0130 0.4233
vn 0.9054 -0.0112 0.4243
vn 0.9027 -0.0031 0.4302
vn -0.8936 -0.0131 -0.4487
vn -0.8941 -0.0114 -0.4477
vn 0.9080 -0.0261 0.4182
vn 0.9075 -0.0221 0.4194
vn 0.9054 -0.0112 0.4244
vn -0.8909 -0.0262 -0.4535
vn -0.8915 -0.0222 -0.4524
vn 0.9081 -0.0413 0.4166
vn 0.9084 -0.0353 0.4167
vn -0.8897 -0.0413 -0.4546
vn -0.8899 -0.0354 -0.4547
vn 0.9081 -0.0413 0.4167
vn 0.9064 -0.0588 0.4183
vn 0.9073 -0.0519 0.4172
vn 0.9084 -0.0354 0.4167
vn -0.8899 -0.0585 -0.4524
vn -0.8896 -0.0517 -0.4537
vn 0.9047 -0.0776 0.4190
vn 0.9049 -0.0725 0.4195
vn -0.8894 -0.0773 -0.4506
vn -0.8899 -0.0720 -0.4505
vn 0.9047 -0.0777 0.4190
vn 0.9034 -0.0862 0.4200
vn 0.9035 -0.0871 0.4196
vn -0.8897 -0.0863 -0.4484
vn -0.8894 -0.0873 -0.4488
vn 0.9034 -0.0861 0.4201
vn 0.9014 -0.0681 0.4277
vn 0.0682 -0.9877 -0.1407
vn -0.8948 -0.0688 -0.4412
vn 0.9005 0.0022 0.4348
vn 0.9024 0.0057 0.4309
vn 0.9007 0.0028 0.4345
vn -0.8992 0.0023 -0.4375
vn -0.8991 0.0028 -0.4378
vn -0.8973 0.0058 -0.4414
vn 0.4360 0.0081 -0.8999
vn 0.8999 0.0000 0.4361
vn -0.4337 -0.1068 0.8947
vn -0.4362 -0.0081 0.8998
vn -0.8991 0.0029 -0.4378
vn -0.8992 0.0022 -0.4374
vn -0.8999 0.0000 -0.4362
vn 0.3542 0.5837 -0.7307
vn 0.2857 0.7555 -0.5895
vn 0.3541 0.5837 -0.7307
vn 0.2857 0.7556 -0.5895
vn 0.3528 0.5878 -0.7280
vn 0.3528 0.5877 -0.7281
vn 0.4148 0.3090 -0.8558
vn 0.4148 -0.3090 -0.8558
vn 0.4149 -0.3090 -0.8558
vn 0.3528 -0.5878 -0.7280
vn 0.3528 -0.5878 -0.7281
vn 0.2563 -0.8090 -0.5289
vn 0.2563 -0.8090 -0.5290
vn 0.3528 -0.5877 -0.7281
vn 0.1126 -0.9661 -0.2323
vn 0.1125 -0.9661 -0.2323
vn -0.0675 -0.9880 0.1392
vn -0.2176 -0.8667 0.4489
vn -0.3202 -0.6788 0.6609
vn -0.3870 -0.4601 0.7991
vn -0.3870 -0.4600 0.7991
vn -0.3202 -0.6787 0.6609
vn -0.4242 -0.2319 0.8754
vn -0.4242 -0.2320 0.8754
vn -0.4349 -0.0805 0.8969
vn 0.4317 0.1428 -0.8906
vn 0.3541 0.5836 -0.7307
vn 0.3542 0.5836 -0.7307
vn 0.4316 0.1428 -0.8907
vn -0.3508 -0.5938 0.7241
vn -0.2677 -0.7892 0.5527
vn -0.2679 -0.7892 0.5526
vn -0.2681 -0.7892 0.5525
vn -0.3425 -0.6188 0.7069
vn -0.3433 -0.6189 0.7065
vn -0.3425 -0.6189 0.7069
vn -0.3428 -0.6188 0.7068
vn -0.4144 -0.3118 0.8550
vn -0.4146 -0.3118 0.8549
vn -0.4143 -0.3118 0.8550
vn -0.4360 -0.0000 0.9000
vn -0.4360 -0.0000 0.8999
vn -0.4144 0.3118 0.8550
vn -0.3428 0.6182 0.7073
vn -0.3420 0.6182 0.7077
vn -0.2123 0.8734 0.4383
vn -0.2116 0.8734 0.4387
vn -0.2124 0.8734 0.4383
vn -0.0500 0.9934 0.1032
vn -0.0500 0.9934 0.1031
vn 0.0973 0.9748 -0.2009
vn 0.0973 0.9748 -0.2008
vn 0.2087 0.8779 -0.4310
vn 0.2087 0.8779 -0.4309
vn 0.2876 0.7514 -0.5939
vn 0.2876 0.7514 -0.5938
vn 0.3440 0.6147 -0.7098
vn 0.3923 0.4371 -0.8093
vn 0.3923 0.4372 -0.8093
vn 0.4226 0.2457 -0.8724
vn -0.4233 -0.2408 0.8734
vn -0.3508 -0.5939 0.7241
vn 0.8973 -0.0056 0.4414
vn 0.8974 -0.0027 0.4413
vn 0.8973 -0.0028 0.4414
vn 0.8973 -0.0057 0.4413
vn -0.9025 -0.0029 -0.4307
vn -0.9025 -0.0057 -0.4306
vn -0.9025 -0.0057 -0.4307
vn -0.9025 -0.0030 -0.4306
vn 0.8992 -0.0001 0.4375
vn -0.9008 -0.0001 -0.4343
vn -0.9025 -0.0028 -0.4308
vn -0.9007 -0.0001 -0.4344
vn 0.8992 -0.0000 0.4375
vn 0.8998 0.0002 0.4362
vn -0.9000 0.0000 -0.4358
vn -0.9007 -0.0001 -0.4345
vn 0.8999 -0.0001 0.4362
vn -0.8999 0.0001 -0.4361
vn 0.8999 0.0001 0.4362
vn -0.8999 -0.0001 -0.4361
vn 0.8998 -0.0002 0.4362
vn 0.8992 0.0001 0.4375
vn -0.9007 0.0001 -0.4345
vn 0.8992 0.0001 0.4374
vn 0.8969 0.0035 0.4421
vn 0.8971 0.0032 0.4418
vn -0.9029 0.0035 -0.4299
vn -0.9007 0.0001 -0.4344
vn -0.9027 0.0032 -0.4302
vn 0.8970 0.0035 0.4421
vn 0.8936 0.0130 0.4486
vn 0.8941 0.0112 0.4476
vn -0.9059 0.0130 -0.4233
vn -0.9029 0.0036 -0.4299
vn -0.9054 0.0113 -0.4244
vn 0.8909 0.0262 0.4535
vn 0.8916 0.0222 0.4524
vn 0.8941 0.0112 0.4477
vn -0.9080 0.0261 -0.4181
vn -0.9075 0.0221 -0.4194
vn 0.8898 0.0414 0.4544
vn 0.8899 0.0354 0.4547
vn -0.9081 0.0413 -0.4167
vn -0.9084 0.0353 -0.4166
vn 0.8898 0.0414 0.4545
vn 0.8900 0.0589 0.4521
vn 0.8898 0.0520 0.4534
vn -0.9065 0.0587 -0.4182
vn -0.9073 0.0517 -0.4173
vn 0.8893 0.0775 0.4507
vn 0.8899 0.0724 0.4504
vn -0.9048 0.0774 -0.4187
vn -0.9073 0.0518 -0.4173
vn -0.9051 0.0722 -0.4191
vn 0.8894 0.0859 0.4490
vn 0.8891 0.0869 0.4494
vn 0.8899 0.0725 0.4504
vn -0.9033 0.0862 -0.4203
vn -0.9034 0.0872 -0.4198
vn 0.8943 0.0684 0.4422
vn 0.8942 0.0685 0.4424
vn -0.0684 0.9877 0.1409
vn -0.9007 0.0695 -0.4288
vn -0.9033 0.0862 -0.4202
vn 0.8991 -0.0030 0.4378
vn 0.8974 -0.0057 0.4413
vn 0.8989 -0.0037 0.4381
vn -0.9008 -0.0030 -0.4343
vn -0.9010 -0.0037 -0.4339
vn -0.9025 -0.0058 -0.4307
vn -0.4362 -0.0131 0.8998
vn 0.8991 -0.0031 0.4378
vn 0.8989 -0.0037 0.4382
vn 0.4361 0.0130 -0.8998
vn -0.9008 -0.0030 -0.4342
vn -0.8999 -0.0000 -0.4361
s 1
f 33/1/1 34/2/2 35/3/2 36/4/3
f 34/2/2 37/5/4 38/6/5 35/3/2
f 37/5/4 39/7/6 40/8/6 38/6/4
f 39/7/6 41/9/7 42/10/8 40/8/6
f 41/9/7 43/11/9 44/12/10 42/10/7
f 43/11/10 45/13/11 46/14/11 44/12/9
f 45/13/12 47/15/13 48/16/14 46/14/11
f 47/15/14 49/17/15 50/18/16 48/16/14
f 49/17/16 51/19/17 52/20/18 50/18/16
f 51/19/17 53/21/19 54/22/19 52/20/18
f 53/21/19 55/23/20 56/24/20 54/22/19
f 55/23/21 57/25/22 58/26/23 56/24/20
f 57/25/22 59/27/24 60/28/24 58/26/23
f 59/27/24 61/29/25 62/30/25 60/28/24
f 63/31/26 33/1/1 36/4/3 64/32/27
f 1/33/28 17/34/28 18/35/29 2/36/30
f 2/36/31 18/35/32 19/37/33 3/38/34
f 3/38/33 19/37/35 20/39/36 4/40/37
f 4/40/36 20/39/36 21/41/38 5/42/38
f 5/42/38 21/41/38 22/43/39 6/44/40
f 6/44/39 22/43/41 23/45/42 7/46/43
f 7/46/43 23/45/44 24/47/45 8/48/46
f 8/48/47 24/47/45 25/49/48 9/50/49
f 9/50/48 25/49/48 26/51/50 10/52/51
f 10/52/50 26/51/50 27/53/52 11/54/52
f 11/54/52 27/53/52 28/55/53 12/56/53
f 12/56/54 28/55/54 29/57/55 13/58/55
f 13/58/55 29/57/55 30/59/56 14/60/56
f 14/60/56 30/59/56 31/61/57 15/62/57
f 16/63/58 32/64/58 17/34/28 1/33/28
f 1/65/59 2/66/60 34/67/61 33/68/62
f 18/69/63 17/70/64 36/71/65 35/72/66
f 2/66/67 3/73/68 37/74/69 34/67/61
f 19/75/70 18/69/71 35/72/72 38/76/70
f 3/73/68 4/77/73 39/78/73 37/74/68
f 20/79/74 19/75/70 38/76/70 40/80/74
f 4/77/75 5/81/75 41/82/75 39/78/75
f 21/83/76 20/79/76 40/80/76 42/84/76
f 5/81/77 6/85/77 43/86/77 41/82/77
f 22/87/78 21/83/78 42/84/78 44/88/78
f 6/85/79 7/89/80 45/90/81 43/86/79
f 23/91/82 22/87/83 44/88/83 46/92/82
f 7/89/81 8/93/84 47/94/85 45/90/81
f 24/95/86 23/91/87 46/92/82 48/96/88
f 8/93/84 9/97/89 49/98/90 47/94/91
f 25/99/92 24/95/86 48/96/88 50/100/93
f 9/97/89 10/101/94 51/102/95 49/98/96
f 26/103/97 25/99/92 50/100/93 52/104/98
f 10/101/94 11/105/99 53/106/100 51/102/95
f 27/107/101 26/103/97 52/104/98 54/108/102
f 11/105/103 12/109/104 55/110/105 53/106/106
f 28/111/107 27/107/101 54/108/102 56/112/108
f 12/109/104 13/113/109 57/114/110 55/110/105
f 29/115/111 28/111/107 56/112/108 58/116/112
f 13/113/113 14/117/114 59/118/115 57/114/110
f 30/119/116 29/115/111 58/116/112 60/120/117
f 14/117/118 15/121/119 61/122/119 59/118/115
f 15/62/120 31/61/120 62/30/120 61/29/120
f 31/123/121 30/119/116 60/120/117 62/124/121
f 16/125/122 1/65/59 33/68/123 63/126/124
f 17/70/64 32/127/125 64/128/126 36/71/127
f 32/64/58 16/63/58 65/129/128 66/130/128
f 16/125/122 63/126/124 67/131/129 65/132/129
f 63/31/26 64/32/130 68/133/131 67/134/131
f 64/128/132 32/127/133 66/135/134 68/136/134
f 101/137/135 102/138/136 103/139/136 104/140/137
f 102/138/138 105/141/139 106/142/140 103/139/138
f 105/141/140 107/143/141 108/144/141 106/142/139
f 107/143/141 109/145/38 110/146/38 108/144/141
f 109/145/38 111/147/142 112/148/143 110/146/38
f 111/147/142 113/149/144 114/150/145 112/148/142
f 113/149/144 115/151/146 116/152/147 114/150/148
f 115/151/146 117/153/149 118/154/150 116/152/147
f 117/153/149 119/155/151 120/156/151 118/154/149
f 119/155/151 121/157/152 122/158/152 120/156/151
f 121/157/152 123/159/153 124/160/153 122/158/152
f 123/159/153 125/161/154 126/162/155 124/160/156
f 125/161/154 127/163/157 128/164/158 126/162/155
f 127/163/157 129/165/159 130/166/159 128/164/157
f 131/167/160 101/137/161 104/140/162 132/168/163
f 69/169/164 85/170/164 86/171/165 70/172/166
f 70/172/165 86/171/167 87/173/168 71/174/169
f 71/174/170 87/173/171 88/175/172 72/176/173
f 72/176/172 88/175/174 89/177/8 73/178/175
f 73/178/8 89/177/176 90/179/177 74/180/177
f 74/180/177 90/179/177 91/181/178 75/182/178
f 75/182/178 91/181/179 92/183/180 76/184/181
f 76/184/182 92/183/180 93/185/183 77/186/183
f 77/186/184 93/185/183 94/187/185 78/188/185
f 78/188/186 94/187/185 95/189/187 79/190/187
f 79/190/188 95/189/187 96/191/189 80/192/189
f 80/192/190 96/191/189 97/193/191 81/194/191
f 81/194/191 97/193/191 98/195/192 82/196/192
f 82/196/192 98/195/193 99/197/194 83/198/194
f 84/199/195 100/200/195 85/170/164 69/169/196
f 69/201/197 70/202/198 102/203/199 101/204/200
f 86/205/201 85/206/202 104/207/203 103/208/204
f 70/202/198 71/209/205 105/210/205 102/203/199
f 87/211/206 86/205/207 103/208/201 106/212/208
f 71/209/209 72/213/210 107/214/210 105/210/205
f 88/215/211 87/211/212 106/212/212 108/216/211
f 72/213/213 73/217/213 109/218/213 107/214/213
f 89/219/214 88/215/214 108/216/214 110/220/214
f 73/217/215 74/221/215 111/222/215 109/218/215
f 90/223/216 89/219/216 110/220/216 112/224/216
f 74/221/217 75/225/218 113/226/218 111/222/217
f 91/227/219 90/223/211 112/224/211 114/228/219
f 75/225/220 76/229/221 115/230/222 113/226/218
f 92/231/223 91/227/224 114/228/224 116/232/225
f 76/229/226 77/233/227 117/234/228 115/230/222
f 93/235/229 92/231/230 116/232/225 118/236/231
f 77/233/227 78/237/232 119/238/233 117/234/234
f 94/239/235 93/235/229 118/236/231 120/240/236
f 78/237/232 79/241/237 121/242/238 119/238/233
f 95/243/239 94/239/235 120/240/236 122/244/240
f 79/241/241 80/245/242 123/246/243 121/242/238
f 96/247/244 95/243/239 122/244/240 124/248/245
f 80/245/242 81/249/246 125/250/247 123/246/243
f 97/251/248 96/247/244 124/248/249 126/252/250
f 81/249/246 82/253/251 127/254/252 125/250/253
f 98/255/254 97/251/248 126/252/250 128/256/255
f 82/253/251 83/257/256 129/258/257 127/254/252
f 83/198/258 99/197/258 130/166/258 129/165/258
f 99/259/259 98/255/260 128/256/255 130/260/259
f 84/261/261 69/201/197 101/204/262 131/262/263
f 85/206/203 100/263/264 132/264/265 104/207/266
f 100/200/195 84/199/195 67/134/267 68/133/267
f 84/261/268 131/262/269 65/132/129 67/131/129
f 131/167/163 132/168/160 66/130/270 65/129/270
f 132/264/265 100/263/271 68/136/272 66/135/272
