# Blender v2.92.0 OBJ File: 'fruit.blend'
# www.blender.org
o Mango_Cube.007
v 0.002939 0.012482 -0.038209
v -0.070175 0.051583 0.005530
v -0.049443 0.052569 -0.049108
v -0.069029 0.065130 -0.017732
v -0.060188 0.038958 0.027138
v -0.001267 0.073283 -0.043446
v -0.030416 0.012096 0.033290
v 0.034079 0.061934 0.036540
v -0.012066 0.084165 0.019078
v 0.027665 0.073161 0.022473
v 0.017713 0.026242 0.050776
v -0.009787 0.032261 -0.057656
v 0.016714 0.007015 0.034495
v 0.070794 0.051516 0.004306
v 0.057103 0.061226 0.012936
v 0.052584 0.011111 0.022300
v 0.048763 0.005309 0.001586
v 0.004606 0.071940 0.038163
v -0.064870 0.067769 -0.025003
v -0.050790 0.021723 -0.039253
v -0.023491 0.073351 0.038222
v -0.069837 0.057674 -0.005810
v -0.055353 0.014933 0.015450
v -0.069011 0.034106 -0.024328
v -0.068103 0.051214 0.001743
v -0.071117 0.050559 0.010469
v 0.065597 0.044396 -0.027857
v -0.006720 0.082662 -0.028423
v -0.020380 0.004739 -0.026319
v 0.044479 0.064030 -0.022905
v 0.034237 0.005672 -0.015060
v -0.042634 0.085433 -0.023031
v -0.070525 0.047398 0.005044
v -0.068304 0.045933 0.004255
v -0.056942 0.081704 -0.004122
v -0.068540 0.032101 0.008771
v -0.032354 0.089679 -0.003570
v -0.045194 0.005271 -0.011800
v -0.060431 0.014670 0.000953
v 0.018691 0.000529 0.007686
v 0.058326 0.061744 -0.007599
v -0.015992 0.000021 -0.003029
v 0.017950 0.080394 -0.002405
v -0.066856 0.057905 0.012158
v 0.074412 0.020833 -0.012545
v 0.073372 0.029493 -0.024092
v 0.021073 0.056928 0.047425
v -0.000579 0.043769 -0.056920
v 0.055964 0.048028 0.031876
v 0.005014 0.060698 -0.049283
v 0.033868 0.032566 -0.041510
v -0.043722 0.073536 -0.040946
v -0.014457 0.060102 0.049039
v -0.022297 0.042721 0.050511
v -0.052276 0.061792 0.032525
v 0.076861 0.041732 -0.012593
v -0.070991 0.047456 0.009722
v -0.045872 0.039731 0.039805
v -0.069405 0.048447 -0.017551
v 0.004437 0.042858 0.054131
v -0.061471 0.052917 -0.038753
v 0.075450 0.038383 0.011296
v -0.038066 0.041387 -0.054983
v 0.053802 0.033742 0.037151
v 0.078440 0.030171 -0.008587
v 0.061349 0.032815 -0.033661
v 0.065165 0.011751 -0.000479
v -0.064862 0.070294 0.007890
v -0.020268 0.003395 0.020865
v 0.038355 0.042988 0.045586
v -0.024480 0.057851 -0.056532
v -0.050524 0.079187 0.016620
v -0.035832 0.056015 0.044106
v -0.067776 0.053188 0.009594
v -0.071299 0.033523 -0.002276
v -0.064639 0.018950 -0.014244
v 0.056272 0.013520 -0.020937
v -0.040704 0.025538 0.038768
v -0.011711 0.020119 0.046976
v -0.059457 0.034930 -0.039250
v 0.070727 0.020016 0.011817
v -0.023105 0.016162 -0.045339
v 0.037310 0.015465 0.037391
v 0.061459 0.022141 -0.028204
v -0.066843 0.046788 0.012965
vt 0.525457 0.378326
vt 0.827993 0.374390
vt 0.800180 0.431416
vt 0.719288 0.627579
vt 0.813733 0.635599
vt 0.716490 0.708888
vt 0.169281 0.360682
vt 0.110542 0.400451
vt 0.031636 0.271920
vt 0.783861 0.252692
vt 0.539515 0.214735
vt 0.800157 0.146169
vt 0.343204 0.170484
vt 0.588450 0.098408
vt 0.401067 0.032963
vt 0.620088 0.024455
vt 0.465013 0.586048
vt 0.427610 0.636826
vt 0.388477 0.543087
vt 0.577075 0.633141
vt 0.757055 0.881965
vt 0.931081 0.783030
vt 0.945895 0.853073
vt 0.819936 0.934583
vt 0.602507 0.965307
vt 0.493420 0.909494
vt 0.612174 0.857317
vt 0.711360 0.809937
vt 0.419275 0.829680
vt 0.515101 0.789091
vt 0.372689 0.379466
vt 0.444015 0.402775
vt 0.382026 0.422357
vt 0.492496 0.347441
vt 0.420334 0.437563
vt 0.492897 0.443783
vt 0.917645 0.208766
vt 0.933434 0.294402
vt 0.987219 0.233302
vt 0.538204 0.703410
vt 0.514437 0.418220
vt 0.635064 0.439079
vt 0.344032 0.427816
vt 0.305480 0.595153
vt 0.317695 0.554843
vt 0.364673 0.661325
vt 0.294342 0.672104
vt 0.195613 0.108646
vt 0.269914 0.851716
vt 0.299803 0.773366
vt 0.234194 0.547274
vt 0.139048 0.541911
vt 0.178573 0.490013
vt 0.179723 0.613182
vt 0.323013 0.281249
vt 0.175601 0.278502
vt 0.179159 0.880153
vt 0.172993 0.767839
vt 0.072429 0.693497
vt 0.219402 0.691083
vt 0.101989 0.527375
vt 0.108004 0.513235
vt 0.138323 0.513420
vt 0.179151 0.456895
vt 0.142254 0.464992
vt 0.111945 0.447771
vt 0.155098 0.487536
vt 0.972216 0.457730
vt 0.986656 0.534497
vt 0.906582 0.478641
vt 0.301475 0.399432
vt 0.338972 0.341023
vt 0.265664 0.409689
vt 0.257372 0.338830
vt 0.453294 0.307901
vt 0.327972 0.514429
vt 0.774358 0.542066
vt 0.660635 0.567209
vt 0.538104 0.500608
vt 0.464387 0.529588
vt 0.461181 0.484366
vt 0.693741 0.300870
vt 0.224050 0.426341
vt 0.880810 0.570117
vt 0.977222 0.053866
vt 0.932664 0.094376
vt 0.919448 0.058571
vt 0.932920 0.021595
vt 0.986569 0.013040
vt 0.277903 0.449421
vt 0.320391 0.474839
vt 0.258768 0.507535
vt 0.401540 0.729882
vt 0.362734 0.458977
vt 0.389432 0.481800
vt 0.848759 0.709891
vt 0.623437 0.748264
vt 0.080729 0.582924
vt 0.878044 0.448055
vt 0.874308 0.081938
vt 0.084918 0.437460
vt 0.379242 0.973768
vt 0.912742 0.557862
vt 0.107379 0.463533
vt 0.812494 0.489329
vt 0.982454 0.098539
vt 0.877769 0.025172
vn 0.3271 0.4088 -0.8520
vn 0.6042 0.4578 -0.6522
vn 0.4427 -0.0904 -0.8921
vn 0.2666 -0.9638 -0.0012
vn 0.5316 -0.8470 0.0011
vn 0.4430 -0.7682 0.4622
vn -0.8272 0.4858 0.2823
vn -0.9204 0.1736 0.3503
vn -0.6127 0.3666 0.7001
vn 0.5570 0.8147 -0.1613
vn 0.3113 0.9497 -0.0342
vn 0.5727 0.7706 0.2796
vn 0.0690 0.9481 0.3103
vn 0.3481 0.8835 0.3135
vn 0.1516 0.7764 0.6117
vn 0.4236 0.6675 0.6124
vn -0.0630 -0.9973 -0.0382
vn -0.1625 -0.9403 0.2989
vn -0.3595 -0.9226 -0.1401
vn 0.0951 -0.9936 0.0608
vn 0.6430 0.4143 0.6441
vn 0.9073 0.1405 0.3963
vn 0.7736 0.6140 0.1567
vn 0.2546 0.4678 0.8464
vn 0.4169 0.1499 0.8965
vn 0.6089 -0.1411 0.7806
vn 0.0319 0.0485 0.9983
vn 0.1638 -0.3518 0.9217
vn -0.3343 0.6675 -0.6654
vn -0.0823 0.3577 -0.9302
vn -0.5185 0.1832 -0.8352
vn 0.2082 0.7212 -0.6607
vn -0.3257 -0.1636 -0.9312
vn 0.0585 -0.3414 -0.9381
vn 0.8894 0.3913 -0.2363
vn 0.0883 -0.8514 0.5171
vn 0.2692 0.0807 -0.9597
vn 0.2878 -0.2469 -0.9253
vn -0.7633 0.1723 -0.6227
vn -0.5966 -0.6988 0.3947
vn -0.6816 -0.7189 0.1365
vn -0.3115 -0.7557 0.5761
vn -0.4808 -0.4222 0.7685
vn -0.1608 0.7213 0.6737
vn -0.0926 0.4126 0.9062
vn -0.2599 -0.0499 0.9643
vn -0.9181 -0.2435 0.3127
vn -0.8945 -0.0421 0.4450
vn -0.9883 -0.1405 -0.0596
vn -0.7808 -0.1407 0.6087
vn -0.0735 0.9958 0.0546
vn -0.4316 0.7869 0.4410
vn -0.3959 0.2738 0.8765
vn -0.5487 -0.0969 0.8304
vn -0.9027 0.3415 0.2618
vn -0.6168 0.2077 0.7592
vn -0.8028 -0.4390 0.4035
vn -0.9988 0.0345 -0.0344
vn -0.7655 0.5536 -0.3279
vn -0.7704 -0.3017 -0.5617
vn -0.7429 0.5188 -0.4230
vn -0.2694 0.9016 -0.3383
vn -0.9257 0.3415 -0.1628
vn -0.5733 0.8191 0.0204
vn 0.1588 0.9251 -0.3450
vn -0.7631 -0.6199 -0.1829
vn 0.3379 -0.8234 -0.4560
vn 0.1630 -0.9371 -0.3087
vn 0.1592 -0.7673 -0.6212
vn -0.0846 -0.9270 -0.3654
vn -0.1400 -0.7115 -0.6886
vn 0.4471 0.7775 -0.4423
vn -0.9950 0.0495 0.0869
vn 0.7682 -0.6015 -0.2194
vn 0.7811 -0.1925 -0.5939
vn 0.9889 -0.1441 -0.0353
vn 0.4068 -0.5844 -0.7021
vn -0.9981 0.0269 -0.0547
vn -0.9141 -0.2234 -0.3384
vn -0.9850 -0.1521 0.0810
vn -0.1489 -0.5259 0.8374
vn -0.7002 -0.2632 -0.6636
vn -0.4771 -0.6145 -0.6282
vn 0.7765 -0.4930 0.3923
vn 0.3527 -0.6070 0.7122
s 1
f 50/1/1 27/2/2 66/3/3
f 17/4/4 67/5/5 16/6/6
f 68/7/7 44/8/8 55/9/9
f 41/10/10 43/11/11 15/12/12
f 43/11/11 9/13/13 10/14/14
f 10/14/14 18/15/15 8/16/16
f 42/17/17 69/18/18 38/19/19
f 40/20/20 69/18/18 42/17/17
f 49/21/21 62/22/22 14/23/23 15/24/12
f 8/25/16 47/26/24 49/21/21
f 49/21/21 70/27/25 64/28/26
f 15/24/12 8/25/16 49/21/21
f 47/26/24 60/29/27 70/27/25
f 70/27/25 11/30/28 64/28/26
f 52/31/29 71/32/30 3/33/31
f 6/34/32 50/1/1 71/32/30
f 63/35/33 71/32/30 12/36/34
f 15/12/12 14/37/23 41/10/10
f 41/10/10 14/37/23 56/38/35
f 14/37/23 62/39/22 56/38/35
f 17/4/4 16/6/6 13/40/36
f 48/41/37 50/1/1 51/42/38
f 52/31/29 3/33/31 61/43/39
f 38/19/19 23/44/40 39/45/41
f 69/18/18 7/46/42 23/44/40
f 7/46/42 78/47/43 23/44/40
f 9/13/13 21/48/44 18/15/15
f 9/13/13 18/15/15 10/14/14
f 60/29/27 53/49/45 54/50/46
f 36/51/47 85/52/48 34/53/49
f 23/44/40 5/54/50 36/51/47
f 37/55/51 72/56/52 9/13/13
f 21/57/44 73/58/53 53/49/45
f 55/59/9 5/54/50 58/60/54
f 54/50/46 73/58/53 58/60/54
f 74/61/55 26/62/56 57/63/57
f 25/64/58 2/65/59 74/66/55
f 85/52/48 57/63/57 34/53/49
f 57/63/57 33/67/60 34/53/49
f 26/68/56 2/69/59 57/70/57
f 19/71/61 32/72/62 52/31/29
f 4/73/63 35/74/64 19/71/61
f 68/7/7 72/56/52 35/74/64
f 28/75/65 37/55/51 43/11/11
f 38/19/19 39/45/41 76/76/66
f 77/77/67 31/78/68 1/79/69
f 31/78/68 42/17/17 29/80/70
f 1/79/69 29/80/70 82/81/71
f 6/34/32 28/75/65 30/82/72
f 30/82/72 43/11/11 41/10/10
f 27/2/2 6/34/32 30/82/72
f 25/64/58 44/8/8 22/83/73
f 45/84/74 67/5/5 77/77/67
f 46/85/75 56/86/35 65/87/76
f 46/85/75 45/88/74 84/89/77
f 54/50/46 58/60/54 78/47/43
f 58/60/54 5/54/50 78/47/43
f 59/90/78 24/91/79 75/92/80
f 13/40/36 11/30/28 79/93/81
f 11/30/28 60/29/27 79/93/81
f 13/40/36 79/93/81 7/46/42
f 24/91/79 80/94/82 20/95/83
f 61/43/39 80/94/82 24/91/79
f 3/33/31 63/35/33 80/94/82
f 80/94/82 63/35/33 20/95/83
f 24/91/79 20/95/83 76/76/66
f 81/96/84 16/6/6 67/5/5
f 82/81/71 12/36/34 1/79/69
f 83/97/85 11/30/28 13/40/36
f 64/28/26 83/97/85 16/6/6
f 16/6/6 83/97/85 13/40/36
f 44/98/8 85/52/48 5/54/50
f 25/64/58 34/53/49 2/65/59
f 51/42/38 50/1/1 66/3/3
f 66/3/3 27/2/2 46/99/75
f 56/86/35 62/100/22 65/87/76
f 55/59/9 44/98/8 5/54/50
f 67/5/5 45/84/74 81/96/84
f 44/8/8 74/66/55 85/101/48
f 15/12/12 10/14/14 8/16/16
f 15/12/12 43/11/11 10/14/14
f 40/20/20 13/40/36 69/18/18
f 69/18/18 13/40/36 7/46/42
f 49/21/21 47/26/24 70/27/25
f 8/25/16 18/102/15 47/26/24
f 11/30/28 70/27/25 60/29/27
f 52/31/29 6/34/32 71/32/30
f 3/33/31 71/32/30 63/35/33
f 71/32/30 50/1/1 48/41/37
f 12/36/34 71/32/30 48/41/37
f 62/22/22 49/21/21 64/28/26
f 53/49/45 47/26/24 18/102/15 21/57/44
f 40/20/20 17/4/4 13/40/36
f 6/34/32 27/2/2 50/1/1
f 19/71/61 52/31/29 61/43/39
f 4/73/63 19/71/61 61/43/39
f 38/19/19 69/18/18 23/44/40
f 23/44/40 78/47/43 5/54/50
f 43/11/11 37/55/51 9/13/13
f 60/29/27 47/26/24 53/49/45
f 39/45/41 36/51/47 75/92/80 76/76/66
f 39/45/41 23/44/40 36/51/47
f 36/51/47 5/54/50 85/52/48
f 22/83/73 4/73/63 59/90/78
f 25/64/58 22/83/73 59/90/78
f 37/55/51 35/74/64 72/56/52
f 72/56/52 68/7/7 55/9/9
f 21/48/44 72/56/52 55/9/9
f 9/13/13 72/56/52 21/48/44
f 73/58/53 55/59/9 58/60/54
f 54/50/46 53/49/45 73/58/53
f 21/57/44 55/59/9 73/58/53
f 57/70/57 2/69/59 33/103/60
f 85/52/48 74/61/55 57/63/57
f 74/66/55 2/65/59 26/104/56
f 19/71/61 35/74/64 32/72/62
f 32/72/62 35/74/64 37/55/51
f 4/73/63 68/7/7 35/74/64
f 34/53/49 59/90/78 75/92/80
f 75/92/80 24/91/79 76/76/66
f 32/72/62 28/75/65 6/34/32 52/31/29
f 34/53/49 75/92/80 36/51/47
f 28/75/65 32/72/62 37/55/51
f 41/10/10 56/38/35 27/2/2 30/82/72
f 20/95/83 38/19/19 76/76/66
f 31/78/68 17/4/4 40/20/20
f 31/78/68 40/20/20 42/17/17
f 1/79/69 31/78/68 29/80/70
f 38/19/19 20/95/83 82/81/71 29/80/70
f 29/80/70 42/17/17 38/19/19
f 68/7/7 4/73/63 22/83/73 44/8/8
f 30/82/72 28/75/65 43/11/11
f 17/4/4 31/78/68 77/77/67 67/5/5
f 25/64/58 74/66/55 44/8/8
f 84/105/77 45/84/74 77/77/67
f 12/36/34 82/81/71 20/95/83 63/35/33
f 46/85/75 27/106/2 56/86/35
f 46/85/75 65/87/76 45/88/74
f 34/53/49 25/64/58 59/90/78
f 59/90/78 4/73/63 24/91/79
f 79/93/81 60/29/27 54/50/46
f 79/93/81 54/50/46 78/47/43
f 7/46/42 79/93/81 78/47/43
f 4/73/63 61/43/39 24/91/79
f 61/43/39 3/33/31 80/94/82
f 1/79/69 12/36/34 51/42/38
f 12/36/34 48/41/37 51/42/38
f 62/22/22 64/28/26 81/96/84
f 81/96/84 64/28/26 16/6/6
f 83/97/85 64/28/26 11/30/28
f 65/87/76 62/100/22 81/107/84
f 45/88/74 65/87/76 81/107/84
f 84/105/77 51/42/38 66/3/3
f 77/77/67 1/79/69 84/105/77
f 1/79/69 51/42/38 84/105/77
f 84/105/77 66/3/3 46/99/75
f 34/53/49 33/67/60 2/65/59
