# Blender v2.92.0 OBJ File: ''
# www.blender.org
o Sliced_Bread_Cube.002
v 0.054854 0.004259 0.039580
v 0.060010 0.016832 0.035726
v 0.043741 0.018169 -0.024991
v -0.068023 0.016672 0.012980
v 0.030540 0.012732 0.000579
v -0.009968 0.012027 -0.005390
v -0.001138 0.000080 0.008670
v 0.033430 0.012354 0.022787
v -0.052995 0.013918 0.012402
v -0.001259 0.001647 0.043126
v -0.038876 0.014246 0.028178
v 0.051714 0.015284 0.038978
v 0.029793 0.013679 0.040176
v 0.067567 0.017957 0.009667
v -0.063811 0.009090 0.039435
v 0.063404 0.006598 -0.012825
v 0.032426 0.002135 0.042176
v 0.026009 0.003985 -0.041878
v -0.036055 0.004484 0.042691
v -0.066879 0.005086 -0.006221
v 0.069382 0.006859 0.025864
v -0.029296 0.003192 -0.035020
v -0.060446 0.017024 -0.012042
v 0.033302 0.017056 -0.032427
v -0.006396 0.015450 -0.038071
v -0.003726 0.002936 -0.043137
v 0.063566 0.018492 -0.001336
v 0.050207 0.015505 0.003085
v 0.069844 0.007202 0.003983
v -0.070884 0.006175 0.012498
v 0.009448 0.015465 -0.039896
v 0.012231 0.011667 -0.002037
v -0.020599 0.000727 0.005960
v -0.021612 0.015150 0.040611
v -0.069672 0.018557 0.028600
v -0.043265 0.003071 0.012629
v 0.014464 0.000374 0.012143
v 0.006588 0.011351 0.025667
v 0.035949 0.002168 0.011922
v -0.066364 0.016645 0.001621
v -0.005517 0.002024 -0.041360
v -0.062203 0.004513 -0.014725
v 0.067054 0.017626 0.025143
v -0.066168 0.019157 0.035755
v 0.066483 0.006006 0.032656
v -0.072216 0.009228 0.033947
v -0.017930 0.002673 0.043042
v -0.049619 0.017077 -0.021632
v -0.036926 0.004029 0.031429
v -0.046176 0.013824 -0.001947
v 0.007938 0.013286 0.040766
v -0.055082 0.017295 -0.017479
v -0.059878 0.018875 0.038479
v 0.057290 0.006370 -0.020830
v -0.045115 0.002978 -0.030015
v -0.056900 0.004255 -0.021616
v 0.048876 0.006122 -0.028811
v 0.021783 0.015948 -0.037886
v -0.039915 0.016412 -0.026540
v -0.046157 0.017111 0.040626
v 0.054782 0.018781 -0.014533
v -0.064350 0.017009 -0.005166
v -0.068560 0.019261 0.032684
v 0.064397 0.017405 0.031429
v 0.003104 0.012873 0.042021
v -0.051558 0.003800 -0.027002
v -0.069189 0.009015 0.036906
v 0.038238 0.005299 -0.036286
v 0.062382 0.005266 0.036648
v -0.053893 0.007374 0.041493
v 0.014890 0.001437 0.042883
v 0.067421 0.006920 -0.004850
v 0.045095 0.003154 0.041135
v 0.012612 0.003025 -0.044343
v -0.045630 0.003403 -0.030770
v -0.073207 0.008678 0.029379
v 0.070510 0.007285 0.012775
v -0.069227 0.005419 0.002130
vt 0.407743 0.969187
vt 0.443996 0.845065
vt 0.425861 0.977942
vt 0.461929 0.843553
vt 0.442159 0.990420
vt 0.942986 0.936130
vt 0.932227 0.815901
vt 0.956583 0.944307
vt 0.952653 0.816736
vt 0.975649 0.958543
vt 0.587483 0.605224
vt 0.592195 0.774997
vt 0.529620 0.730808
vt 0.489462 0.498727
vt 0.491333 0.622641
vt 0.441275 0.619374
vt 0.317106 0.818841
vt 0.307939 0.913757
vt 0.284093 0.927866
vt 0.163785 0.847762
vt 0.125436 0.972815
vt 0.091342 0.965141
vt 0.160174 0.971860
vt 0.780948 0.731181
vt 0.702177 0.656443
vt 0.794086 0.614324
vt 0.175345 0.045567
vt 0.322854 0.182795
vt 0.026617 0.221621
vt 0.231377 0.020654
vt 0.833886 0.938759
vt 0.848811 0.811617
vt 0.855197 0.938596
vt 0.875189 0.932118
vt 0.867623 0.048654
vt 0.723489 0.108607
vt 0.732575 0.013042
vt 0.337806 0.919406
vt 0.380760 0.836530
vt 0.365671 0.950714
vt 0.048255 0.809633
vt 0.059774 0.949429
vt 0.033464 0.932948
vt 0.071979 0.637691
vt 0.272325 0.515388
vt 0.242781 0.765214
vt 0.554862 0.811270
vt 0.580591 0.974980
vt 0.537862 0.968124
vt 0.319140 0.781653
vt 0.321167 0.623628
vt 0.633411 0.017276
vt 0.744740 0.213760
vt 0.608038 0.200286
vt 0.195304 0.967157
vt 0.329131 0.912597
vt 0.343555 0.824363
vt 0.918852 0.080867
vt 0.945674 0.136885
vt 0.321062 0.311180
vt 0.010356 0.304207
vt 0.874308 0.814018
vt 0.895883 0.929310
vt 0.925567 0.930999
vt 0.018860 0.405291
vt 0.295893 0.400203
vt 0.809886 0.941839
vt 0.815666 0.810080
vt 0.390593 0.962428
vt 0.409102 0.843001
vt 0.487934 0.411291
vt 0.481279 0.237537
vt 0.487212 0.326092
vt 0.576748 0.029788
vt 0.525515 0.080402
vt 0.609081 0.349491
vt 0.514463 0.142471
vt 0.478212 0.145621
vt 0.436396 0.038349
vt 0.330435 0.819486
vt 0.320422 0.910063
vt 0.336353 0.821022
vt 0.481666 0.801330
vt 0.284722 0.826988
vt 0.240518 0.949051
vt 0.935921 0.619338
vt 0.960453 0.548752
vt 0.795666 0.400741
vt 0.919344 0.815471
vt 0.516615 0.523746
vt 0.498545 0.961918
vt 0.530800 0.805600
vt 0.519010 0.964051
vt 0.154488 0.840291
vt 0.907031 0.815310
vt 0.508066 0.968307
vt 0.538679 0.973933
vt 0.716658 0.967273
vt 0.749533 0.956539
vt 0.641408 0.987737
vt 0.645487 0.978740
vt 0.342388 0.939537
vt 0.426860 0.844576
vt 0.782550 0.812829
vt 0.781703 0.947431
vt 0.751915 0.823305
vt 0.646275 0.832876
vt 0.473984 0.068827
vt 0.487644 0.096432
vt 0.518196 0.344871
vt 0.835834 0.718812
vt 0.710665 0.740542
vt 0.102780 0.835661
vt 0.686736 0.836314
vt 0.683932 0.975701
vt 0.718907 0.832634
vt 0.765430 0.300334
vt 0.985622 0.380422
vt 0.970550 0.216401
vt 0.906587 0.696629
vt 0.084846 0.104307
vt 0.980092 0.292523
vt 0.191756 0.751160
vt 0.104348 0.692385
vt 0.513003 0.798023
vt 0.046370 0.803355
vt 0.225887 0.832643
vn -0.7650 -0.5635 -0.3119
vn -0.5643 0.7126 -0.4169
vn -0.6887 -0.5684 -0.4501
vn -0.3715 0.8422 -0.3907
vn -0.6714 -0.4470 -0.5911
vn 0.7160 -0.5526 0.4266
vn 0.2668 0.7685 0.5816
vn 0.4847 -0.5877 0.6478
vn 0.1209 0.6667 0.7355
vn 0.2676 -0.6351 0.7246
vn 0.0947 0.9849 -0.1453
vn -0.5245 0.8225 0.2201
vn -0.1027 0.7943 0.5987
vn -0.0528 -0.6455 0.7620
vn -0.0915 -0.6234 0.7765
vn -0.1152 -0.9908 0.0708
vn -0.2992 -0.2632 0.9172
vn -0.2108 -0.5299 0.8215
vn 0.0451 0.5842 0.8103
vn 0.0240 -0.6511 0.7586
vn 0.1046 -0.6409 0.7605
vn -0.0055 -0.6518 0.7583
vn -0.5809 0.8042 -0.1260
vn 0.1202 0.9920 -0.0378
vn 0.1027 0.9914 0.0813
vn 0.7539 -0.4586 -0.4705
vn 0.1037 -0.9944 -0.0198
vn 0.2936 -0.4871 -0.8225
vn 0.8243 -0.4644 -0.3239
vn 0.4582 0.8722 -0.1711
vn 0.8653 -0.4681 -0.1794
vn 0.3150 0.8922 -0.3236
vn -0.1656 0.9836 0.0713
vn -0.8738 -0.4725 0.1147
vn -0.4909 0.8630 -0.1199
vn -0.8247 -0.5610 -0.0717
vn 0.1465 -0.6371 0.7567
vn -0.1441 -0.9652 -0.2182
vn -0.0593 -0.9981 0.0142
vn -0.8137 -0.5668 -0.1290
vn -0.1657 0.8642 -0.4751
vn -0.4271 -0.1536 -0.8911
vn -0.2704 -0.2890 -0.9183
vn -0.1046 -0.9930 0.0544
vn 0.6059 0.7778 0.1670
vn -0.1008 0.9928 0.0646
vn -0.0946 0.9952 -0.0248
vn -0.7903 -0.3720 0.4869
vn -0.5924 0.8018 -0.0785
vn 0.2289 0.9015 -0.3673
vn 0.1708 0.8685 -0.4653
vn 0.0487 -0.9988 -0.0028
vn 0.1466 -0.5569 -0.8175
vn 0.6041 0.7929 -0.0798
vn 0.8697 -0.4771 -0.1265
vn 0.8971 -0.4401 0.0382
vn -0.0913 -0.9377 -0.3352
vn -0.0071 -1.0000 0.0016
vn 0.6646 -0.4640 -0.5856
vn 0.4798 0.7774 0.4068
vn 0.0044 0.9979 -0.0641
vn -0.0894 0.7564 -0.6480
vn -0.3597 0.7761 0.5180
vn -0.5514 -0.4775 0.6840
vn -0.0749 0.5702 0.8181
vn -0.2483 0.8696 -0.4268
vn 0.0342 0.9977 0.0588
vn 0.0606 0.7714 -0.6335
vn -0.6290 -0.4098 -0.6606
vn 0.0144 0.9959 0.0894
vn 0.4830 -0.4284 -0.7636
vn -0.2739 -0.4037 -0.8729
vn -0.5487 0.8167 -0.1787
vn 0.5998 -0.3652 -0.7119
vn -0.1337 0.8338 -0.5357
vn -0.0076 0.8320 -0.5547
vn 0.0901 0.8405 -0.5343
vn -0.0270 0.9982 0.0541
s 1
f 20/1/1 23/2/2 42/3/3
f 42/3/3 52/4/4 56/5/5
f 45/6/6 2/7/7 69/8/8
f 69/8/8 12/9/9 1/10/10
f 11/11/11 63/12/12 53/13/13
f 47/14/14 19/15/15 49/16/16
f 53/17/13 15/18/17 70/19/18
f 65/20/19 71/21/20 17/22/21
f 65/20/19 10/23/22 71/21/20
f 40/24/23 9/25/24 50/26/25
f 16/27/26 39/28/27 18/29/28
f 72/30/29 39/28/27 16/27/26
f 16/31/26 27/32/30 72/33/29
f 27/32/30 29/34/31 72/33/29
f 61/35/32 28/36/33 27/37/30
f 76/38/34 4/39/35 30/40/36
f 12/41/9 73/42/37 1/43/10
f 55/44/38 33/45/39 78/46/40
f 59/47/41 22/48/42 75/49/43
f 30/50/36 36/51/44 49/16/16
f 27/37/30 28/36/33 43/52/45
f 5/53/46 8/54/47 28/36/33
f 65/20/19 47/55/14 10/23/22
f 46/56/48 35/57/49 76/38/34
f 3/58/50 24/59/51 61/35/32
f 18/29/28 37/60/52 74/61/53
f 14/62/54 77/63/55 29/34/31
f 14/62/54 21/64/56 77/63/55
f 41/65/57 7/66/58 33/45/39
f 54/67/59 61/68/32 16/31/26
f 4/39/35 78/69/40 30/40/36
f 40/70/23 20/1/1 78/69/40
f 7/66/58 37/60/52 10/71/22
f 37/60/52 17/72/21 71/73/20
f 8/54/47 64/74/60 43/52/45
f 8/54/47 2/75/7 64/74/60
f 38/76/61 13/77/62 8/54/47
f 39/28/27 73/78/37 17/72/21
f 39/28/27 45/79/6 73/78/37
f 15/18/17 44/80/63 67/81/64
f 67/81/64 63/82/12 46/56/48
f 30/50/36 49/16/16 67/83/64
f 60/84/65 70/19/18 19/85/15
f 48/86/66 50/26/25 59/87/41
f 9/25/24 38/76/61 6/88/67
f 21/64/56 64/89/60 45/6/6
f 78/46/40 36/51/44 30/50/36
f 11/11/11 53/13/13 34/90/68
f 56/91/5 48/92/66 66/93/69
f 48/92/66 75/49/43 66/93/69
f 63/82/12 4/39/35 35/57/49
f 51/94/70 60/84/65 65/20/19
f 43/95/45 14/62/54 27/32/30
f 63/82/12 44/80/63 53/17/13
f 42/96/3 56/91/5 66/93/69
f 55/97/38 66/93/69 75/49/43
f 29/34/31 21/64/56 45/6/6
f 18/98/28 68/99/71 54/67/59
f 41/100/57 22/48/42 26/101/72
f 19/85/15 70/19/18 67/81/64
f 46/56/48 76/38/34 67/102/64
f 55/97/38 75/49/43 22/48/42
f 70/19/18 15/18/17 67/81/64
f 20/1/1 62/103/73 23/2/2
f 42/3/3 23/2/2 52/4/4
f 3/104/50 57/105/74 68/99/71 24/106/51
f 25/107/75 26/101/72 22/48/42 59/47/41
f 45/6/6 64/89/60 2/7/7
f 69/8/8 2/7/7 12/9/9
f 73/78/37 45/79/6 69/108/8
f 73/78/37 69/108/8 1/109/10
f 38/76/61 51/110/70 13/77/62
f 60/84/65 53/17/13 70/19/18
f 62/111/73 40/24/23 50/26/25
f 40/24/23 4/112/35 9/25/24
f 17/22/21 73/42/37 12/41/9 65/20/19
f 16/31/26 61/68/32 27/32/30
f 27/32/30 14/62/54 29/34/31
f 18/29/28 39/28/27 37/60/52
f 12/41/9 13/113/62 65/20/19
f 31/114/76 74/115/53 26/101/72 25/107/75
f 78/46/40 33/45/39 36/51/44
f 58/116/77 18/98/28 74/115/53 31/114/76
f 51/110/70 38/76/61 11/11/11 34/90/68
f 49/16/16 19/15/15 67/83/64
f 19/85/15 47/55/14 65/20/19 60/84/65
f 28/36/33 8/54/47 43/52/45
f 8/54/47 5/53/46 32/117/78 38/76/61
f 6/88/67 38/76/61 32/117/78
f 6/88/67 25/118/75 59/87/41 50/26/25
f 4/112/35 63/12/12 9/25/24
f 39/28/27 72/30/29 45/79/6
f 46/56/48 63/82/12 35/57/49
f 76/38/34 35/57/49 4/39/35
f 5/53/46 28/36/33 24/59/51 58/119/77
f 7/66/58 41/65/57 74/61/53 37/60/52
f 61/35/32 24/59/51 28/36/33
f 50/26/25 48/86/66 52/120/4 62/111/73
f 14/62/54 43/95/45 21/64/56
f 54/121/59 16/27/26 18/29/28
f 6/88/67 32/117/78 31/122/76 25/118/75
f 32/117/78 5/53/46 58/119/77 31/122/76
f 61/68/32 54/67/59 57/105/74 3/104/50
f 55/44/38 41/65/57 33/45/39
f 49/16/16 36/51/44 33/45/39 47/14/14
f 4/39/35 40/70/23 78/69/40
f 40/70/23 62/103/73 20/1/1
f 38/76/61 9/25/24 11/11/11
f 37/60/52 39/28/27 17/72/21
f 10/71/22 37/60/52 71/73/20
f 8/54/47 13/77/62 2/75/7
f 10/71/22 47/14/14 33/45/39 7/66/58
f 9/25/24 63/12/12 11/11/11
f 15/18/17 53/17/13 44/80/63
f 67/81/64 44/80/63 63/82/12
f 21/64/56 43/95/45 64/89/60
f 20/123/1 42/124/3 78/46/40
f 42/124/3 55/44/38 78/46/40
f 50/26/25 9/25/24 6/88/67
f 56/91/5 52/125/4 48/92/66
f 48/92/66 59/47/41 75/49/43
f 62/103/73 52/4/4 23/2/2
f 24/106/51 68/99/71 18/98/28 58/116/77
f 51/94/70 65/20/19 13/113/62
f 2/126/7 13/113/62 12/41/9
f 51/94/70 34/127/68 60/84/65
f 34/127/68 53/17/13 60/84/65
f 55/97/38 42/96/3 66/93/69
f 41/100/57 26/101/72 74/115/53
f 72/33/29 29/34/31 45/6/6
f 29/34/31 77/63/55 21/64/56
f 54/67/59 68/99/71 57/105/74
f 41/100/57 55/97/38 22/48/42
f 67/102/64 76/38/34 30/40/36
