# Blender v2.92.0 OBJ File: 'fruit.blend'
# www.blender.org
o Banana_Plane.003
v -0.007267 0.033516 0.021844
v -0.081211 0.006558 0.010958
v -0.037466 0.003408 0.010021
v -0.009594 0.029664 0.007041
v 0.018217 0.019924 0.028319
v 0.048242 0.009372 -0.060340
v 0.004165 0.014104 -0.007600
v 0.015125 0.027137 -0.007143
v 0.045255 -0.000048 -0.035189
v -0.047489 0.031183 0.025481
v -0.069674 0.029278 0.013557
v -0.026258 0.012668 0.001742
v -0.011721 0.014622 -0.000186
v -0.004441 0.003783 0.025867
v -0.036975 0.026630 0.006635
v -0.005396 0.008965 0.001510
v -0.065350 0.002250 0.020954
v -0.041705 0.005215 0.031958
v 0.049533 0.021877 -0.034745
v 0.045843 0.027852 -0.012346
v 0.021999 0.001922 0.010435
v 0.040162 0.002048 -0.049072
v 0.046215 0.007615 0.001717
v 0.021793 0.003416 -0.012561
v 0.008645 0.002608 0.005510
v 0.024809 0.029868 -0.009357
v -0.029635 0.030875 0.013082
v -0.066791 -0.000282 0.006682
v 0.040582 0.015270 -0.047209
v -0.080640 0.017479 -0.006942
v 0.039423 0.008164 -0.063738
v 0.038067 0.017669 0.013685
v -0.008844 0.020837 0.037612
v -0.026936 0.027982 0.037200
v -0.083902 0.017072 0.000007
v -0.038517 0.012311 0.000880
v -0.070585 0.012810 -0.010504
v 0.034723 0.008361 -0.044755
v 0.056291 0.012999 -0.011186
v 0.059050 0.005133 -0.030414
v 0.056280 0.004399 -0.043478
v 0.055133 0.021795 -0.011075
v 0.059274 0.016322 -0.035062
v 0.048915 0.002385 -0.059700
v -0.050257 0.012484 0.035084
v -0.071535 0.011139 0.023242
v -0.081193 0.008945 -0.004895
v 0.002787 0.011338 0.034395
v -0.025330 0.011576 0.038933
v -0.021034 0.002815 0.015358
v 0.016289 0.013076 -0.017860
v 0.032476 0.027344 0.016134
v 0.028409 0.032411 0.001744
v -0.074238 0.025238 -0.004243
v 0.040608 0.000393 -0.063815
v 0.044308 0.012861 -0.055238
v 0.026023 0.010102 0.022585
v 0.004577 0.029423 0.030340
v -0.067980 0.005059 -0.005612
v -0.050730 0.026672 0.032320
v -0.072904 0.022620 0.020749
v 0.054651 0.004111 -0.017602
v -0.076866 0.003347 -0.000514
v -0.082616 0.022397 0.006303
v 0.036113 0.006003 -0.058005
vt 0.090197 0.714893
vt 0.139027 0.829948
vt 0.358633 0.877043
vt 0.255087 0.538064
vt 0.170860 0.570189
vt 0.258795 0.590475
vt 0.267583 0.656874
vt 0.043714 0.625529
vt 0.173461 0.645795
vt 0.140780 0.489567
vt 0.082441 0.552633
vt 0.025137 0.287004
vt 0.092156 0.330242
vt 0.115775 0.236815
vt 0.104547 0.138352
vt 0.058949 0.081921
vt 0.067966 0.132511
vt 0.660253 0.855329
vt 0.868704 0.718088
vt 0.552289 0.733602
vt 0.742204 0.542443
vt 0.837497 0.450034
vt 0.716043 0.466199
vt 0.853481 0.536316
vt 0.937826 0.486814
vt 0.863473 0.628573
vt 0.954456 0.167431
vt 0.749234 0.046512
vt 0.736756 0.133741
vt 0.058630 0.941318
vt 0.142776 0.860698
vt 0.103250 0.895054
vt 0.637124 0.632861
vt 0.641297 0.527179
vt 0.572328 0.586505
vt 0.621175 0.308204
vt 0.644572 0.127447
vt 0.509918 0.199660
vt 0.722690 0.265454
vt 0.533887 0.891943
vt 0.422615 0.122686
vt 0.321823 0.267442
vt 0.365722 0.559409
vt 0.387156 0.622404
vt 0.458786 0.575466
vt 0.450345 0.315492
vt 0.387037 0.439996
vt 0.546783 0.421007
vt 0.320304 0.798659
vt 0.646504 0.988470
vt 0.545582 0.985142
vt 0.712128 0.926734
vt 0.874618 0.353800
vt 0.953995 0.837664
vt 0.173196 0.382847
vt 0.356296 0.721652
vt 0.010427 0.912782
vt 0.055185 0.883433
vt 0.311491 0.498256
vt 0.421914 0.510855
vt 0.524839 0.519554
vt 0.510343 0.646887
vt 0.742688 0.715410
vt 0.538263 0.107767
vt 0.048268 0.846708
vt 0.921627 0.245101
vt 0.747931 0.646361
vt 0.955248 0.673014
vt 0.089776 0.216158
vt 0.237683 0.488620
vt 0.189229 0.497699
vt 0.080259 0.476548
vt 0.038377 0.396563
vt 0.012049 0.672709
vt 0.008518 0.686754
vt 0.112960 0.082115
vt 0.954068 0.338277
vt 0.152939 0.975774
vt 0.066545 0.988219
vt 0.315973 0.141304
vt 0.302824 0.927293
vt 0.414099 0.963009
vt 0.022079 0.966085
vt 0.908202 0.924864
vt 0.035538 0.160244
vt 0.093015 0.191840
vt 0.162062 0.079479
vn -0.4462 0.8010 -0.3991
vn -0.9098 -0.0182 -0.4146
vn -0.4364 0.5819 -0.6863
vn 0.9165 -0.1168 0.3825
vn 0.8627 0.4548 -0.2211
vn 0.8163 0.5171 0.2573
vn 0.3416 0.9392 -0.0347
vn 0.0389 0.9093 -0.4143
vn 0.2278 0.9136 -0.3369
vn 0.8043 -0.5392 -0.2497
vn 0.5474 0.4508 -0.7051
vn -0.9797 -0.0468 -0.1949
vn -0.4274 -0.9010 -0.0743
vn -0.3594 0.4162 -0.8352
vn 0.6186 -0.5824 -0.5274
vn -0.1915 -0.6938 -0.6942
vn -0.0404 0.9433 -0.3293
vn -0.3274 0.9315 0.1587
vn 0.0177 0.9951 0.0971
vn -0.3179 -0.2140 0.9237
vn -0.2862 -0.8244 0.4884
vn -0.0866 -0.8040 0.5882
vn -0.6054 -0.1989 0.7707
vn -0.8179 -0.4803 0.3168
vn -0.6254 0.4242 0.6549
vn 0.0146 -0.0595 -0.9981
vn 0.1268 0.5866 -0.7999
vn 0.2418 -0.2063 -0.9481
vn -0.7275 -0.4451 -0.5221
vn -0.8650 0.4885 0.1146
vn -0.9961 -0.0199 0.0855
vn -0.0508 0.6080 0.7923
vn 0.0033 -0.3837 0.9234
vn 0.1798 0.1733 0.9683
vn 0.0012 -0.9746 -0.2240
vn -0.0127 -0.2620 -0.9650
vn -0.2731 -0.7143 -0.6443
vn 0.1822 -0.7609 -0.6228
vn -0.1682 0.8019 -0.5733
vn -0.5159 -0.0569 -0.8548
vn -0.3999 -0.8730 -0.2791
vn 0.7237 0.0265 0.6896
vn 0.5228 0.6379 0.5655
vn 0.4633 0.1490 0.8736
vn -0.1440 -0.9779 -0.1517
vn 0.1430 -0.9609 0.2372
vn 0.0823 -0.9292 0.3602
vn -0.1399 0.9261 -0.3503
vn -0.2540 0.0188 -0.9670
vn -0.0966 -0.9914 -0.0885
vn -0.2207 0.7801 -0.5855
vn 0.0824 -0.9964 -0.0181
vn 0.1508 0.9885 0.0086
vn -0.6262 0.2894 -0.7240
vn 0.6433 -0.5554 0.5270
vn 0.4846 -0.4875 0.7263
vn 0.2738 -0.4364 0.8571
vn 0.2581 0.7033 0.6624
vn -0.1603 0.9558 0.2466
vn 0.0634 -0.7192 -0.6919
vn -0.3379 0.5590 0.7572
vn 0.6033 -0.7567 0.2518
vn 0.8374 -0.5459 0.0263
vn -0.4216 -0.8581 -0.2930
vn -0.7601 -0.1140 -0.6397
s 1
f 29/1/1 38/2/2 8/3/3
f 39/4/4 43/5/5 42/6/6
f 43/5/5 20/7/7 42/6/6
f 43/5/5 56/8/8 19/9/9
f 41/10/10 6/11/11 43/5/5
f 65/12/12 22/13/13 38/14/2
f 31/15/14 44/16/15 55/17/16
f 27/18/17 11/19/18 1/20/19
f 45/21/20 17/22/21 18/23/22
f 46/24/23 2/25/24 17/22/21
f 61/26/25 2/25/24 46/24/23
f 37/27/26 15/28/27 36/29/28
f 47/30/29 64/31/30 35/32/31
f 34/33/32 49/34/33 33/35/34
f 45/21/20 49/34/33 34/33/32
f 50/36/35 12/37/36 16/38/37
f 50/36/35 3/39/38 12/37/36
f 27/18/17 1/20/19 4/40/39
f 7/41/40 24/42/41 16/38/37
f 32/43/42 52/44/43 5/45/44
f 42/6/6 20/7/7 52/44/43
f 32/43/42 42/6/6 52/44/43
f 25/46/45 21/47/46 14/48/47
f 26/49/48 8/3/3 4/40/39
f 24/42/41 21/47/46 25/46/45
f 16/38/37 24/42/41 25/46/45
f 12/50/36 4/40/39 13/51/49
f 15/52/27 27/18/17 4/40/39
f 8/3/3 13/51/49 4/40/39
f 14/48/47 50/36/35 25/46/45
f 17/22/21 28/53/50 50/36/35
f 2/25/24 28/53/50 17/22/21
f 27/18/17 15/52/27 54/54/51
f 24/42/41 9/55/52 21/47/46
f 56/8/8 29/1/1 19/9/9
f 53/56/53 20/7/7 19/9/9
f 26/49/48 19/9/9 29/1/1
f 37/57/26 47/30/29 30/58/54
f 21/47/46 23/59/55 57/60/56
f 14/48/47 57/60/56 48/61/57
f 57/60/56 5/45/44 48/61/57
f 23/59/55 39/4/4 32/43/42
f 34/33/32 33/35/34 58/62/58
f 10/63/59 34/33/32 1/20/19
f 5/45/44 58/62/58 33/35/34
f 12/37/36 13/64/49 16/38/37
f 7/41/40 16/38/37 13/64/49
f 54/65/51 35/32/31 64/31/30
f 59/66/60 36/29/28 3/39/38
f 10/63/59 61/26/25 60/67/61
f 61/26/25 45/21/20 60/67/61
f 64/68/30 61/26/25 11/19/18
f 65/12/12 38/14/2 29/69/1
f 62/70/62 40/71/63 39/4/4
f 9/55/52 41/10/10 40/71/63
f 44/72/15 22/13/13 55/73/16
f 8/3/3 26/49/48 29/1/1
f 31/74/14 65/75/12 29/1/1
f 56/8/8 31/74/14 29/1/1
f 9/55/52 22/13/13 44/72/15
f 39/4/4 40/71/63 43/5/5
f 43/5/5 19/9/9 20/7/7
f 40/71/63 41/10/10 43/5/5
f 43/5/5 6/11/11 56/8/8
f 31/15/14 6/76/11 44/16/15
f 27/18/17 54/54/51 11/19/18
f 1/20/19 11/19/18 10/63/59
f 3/39/38 28/53/50 59/66/60
f 50/36/35 28/53/50 3/39/38
f 28/53/50 63/77/64 59/66/60
f 45/21/20 46/24/23 17/22/21
f 61/26/25 64/68/30 2/25/24
f 47/30/29 2/78/24 64/31/30
f 47/30/29 63/79/64 2/78/24
f 36/29/28 15/28/27 12/37/36
f 33/35/34 49/34/33 48/61/57
f 48/61/57 5/45/44 33/35/34
f 49/34/33 45/21/20 18/23/22
f 25/46/45 50/36/35 16/38/37
f 53/56/53 52/44/43 20/7/7
f 7/41/40 51/80/65 24/42/41
f 51/80/65 38/14/2 24/42/41
f 5/45/44 52/44/43 58/62/58
f 32/43/42 39/4/4 42/6/6
f 8/3/3 51/81/65 7/82/40
f 8/3/3 38/2/2 51/81/65
f 12/50/36 15/52/27 4/40/39
f 8/3/3 7/82/40 13/51/49
f 14/48/47 17/22/21 50/36/35
f 23/59/55 21/47/46 62/70/62
f 59/83/60 63/79/64 47/30/29
f 37/57/26 59/83/60 47/30/29
f 2/25/24 63/77/64 28/53/50
f 37/84/26 54/54/51 15/52/27
f 49/34/33 18/23/22 14/48/47 48/61/57
f 54/54/51 64/68/30 11/19/18
f 55/17/16 22/85/13 65/86/12
f 31/15/14 55/17/16 65/86/12
f 24/42/41 38/14/2 22/13/13
f 24/42/41 22/13/13 9/55/52
f 26/49/48 53/56/53 19/9/9
f 31/15/14 56/87/8 6/76/11
f 47/30/29 35/32/31 30/58/54
f 54/65/51 37/57/26 30/58/54
f 57/60/56 32/43/42 5/45/44
f 57/60/56 23/59/55 32/43/42
f 14/48/47 21/47/46 57/60/56
f 1/20/19 34/33/32 58/62/58
f 60/67/61 45/21/20 34/33/32
f 10/63/59 60/67/61 34/33/32
f 12/37/36 3/39/38 36/29/28
f 54/65/51 30/58/54 35/32/31
f 59/66/60 37/27/26 36/29/28
f 10/63/59 11/19/18 61/26/25
f 61/26/25 46/24/23 45/21/20
f 62/70/62 9/55/52 40/71/63
f 9/55/52 44/72/15 41/10/10
f 23/59/55 62/70/62 39/4/4
f 41/10/10 44/72/15 6/11/11
f 52/44/43 53/56/53 1/20/19 58/62/58
f 9/55/52 62/70/62 21/47/46
f 53/56/53 26/49/48 4/40/39 1/20/19
f 17/22/21 14/48/47 18/23/22
