# Blender v2.92.0 OBJ File: 'fruit.blend'
# www.blender.org
o Pomegranate_Cube.001
v 0.011540 0.024314 0.027962
v 0.024148 0.022188 0.014470
v -0.012258 0.054175 0.029969
v 0.025041 0.062236 -0.008125
v 0.001907 0.020664 -0.037070
v -0.036928 0.019969 -0.004866
v -0.015204 0.064357 -0.027996
v -0.001750 0.040798 0.035554
v -0.022971 0.066948 -0.023563
v -0.025692 0.062185 -0.026548
v 0.033544 0.038237 0.007531
v -0.023847 0.026145 0.027603
v 0.009696 0.073750 -0.015142
v -0.006105 0.035574 -0.040934
v -0.038826 0.050328 0.003231
v -0.006676 0.075785 0.004674
v -0.022624 0.027163 -0.034971
v -0.028046 0.045753 -0.030678
v -0.011800 0.014262 0.027462
v 0.031588 0.025689 0.000770
v 0.002811 0.000311 -0.002226
v 0.013440 0.001626 0.016329
v 0.011688 0.014866 0.030022
v 0.018971 0.010754 0.007128
v 0.002756 0.009275 0.020551
v 0.023001 0.016120 0.009244
v -0.005582 0.027868 0.035112
v 0.020036 0.026519 0.023083
v -0.020724 0.059024 -0.028291
v 0.004430 0.016321 0.026105
v -0.020776 0.068246 0.014377
v 0.011677 0.009673 -0.024392
v -0.023756 0.007151 0.007661
v 0.014994 0.030203 -0.036108
v 0.018587 0.070209 0.001194
v -0.038985 0.027906 0.007693
v 0.025391 0.054614 -0.022336
v 0.022353 0.027626 -0.029731
v 0.012932 0.006794 0.008592
v 0.011994 0.001000 0.024445
v -0.026127 0.059708 -0.023803
v 0.012306 0.065917 0.017108
v 0.024898 0.007969 0.028309
v 0.018919 0.007580 0.030779
v 0.026796 0.006707 0.023069
v 0.020231 0.002792 0.028503
v 0.022023 0.002357 0.021814
v 0.018248 0.000711 0.025123
v -0.015722 0.067072 -0.025263
v -0.022782 0.062963 -0.028560
v 0.019638 0.008268 -0.007082
v -0.010253 0.002870 0.013080
v 0.026394 0.016294 -0.012323
v 0.018146 0.048011 0.025840
v -0.005311 0.001906 -0.012876
v 0.033982 0.039543 -0.008090
v -0.026557 0.014499 0.017859
v 0.026620 0.054958 0.012922
v -0.021099 0.072100 -0.003737
v 0.016550 0.056773 -0.030641
v -0.036978 0.040365 0.017157
v -0.000135 0.072793 0.014043
v -0.018010 0.013391 -0.028684
v -0.040978 0.037243 -0.007060
v 0.005082 0.048732 -0.037858
v -0.005565 0.068612 -0.028769
v -0.034106 0.054875 -0.017318
v -0.030627 0.066326 -0.008505
v -0.010373 0.073240 -0.018894
v -0.022739 0.065956 -0.020206
v -0.018997 0.047373 -0.037154
v 0.008708 0.043414 0.033443
v 0.024530 0.038186 0.022225
v 0.018381 0.014880 0.030703
v 0.023360 0.018052 0.026425
v 0.018570 0.004401 0.013200
v 0.026272 0.006377 0.018031
v 0.028483 0.013319 0.023801
v 0.007482 0.005664 0.012526
v -0.032030 0.057971 0.016306
v -0.034479 0.023751 -0.021695
v 0.012237 0.004875 0.029149
v 0.001516 0.062702 0.025781
v -0.024446 0.045012 0.029288
v -0.026094 0.006750 -0.009832
v -0.012143 0.000457 0.002366
vt 0.414432 0.447946
vt 0.298541 0.442389
vt 0.385869 0.366252
vt 0.340780 0.282356
vt 0.187395 0.309076
vt 0.283252 0.185712
vt 0.110785 0.261363
vt 0.570941 0.221213
vt 0.505337 0.134229
vt 0.665159 0.152910
vt 0.561401 0.430116
vt 0.514916 0.379970
vt 0.602623 0.378538
vt 0.558046 0.333563
vt 0.636900 0.310662
vt 0.538079 0.553369
vt 0.573985 0.531288
vt 0.647564 0.585431
vt 0.256312 0.374159
vt 0.325996 0.640559
vt 0.438734 0.611945
vt 0.464388 0.670490
vt 0.130697 0.422021
vt 0.147605 0.487781
vt 0.092280 0.465027
vt 0.868672 0.904288
vt 0.711629 0.807211
vt 0.796516 0.770145
vt 0.260914 0.510310
vt 0.222759 0.561753
vt 0.170382 0.533269
vt 0.177458 0.585631
vt 0.848747 0.402948
vt 0.867943 0.457356
vt 0.822988 0.459526
vt 0.244773 0.850954
vt 0.231938 0.794581
vt 0.425203 0.852103
vt 0.123464 0.631907
vt 0.081841 0.672612
vt 0.041873 0.637169
vt 0.060491 0.587057
vt 0.011471 0.618579
vt 0.115446 0.592798
vt 0.239251 0.476122
vt 0.151771 0.710906
vt 0.221551 0.683666
vt 0.044716 0.426289
vt 0.078577 0.341178
vt 0.924306 0.362425
vt 0.878157 0.423239
vt 0.836288 0.520923
vt 0.515443 0.624646
vt 0.608533 0.659663
vt 0.605910 0.610457
vt 0.611219 0.785438
vt 0.532031 0.724770
vt 0.640061 0.708104
vt 0.708848 0.463216
vt 0.620291 0.430976
vt 0.717584 0.409357
vt 0.987294 0.635466
vt 0.962809 0.734421
vt 0.844118 0.623987
vt 0.656295 0.538248
vt 0.755686 0.566782
vt 0.704908 0.657977
vt 0.844534 0.262607
vt 0.876328 0.548675
vt 0.945939 0.561959
vt 0.413248 0.740658
vt 0.469029 0.788011
vt 0.448093 0.293297
vt 0.431760 0.224752
vt 0.433028 0.391252
vt 0.477005 0.436148
vt 0.458220 0.342145
vt 0.299959 0.721855
vt 0.151921 0.762663
vt 0.208598 0.629754
vt 0.332077 0.537539
vt 0.318900 0.489022
vt 0.336292 0.586399
vt 0.174876 0.449102
vt 0.423957 0.522297
vt 0.493951 0.011735
vt 0.765372 0.062204
vt 0.675792 0.241692
vt 0.631305 0.487658
vt 0.569035 0.490257
vt 0.555092 0.285007
vt 0.611827 0.865069
vt 0.607084 0.989743
vt 0.401976 0.948703
vt 0.912989 0.443476
vt 0.935727 0.392067
vt 0.982304 0.423180
vt 0.947009 0.533660
vt 0.501480 0.498539
vt 0.466114 0.551267
vt 0.277131 0.067473
vt 0.772631 0.332166
vt 0.912775 0.195497
vn 0.2261 -0.9741 -0.0007
vn -0.0836 -0.9948 0.0582
vn -0.1318 -0.8952 0.4258
vn -0.1886 -0.6170 0.7641
vn -0.1625 -0.3840 0.9089
vn -0.0241 -0.2353 0.9716
vn 0.2653 -0.0109 0.9641
vn -0.8708 0.0153 0.4914
vn -0.5004 0.1813 0.8466
vn -0.7054 0.5211 0.4804
vn -0.3167 -0.6726 -0.6688
vn -0.5673 -0.7993 -0.1981
vn -0.8201 -0.3153 -0.4775
vn -0.8821 -0.4702 -0.0279
vn -0.9879 0.0233 -0.1536
vn 0.7274 -0.2418 -0.6422
vn 0.4660 -0.1472 -0.8725
vn 0.5216 0.4478 -0.7262
vn -0.2774 -0.7746 0.5684
vn 0.9683 -0.0798 0.2366
vn 0.9196 -0.3786 0.1049
vn 0.9604 0.0170 0.2779
vn -0.3923 -0.4618 0.7955
vn 0.1505 -0.9628 0.2243
vn 0.3067 -0.7004 0.6445
vn -0.4109 0.7781 0.4752
vn 0.0848 0.8866 0.4547
vn -0.0741 0.9859 0.1498
vn 0.3405 -0.7766 -0.5301
vn 0.8062 -0.4807 -0.3448
vn 0.4874 -0.8692 -0.0835
vn 0.8532 -0.4997 0.1494
vn -0.7814 0.3638 -0.5070
vn -0.3767 0.2299 -0.8973
vn -0.4455 0.2605 -0.8565
vn 0.3564 0.1563 0.9212
vn 0.6720 -0.2158 0.7084
vn 0.1228 -0.1802 0.9759
vn -0.1068 -0.9419 -0.3186
vn 0.2181 0.2156 0.9518
vn 0.6354 0.4532 0.6252
vn -0.3005 0.0544 0.9522
vn -0.5757 0.7917 -0.2044
vn -0.8433 -0.0107 -0.5374
vn -0.2380 0.5536 -0.7981
vn 0.9816 0.0615 -0.1807
vn 0.8151 0.5628 -0.1371
vn 0.8024 0.3682 -0.4697
vn 0.4580 0.6836 0.5682
vn 0.8067 0.4381 0.3965
vn 0.5752 0.8063 0.1380
vn -0.3660 0.2573 -0.8943
vn -0.4835 -0.2602 -0.8358
vn -0.7247 0.1768 -0.6660
vn -0.7228 0.6783 -0.1326
vn -0.4299 0.9028 0.0156
vn -0.1971 0.9297 -0.3112
vn 0.1932 0.2541 -0.9477
vn -0.0214 0.7051 -0.7088
vn 0.3429 0.8953 -0.2844
vn -0.2771 0.7911 -0.5453
vn 0.7443 -0.0326 0.6671
vn 0.5874 0.3268 0.7404
vn -0.6424 -0.5766 0.5049
vn -0.5596 -0.2713 0.7831
vn -0.2109 -0.9749 0.0721
vn -0.0214 -0.9357 -0.3521
vn -0.5809 -0.7682 0.2693
vn 0.7163 0.0823 0.6929
vn 0.9565 0.1732 0.2349
vn 0.6696 -0.7040 -0.2367
vn 0.2991 -0.9306 -0.2113
vn 0.9189 -0.3839 -0.0909
vn -0.3890 -0.8810 0.2694
vn 0.5909 -0.8031 -0.0760
vn -0.2051 0.4533 0.8674
vn -0.9503 0.2974 0.0915
vn -0.0550 -0.0629 -0.9965
vn 0.1167 -0.4774 -0.8709
vn -0.9220 -0.2786 0.2689
vn 0.1247 0.6123 0.7807
vn 0.0075 0.1404 0.9901
vn -0.4805 0.8735 -0.0785
vn 0.3541 -0.7585 -0.5471
vn 0.8181 -0.5255 -0.2336
vn -0.8581 0.3355 -0.3887
s 1
f 21/1/1 79/2/2 52/3/3
f 19/4/4 30/5/5 27/6/6
f 30/5/5 1/7/7 27/6/6
f 61/8/8 84/9/9 80/10/10
f 63/11/11 85/12/12 81/13/13
f 85/12/12 6/14/14 81/13/13
f 81/13/13 6/14/14 64/15/15
f 38/16/16 34/17/17 60/18/18
f 52/3/3 25/19/19 19/4/4
f 2/20/20 20/21/21 11/22/22
f 82/23/23 48/24/24 46/25/25
f 31/26/26 62/27/27 16/28/28
f 76/29/29 77/30/30 47/31/31
f 77/30/30 45/32/32 47/31/31
f 41/33/33 50/34/34 29/35/35
f 27/36/6 1/37/7 72/38/36
f 43/39/37 44/40/38 46/41/25
f 47/42/31 46/41/25 48/43/24
f 45/44/32 43/39/37 46/41/25
f 22/45/39 47/31/31 48/24/24
f 74/46/40 43/39/37 75/47/41
f 82/23/23 44/48/38 23/49/42
f 70/50/43 10/51/44 41/33/33
f 29/35/35 50/34/34 7/52/45
f 11/22/22 56/53/46 4/54/47
f 56/53/46 38/16/16 37/55/48
f 42/56/49 58/57/50 35/58/51
f 58/57/50 11/22/22 4/54/47
f 71/59/52 17/60/53 18/61/54
f 68/62/55 59/63/56 69/64/57
f 59/63/56 16/28/28 69/64/57
f 60/18/18 65/65/58 66/66/59
f 13/67/60 66/66/59 69/64/57
f 41/33/33 68/68/55 70/50/43
f 7/52/45 71/59/52 29/35/35
f 49/69/61 66/66/59 7/52/45
f 70/70/43 69/64/57 49/69/61
f 29/35/35 71/59/52 41/33/33
f 72/38/36 73/71/62 54/72/63
f 57/73/64 19/4/4 12/74/65
f 21/1/1 86/75/66 55/76/67
f 86/75/66 52/3/3 33/77/68
f 1/7/7 30/5/5 23/49/42
f 30/5/5 82/23/23 23/49/42
f 28/78/69 74/46/40 75/47/41
f 1/37/7 23/79/42 74/46/40
f 2/20/20 75/47/41 78/80/70
f 24/81/71 76/29/29 39/82/72
f 24/81/71 77/30/30 76/29/29
f 26/83/73 77/30/30 24/81/71
f 25/19/19 82/23/23 30/5/5
f 25/19/19 40/84/74 82/23/23
f 2/20/20 77/30/30 26/83/73
f 79/2/2 40/84/74 25/19/19
f 79/2/2 22/45/39 40/84/74
f 79/2/2 39/82/72 22/45/39
f 24/81/71 51/85/75 20/21/21 26/83/73
f 3/86/76 31/87/26 80/10/10 84/9/9
f 79/2/2 25/19/19 52/3/3
f 40/84/74 22/45/39 48/24/24
f 15/88/77 61/8/8 80/10/10
f 14/89/78 65/65/58 34/17/17 5/90/79
f 17/60/53 63/11/11 81/13/13
f 11/22/22 73/71/62 28/78/69 2/20/20
f 60/18/18 34/17/17 65/65/58
f 35/58/51 13/67/60 16/28/28 62/27/27
f 37/55/48 60/18/18 13/67/60 4/54/47
f 62/27/27 42/56/49 35/58/51
f 35/58/51 4/54/47 13/67/60
f 61/8/8 15/88/77 64/15/15 36/91/80
f 37/55/48 38/16/16 60/18/18
f 64/15/15 6/14/14 36/91/80
f 83/92/81 62/27/27 31/26/26 3/93/76
f 77/30/30 78/80/70 45/32/32
f 78/80/70 43/39/37 45/32/32
f 19/4/4 25/19/19 30/5/5
f 20/21/21 2/20/20 26/83/73
f 82/23/23 40/84/74 48/24/24
f 17/60/53 14/89/78 5/90/79 63/11/11
f 62/27/27 83/92/81 42/56/49
f 39/82/72 21/1/1 51/85/75 24/81/71
f 41/33/33 10/51/44 50/34/34
f 28/78/69 73/71/62 72/38/36 1/37/7
f 39/82/72 79/2/2 21/1/1
f 72/38/36 83/92/81 3/93/76 8/94/82
f 47/42/31 45/44/32 46/41/25
f 22/45/39 76/29/29 47/31/31
f 75/47/41 43/39/37 78/80/70
f 23/79/42 44/40/38 74/46/40
f 74/46/40 44/40/38 43/39/37
f 44/48/38 82/23/23 46/25/25
f 50/95/34 10/51/44 9/96/83
f 50/95/34 9/96/83 49/97/61
f 9/98/83 70/70/43 49/69/61
f 70/50/43 9/96/83 10/51/44
f 54/72/63 42/56/49 83/92/81 72/38/36
f 63/11/11 5/90/79 32/99/84 55/76/67
f 57/73/64 36/91/80 6/14/14 33/77/68
f 4/54/47 56/53/46 37/55/48
f 56/53/46 53/100/85 38/16/16
f 12/74/65 61/8/8 36/91/80 57/73/64
f 8/101/82 3/86/76 84/9/9 27/6/6
f 61/8/8 12/74/65 84/9/9
f 12/74/65 27/6/6 84/9/9
f 32/99/84 5/90/79 34/17/17 38/16/16
f 63/11/11 55/76/67 85/12/12
f 55/76/67 86/75/66 85/12/12
f 85/12/12 86/75/66 33/77/68
f 85/12/12 33/77/68 6/14/14
f 38/16/16 53/100/85 32/99/84
f 15/88/77 68/68/55 67/102/86 64/15/15
f 42/56/49 54/72/63 58/57/50
f 35/58/51 58/57/50 4/54/47
f 14/89/78 17/60/53 71/59/52
f 59/63/56 31/26/26 16/28/28
f 67/102/86 18/61/54 81/13/13 64/15/15
f 66/66/59 13/67/60 60/18/18
f 69/64/57 16/28/28 13/67/60
f 65/65/58 14/89/78 71/59/52
f 66/66/59 65/65/58 71/59/52
f 18/61/54 17/60/53 81/13/13
f 31/87/26 59/103/56 68/68/55 80/10/10
f 15/88/77 80/10/10 68/68/55
f 21/1/1 55/76/67 32/99/84 51/85/75
f 41/33/33 67/102/86 68/68/55
f 7/52/45 66/66/59 71/59/52
f 49/69/61 69/64/57 66/66/59
f 41/33/33 18/61/54 67/102/86
f 70/70/43 68/62/55 69/64/57
f 71/59/52 18/61/54 41/33/33
f 8/94/82 27/36/6 72/38/36
f 57/73/64 33/77/68 52/3/3 19/4/4
f 11/22/22 20/21/21 56/53/46
f 56/53/46 20/21/21 53/100/85
f 12/74/65 19/4/4 27/6/6
f 21/1/1 52/3/3 86/75/66
f 20/21/21 51/85/75 53/100/85
f 53/100/85 51/85/75 32/99/84
f 54/72/63 73/71/62 58/57/50
f 58/57/50 73/71/62 11/22/22
f 28/78/69 1/37/7 74/46/40
f 28/78/69 75/47/41 2/20/20
f 39/82/72 76/29/29 22/45/39
f 2/20/20 78/80/70 77/30/30
f 50/34/34 49/69/61 7/52/45
