# Blender v2.92.0 OBJ File: 'books_series1_individual.blend'
# www.blender.org
o Cube.003
v -0.143183 -0.179255 0.029792
v -0.143552 0.179507 0.029792
v -0.143183 -0.179255 -0.033573
v -0.143552 0.179507 -0.033573
v 0.138886 -0.179255 -0.033573
v 0.138886 0.179507 -0.033573
v 0.138886 0.179507 0.029792
v 0.138886 -0.179255 0.029792
v -0.149276 0.191420 0.035943
v 0.147783 -0.191022 0.035983
v 0.147761 0.191274 0.036005
v 0.147798 -0.190991 -0.034224
v 0.147779 0.191247 -0.034205
v 0.147761 -0.191022 -0.039787
v 0.147783 0.191274 -0.039765
v 0.147795 0.191238 0.030429
v 0.147782 -0.190999 0.030436
v -0.143782 -0.191070 -0.034210
v -0.143821 -0.191088 0.030431
v -0.143786 0.191322 0.030429
v -0.143825 0.191340 -0.034213
v -0.149286 -0.191165 -0.039723
v -0.149283 -0.191167 0.035954
v -0.149272 0.191417 -0.039738
v -0.152997 -0.190799 -0.001891
v -0.152997 0.191051 -0.001891
v -0.151634 -0.190799 -0.020550
v -0.151634 0.191051 0.016769
v -0.151634 -0.190799 0.016769
v -0.151634 0.191051 -0.020550
vt 0.162807 0.996364
vt 0.162807 0.894133
vt 0.141944 0.894133
vt 0.141944 0.996364
vt 0.248950 0.996364
vt 0.270710 0.996364
vt 0.270710 0.898345
vt 0.248950 0.898345
vt 0.000002 0.473499
vt 0.092993 0.473499
vt 0.092993 0.999998
vt 0.000002 0.999998
vt 0.680696 0.378366
vt 0.820343 0.378505
vt 0.820343 0.557534
vt 0.680691 0.557681
vt 0.185985 0.473499
vt 0.278976 0.473499
vt 0.278976 0.887448
vt 0.185985 0.887448
vt 0.092993 0.473499
vt 0.185985 0.473499
vt 0.185985 0.887990
vt 0.092993 0.887990
vt 0.205430 0.898345
vt 0.205430 0.996364
vt 0.227190 0.996364
vt 0.227190 0.898345
vt 0.890972 0.546037
vt 0.890824 0.399114
vt 0.899744 0.397080
vt 0.899744 0.546038
vt 0.183670 0.996364
vt 0.205430 0.996364
vt 0.205430 0.898345
vt 0.183670 0.898345
vt 0.863294 0.543915
vt 0.863443 0.397080
vt 0.872214 0.397080
vt 0.872214 0.546038
vt 0.507308 0.378505
vt 0.646872 0.378362
vt 0.646782 0.557672
vt 0.507308 0.557534
vt 0.227190 0.996364
vt 0.248950 0.996364
vt 0.248950 0.898345
vt 0.227190 0.898345
vt 0.899751 0.397080
vt 0.908657 0.397080
vt 0.908075 0.546038
vt 0.900333 0.546038
vt 0.881519 0.399469
vt 0.890695 0.397095
vt 0.890823 0.539901
vt 0.881519 0.539901
vt 0.908665 0.543983
vt 0.908813 0.397080
vt 0.917585 0.397081
vt 0.917585 0.546038
vt 0.881519 0.397080
vt 0.872214 0.397080
vt 0.872214 0.539901
vt 0.881519 0.539901
vt 0.121081 0.996364
vt 0.121081 0.894133
vt 0.100218 0.894133
vt 0.100218 0.996364
vt 0.862892 0.397195
vt 0.862892 0.539786
vt 0.853588 0.530463
vt 0.853588 0.406518
vt 0.183670 0.894133
vt 0.162807 0.894133
vt 0.162807 0.996364
vt 0.183670 0.996364
vt 0.141944 0.894133
vt 0.121081 0.894133
vt 0.121081 0.996364
vt 0.141944 0.996364
vt 0.945470 0.506042
vt 0.946440 0.541747
vt 0.946379 0.398926
vt 0.945470 0.434631
vt 0.945470 0.470336
vt 0.960367 0.398926
vt 0.959387 0.436165
vt 0.959387 0.473405
vt 0.959387 0.510644
vt 0.960311 0.547884
vt 0.853588 0.397080
vt 0.844283 0.397080
vt 0.844283 0.539901
vt 0.853588 0.539901
vt 0.656519 0.378505
vt 0.663699 0.378505
vt 0.663699 0.557534
vt 0.656519 0.557534
vt 0.670878 0.557534
vt 0.670878 0.378505
vn 0.0718 -0.0000 -0.9974
vn 0.0718 -0.0000 0.9974
vn 1.0000 0.0000 0.0000
vn -0.0002 -0.0000 1.0000
vn 0.0000 -1.0000 0.0000
vn 0.0000 1.0000 0.0000
vn 0.0000 -0.0546 0.9985
vn 0.0004 0.9999 -0.0120
vn -0.0000 0.0538 0.9985
vn 0.0004 -1.0000 -0.0091
vn -0.0002 0.0000 -1.0000
vn 0.9998 0.0215 -0.0003
vn 0.0161 0.9999 0.0001
vn 0.0004 -0.9999 0.0111
vn 0.0004 1.0000 0.0093
vn 1.0000 -0.0000 -0.0030
vn 0.0000 0.0540 -0.9985
vn 0.0158 -0.9999 -0.0001
vn 0.0000 -0.0543 -0.9985
vn 0.9986 -0.0523 0.0003
vn -0.4809 -0.8419 -0.2446
vn 0.1693 -0.9774 -0.1269
vn 0.1693 -0.9774 0.1268
vn -0.5211 -0.8367 -0.1685
vn -0.5032 -0.8370 -0.2151
vn 0.1696 0.9773 -0.1268
vn -0.5209 0.8368 0.1684
vn -0.5029 0.8371 0.2151
vn -0.4806 0.8421 0.2447
vn 0.1696 0.9773 0.1268
vn 1.0000 0.0000 0.0030
vn -0.9973 0.0000 -0.0729
vn -0.9925 0.0000 0.1218
vn -0.9973 0.0000 0.0729
vn -0.9925 0.0000 -0.1219
s off
f 16/1/1 17/2/1 8/3/1 7/4/1
f 13/5/2 6/6/2 5/7/2 12/8/2
f 8/9/3 5/10/3 6/11/3 7/12/3
f 23/13/4 10/14/4 11/15/4 9/16/4
f 1/17/5 3/18/5 5/19/5 8/20/5
f 7/21/6 6/22/6 4/23/6 2/24/6
f 18/25/7 12/26/7 5/27/7 3/28/7
f 20/29/8 9/30/8 11/31/8 16/32/8
f 21/33/9 4/34/9 6/35/9 13/36/9
f 23/37/10 19/38/10 17/39/10 10/40/10
f 14/41/11 22/42/11 24/43/11 15/44/11
f 20/45/12 2/46/12 4/47/12 21/48/12
f 24/49/13 9/50/13 20/51/13 21/52/13
f 18/53/14 22/54/14 14/55/14 12/56/14
f 24/57/15 21/58/15 13/59/15 15/60/15
f 15/61/16 13/62/16 12/63/16 14/64/16
f 20/65/17 16/66/17 7/67/17 2/68/17
f 23/69/18 22/70/18 18/71/18 19/72/18
f 19/73/19 1/74/19 8/75/19 17/76/19
f 18/77/20 3/78/20 1/79/20 19/80/20
f 27/81/21 22/82/22 23/83/23 29/84/24 25/85/25
f 24/86/26 30/87/27 26/88/28 28/89/29 9/90/30
f 10/91/31 17/92/31 16/93/31 11/94/31
f 27/95/32 25/96/32 26/97/32 30/98/32
f 23/13/33 9/16/33 28/99/33 29/100/33
f 29/100/34 28/99/34 26/97/34 25/96/34
f 22/42/35 27/95/35 30/98/35 24/43/35
