# Blender v2.92.0 OBJ File: 'fruit.blend'
# www.blender.org
o Apple_Cube.002
v -0.003091 0.006509 -0.000718
v 0.007281 0.055559 -0.000928
v -0.003334 0.004915 -0.020896
v 0.009021 0.002652 -0.006027
v 0.009389 0.001338 0.006793
v 0.002108 0.007262 0.003003
v 0.011276 0.054639 -0.001334
v -0.030031 0.035762 -0.003718
v -0.021713 0.007424 0.014013
v 0.031540 0.027027 0.018558
v -0.027031 0.038077 -0.014716
v 0.034178 0.047563 -0.017726
v -0.018642 0.050839 0.025160
v -0.017548 0.058741 -0.019157
v 0.012951 0.004731 0.020342
v 0.021505 0.005571 0.005940
v -0.015485 0.066187 0.014754
v 0.018189 0.062064 -0.016788
v -0.004586 0.068640 0.017942
v 0.036873 0.051449 0.008713
v 0.005959 0.068597 -0.014047
v 0.011849 0.061296 -0.008426
v 0.017064 0.062878 0.004730
v 0.017650 0.025559 0.031304
v 0.001120 0.041788 -0.034718
v 0.022981 0.040636 0.031270
v -0.004596 0.059905 -0.028301
v -0.016056 0.029942 -0.026408
v 0.010478 0.066553 0.006487
v 0.013595 0.060729 -0.026384
v 0.015373 0.062922 0.025092
v 0.001064 0.001669 0.011181
v -0.000882 0.001426 -0.006974
v 0.008545 0.048835 0.033744
v 0.006263 0.028567 0.033977
v 0.016589 0.003879 -0.013364
v 0.005849 0.005159 0.023497
v -0.009739 0.005515 0.022097
v -0.016126 0.006194 -0.013405
v 0.006675 0.000074 0.014546
v -0.002249 -0.000158 -0.012655
v -0.003722 0.006007 0.005466
v -0.007233 0.001829 0.012844
v -0.012289 0.002416 -0.001679
v -0.026940 0.033032 0.018578
v 0.038159 0.033769 -0.009620
v -0.027015 0.050947 0.013423
v 0.036565 0.054134 -0.008619
v 0.028948 0.062484 -0.000874
v -0.018044 0.065390 -0.004945
v -0.026784 0.053207 -0.006859
v 0.033157 0.019973 -0.007014
v 0.019497 0.061660 -0.005427
v 0.020725 0.021229 -0.026266
v -0.009372 0.034659 0.032580
v 0.005944 0.030369 -0.034265
v 0.027644 0.037850 -0.026468
v -0.021354 0.006244 -0.003179
v -0.003113 0.056923 0.029905
v 0.038470 0.039650 0.010049
v 0.019237 0.051000 -0.030091
v -0.005656 0.069878 -0.012547
v 0.033034 0.059482 0.002625
v 0.016618 0.067181 0.015586
v 0.025722 0.056965 0.024218
v -0.014230 0.043281 -0.028566
v -0.008608 0.000907 0.006909
v -0.015035 0.000979 0.009908
v 0.019556 0.001404 -0.002643
v -0.002406 0.072211 0.006866
v 0.003881 0.066091 -0.000986
v 0.017710 0.070945 -0.007217
v 0.009500 0.055193 -0.001368
v 0.014045 0.068850 -0.005907
v 0.009813 0.057874 -0.004211
v 0.011245 0.057561 -0.004396
v 0.023891 0.077879 -0.008433
v 0.021412 0.078454 -0.009672
vt 0.205704 0.573689
vt 0.298531 0.500001
vt 0.351224 0.543244
vt 0.195754 0.450110
vt 0.281341 0.407973
vt 0.056923 0.411333
vt 0.172302 0.365327
vt 0.142668 0.664345
vt 0.043045 0.591686
vt 0.593413 0.272223
vt 0.635104 0.107268
vt 0.803797 0.244495
vt 0.541963 0.427234
vt 0.484343 0.355315
vt 0.577547 0.370228
vt 0.456032 0.806839
vt 0.571341 0.728227
vt 0.614306 0.801214
vt 0.425967 0.733758
vt 0.485945 0.682980
vt 0.446682 0.159022
vt 0.473510 0.576753
vt 0.539121 0.544556
vt 0.552036 0.582292
vt 0.440044 0.534745
vt 0.498891 0.500513
vt 0.687490 0.455562
vt 0.727045 0.363330
vt 0.406621 0.650284
vt 0.294818 0.801060
vt 0.348143 0.682564
vt 0.329642 0.171683
vt 0.223922 0.079652
vt 0.447221 0.013657
vt 0.428918 0.397160
vt 0.346437 0.280086
vt 0.406262 0.317990
vt 0.408960 0.579049
vt 0.420513 0.492230
vt 0.296508 0.637281
vt 0.191276 0.764228
vt 0.222282 0.277468
vt 0.062541 0.307058
vt 0.253434 0.229670
vt 0.378225 0.429200
vt 0.283659 0.896270
vt 0.490258 0.453432
vt 0.501701 0.911478
vt 0.650207 0.872875
vt 0.891800 0.805822
vt 0.836057 0.758430
vt 0.676848 0.956096
vt 0.759494 0.685927
vt 0.097254 0.108589
vt 0.086344 0.081219
vt 0.128009 0.093643
vt 0.109519 0.538460
vt 0.049870 0.501647
vt 0.114546 0.477485
vt 0.924898 0.722506
vt 0.822197 0.635808
vt 0.915830 0.669671
vt 0.788706 0.305338
vt 0.940304 0.202169
vt 0.980343 0.264518
vt 0.751679 0.463335
vt 0.820293 0.395532
vt 0.686693 0.515990
vt 0.776845 0.542566
vt 0.860398 0.518286
vt 0.883710 0.574050
vt 0.798809 0.462944
vt 0.936901 0.322213
vt 0.992805 0.353898
vt 0.964634 0.379707
vt 0.937203 0.620007
vt 0.983669 0.700396
vt 0.816207 0.596416
vt 0.703596 0.630038
vt 0.701086 0.564540
vt 0.762294 0.612773
vt 0.491965 0.635788
vt 0.491997 0.271020
vt 0.571855 0.649880
vt 0.144200 0.541698
vt 0.950711 0.510465
vt 0.946833 0.415957
vt 0.973539 0.398835
vt 0.939671 0.604512
vt 0.916290 0.599179
vt 0.928444 0.537389
vt 0.971209 0.607353
vt 0.968604 0.543121
vt 0.930559 0.414261
vt 0.562572 0.500247
vt 0.095421 0.824719
vt 0.039910 0.703637
vt 0.038636 0.106550
vt 0.017117 0.553565
vt 0.969185 0.462763
vn 0.6410 0.7566 -0.1287
vn 0.2928 0.9514 -0.0958
vn -0.1506 0.9489 -0.2772
vn 0.3254 0.8145 0.4803
vn 0.3914 0.9042 -0.1710
vn -0.1285 0.9899 -0.0599
vn -0.2274 0.9723 0.0538
vn 0.3609 0.7770 -0.5158
vn 0.6351 0.7660 -0.0997
vn 0.8599 -0.4792 -0.1757
vn 0.8138 -0.3430 0.4691
vn 0.7108 -0.6581 0.2484
vn 0.0368 -0.2344 -0.9714
vn 0.6395 -0.0833 -0.7643
vn 0.4942 -0.4327 -0.7540
vn 0.0783 0.2432 0.9668
vn -0.3712 -0.0776 0.9253
vn 0.0036 -0.2029 0.9792
vn -0.2104 0.4768 0.8535
vn -0.6023 0.3068 0.7370
vn 0.9572 -0.0543 0.2842
vn -0.9006 0.3878 -0.1962
vn -0.8833 -0.0176 -0.4685
vn -0.9926 -0.0729 -0.0967
vn -0.6563 0.5229 -0.5439
vn -0.5635 0.1114 -0.8186
vn -0.1470 -0.6627 -0.7343
vn 0.4000 -0.7964 -0.4536
vn -0.5584 0.7511 0.3522
vn 0.2439 0.7093 0.6614
vn -0.1520 0.8501 0.5041
vn 0.9063 0.3281 0.2665
vn 0.6167 0.4817 0.6227
vn 0.5335 0.0414 0.8448
vn 0.4061 0.3273 -0.8532
vn 0.8421 0.4697 -0.2651
vn 0.7973 0.2529 -0.5481
vn -0.6313 0.7657 -0.1233
vn -0.2263 0.5785 -0.7837
vn 0.0236 0.9997 0.0070
vn 0.3354 0.9339 0.1238
vn 0.3493 0.9367 0.0226
vn 0.0098 0.9034 -0.4288
vn 0.6791 0.7263 0.1065
vn 0.2829 0.6861 -0.6702
vn -0.1075 0.0886 -0.9902
vn 0.4082 -0.3180 0.8557
vn 0.4571 -0.7044 0.5430
vn 0.0731 -0.6643 0.7439
vn -0.3011 -0.6469 0.7006
vn 0.1944 -0.9261 0.3233
vn -0.2255 -0.9656 -0.1297
vn 0.2882 -0.9104 -0.2968
vn 0.0390 -0.9839 0.1744
vn 0.1094 -0.9823 0.1519
vn -0.2103 -0.9427 -0.2591
vn 0.4516 -0.8880 -0.0868
vn -0.0564 -0.9796 -0.1929
vn -0.0436 -0.9970 0.0641
vn -0.6064 -0.6363 -0.4769
vn -0.1012 -0.9920 -0.0756
vn 0.0873 -0.8999 0.4273
vn -0.2804 -0.9286 -0.2430
vn 0.3598 -0.9240 -0.1297
vn -0.7734 -0.5006 0.3889
vn -0.7570 -0.6229 -0.1972
vn -0.3353 -0.9310 0.1446
vn -0.8976 0.3338 0.2879
vn 0.9478 -0.1890 -0.2568
vn -0.8624 -0.1067 0.4948
vn -0.8008 0.4670 0.3751
vn -0.9165 0.2891 -0.2764
vn 0.0901 0.2870 0.9537
vn -0.0424 0.8557 -0.5157
vn 0.8952 0.4401 0.0695
vn 0.8049 -0.5725 0.1559
vn 0.9041 -0.2980 -0.3062
vn -0.5833 -0.2279 -0.7797
s 1
f 71/1/1 21/2/2 62/3/3
f 22/4/4 21/2/2 71/1/1
f 22/4/4 18/5/5 21/2/2
f 22/4/4 7/6/6 53/7/7
f 29/8/8 2/9/9 71/1/1
f 52/10/10 10/11/11 16/12/12
f 56/13/13 57/14/14 54/15/15
f 34/16/16 55/17/17 35/18/18
f 59/19/19 13/20/20 55/17/17
f 52/10/10 60/21/21 10/11/11
f 51/22/22 11/23/23 8/24/24
f 14/25/25 66/26/26 11/23/23
f 3/27/27 54/15/15 36/28/28
f 59/19/19 17/29/29 13/20/20
f 31/30/30 59/19/19 34/16/16
f 19/31/31 17/29/29 59/19/19
f 20/32/32 65/33/33 60/21/21
f 60/21/21 65/33/33 26/34/34
f 61/35/35 48/36/36 12/37/37
f 50/38/38 14/25/25 51/22/22
f 62/3/3 27/39/39 14/25/25
f 29/8/8 70/40/40 64/41/41
f 49/42/42 23/43/43 63/44/44
f 63/44/44 65/33/33 20/32/32
f 30/45/45 18/5/5 48/36/36
f 18/5/5 30/45/45 21/2/2
f 21/2/2 30/45/45 27/39/39
f 64/41/41 31/30/30 65/46/33
f 30/45/45 61/35/35 25/47/46
f 65/46/33 34/16/16 26/48/34
f 26/48/34 35/18/18 24/49/47
f 15/50/48 24/49/47 37/51/49
f 24/49/47 35/18/18 37/51/49
f 10/52/11 24/49/47 15/50/48
f 35/18/18 38/53/50 37/51/49
f 7/54/6 2/55/9 23/56/43
f 1/57/51 6/58/52 42/59/53
f 37/51/49 38/53/50 40/60/54
f 15/50/48 37/51/49 40/60/54
f 38/53/50 43/61/55 32/62/56
f 69/63/57 15/64/48 40/65/54
f 41/66/58 36/28/28 4/67/59
f 4/67/59 36/28/28 69/63/57
f 39/68/60 41/66/58 44/69/61
f 44/69/61 1/70/51 42/71/53
f 33/72/62 4/67/59 1/70/51
f 5/73/63 32/74/56 6/75/52
f 43/61/55 42/71/53 6/76/52
f 5/77/63 40/60/54 32/62/56
f 33/72/62 1/70/51 44/69/61
f 5/73/63 6/75/52 4/67/59
f 67/78/64 44/69/61 42/71/53
f 9/79/65 58/80/66 68/81/67
f 58/80/66 44/69/61 68/81/67
f 68/81/67 44/69/61 67/78/64
f 4/67/59 69/63/57 5/73/63
f 70/40/40 50/38/38 17/29/29
f 48/36/36 49/42/42 63/44/44
f 18/5/5 53/7/7 49/42/42
f 17/29/29 50/38/38 47/82/68
f 17/29/29 47/82/68 13/20/20
f 48/36/36 63/44/44 20/32/32
f 48/36/36 20/32/32 60/21/21
f 12/37/37 48/36/36 46/83/69
f 54/15/15 52/10/10 36/28/28
f 45/84/70 8/24/24 9/79/65
f 8/24/24 58/80/66 9/79/65
f 13/20/20 47/82/68 45/84/70
f 47/82/68 8/24/24 45/84/70
f 57/14/14 12/37/37 46/83/69
f 46/83/69 60/21/21 52/10/10
f 54/15/15 46/83/69 52/10/10
f 69/63/57 52/10/10 16/12/12
f 71/1/1 2/85/9 22/4/4
f 71/1/1 62/3/3 70/40/40
f 74/86/71 75/87/72 73/88/73
f 78/89/74 77/90/75 72/91/76
f 77/92/75 74/86/71 72/93/76
f 74/86/71 78/89/74 75/87/72
f 75/87/72 72/91/76 76/94/77
f 9/79/65 38/53/50 55/17/17 45/84/70
f 53/7/7 7/6/6 23/43/43
f 19/31/31 31/30/30 64/41/41 70/40/40
f 35/18/18 55/17/17 38/53/50
f 16/12/12 10/11/11 15/64/48
f 11/23/23 66/26/26 28/95/78
f 55/17/17 13/20/20 45/84/70
f 34/16/16 59/19/19 55/17/17
f 56/13/13 61/35/35 57/14/14
f 57/14/14 61/35/35 12/37/37
f 51/22/22 14/25/25 11/23/23
f 14/25/25 27/39/39 66/26/26
f 58/80/66 11/23/23 39/68/60
f 11/23/23 28/95/78 39/68/60
f 8/24/24 11/23/23 58/80/66
f 3/27/27 56/13/13 54/15/15
f 31/30/30 19/31/31 59/19/19
f 10/11/11 60/21/21 26/34/34
f 61/35/35 30/45/45 48/36/36
f 50/38/38 62/3/3 14/25/25
f 64/41/41 63/96/44 23/97/43 29/8/8
f 49/42/42 53/7/7 23/43/43
f 18/5/5 22/4/4 53/7/7
f 62/3/3 21/2/2 27/39/39
f 63/96/44 64/41/41 65/46/33
f 27/39/39 30/45/45 25/47/46
f 65/46/33 31/30/30 34/16/16
f 3/27/27 28/95/78 56/13/13
f 39/68/60 28/95/78 3/27/27
f 66/26/26 27/39/39 25/47/46
f 25/47/46 61/35/35 56/13/13
f 26/48/34 34/16/16 35/18/18
f 10/52/11 26/48/34 24/49/47
f 28/95/78 25/47/46 56/13/13
f 66/26/26 25/47/46 28/95/78
f 23/97/43 2/9/9 29/8/8
f 39/68/60 3/27/27 41/66/58
f 40/60/54 38/53/50 32/62/56
f 38/53/50 68/81/67 43/61/55
f 38/53/50 9/79/65 68/81/67
f 43/61/55 68/81/67 67/78/64
f 69/63/57 16/12/12 15/64/48
f 5/73/63 69/63/57 40/65/54
f 41/66/58 3/27/27 36/28/28
f 58/80/66 39/68/60 44/69/61
f 44/69/61 41/66/58 33/72/62
f 33/72/62 41/66/58 4/67/59
f 32/62/56 43/61/55 6/76/52
f 43/61/55 67/78/64 42/71/53
f 7/54/6 22/98/4 2/55/9
f 19/31/31 70/40/40 17/29/29
f 70/40/40 62/3/3 50/38/38
f 48/36/36 18/5/5 49/42/42
f 47/82/68 50/38/38 51/22/22
f 46/83/69 48/36/36 60/21/21
f 36/28/28 52/10/10 69/63/57
f 47/82/68 51/22/22 8/24/24
f 54/15/15 57/14/14 46/83/69
f 1/57/51 4/99/59 6/58/52
f 29/8/8 71/1/1 70/40/40
f 76/100/77 72/93/76 74/86/71
f 75/87/72 78/89/74 72/91/76
f 76/100/77 74/86/71 73/88/73
f 74/86/71 77/92/75 78/89/74
