# Blender v2.92.0 OBJ File: ''
# www.blender.org
o marcopuerta_Mesh
v -0.213588 0.000000 -1.675783
v -0.278306 0.000000 -1.702590
v -0.305113 0.000000 -1.767307
v -0.305113 4.300113 -1.767306
v -0.278306 4.296015 -1.702589
v -0.213588 4.294318 -1.675782
v 0.305113 0.000000 -1.767307
v 0.278306 0.000000 -1.702590
v 0.213588 0.000000 -1.675783
v 0.213588 4.294318 -1.675782
v 0.278306 4.296015 -1.702589
v 0.305113 4.300113 -1.767306
v -0.213588 4.294318 -2.324218
v -0.278306 4.292422 -2.297411
v -0.305113 4.287844 -2.232693
v -0.305113 0.000000 -2.232694
v -0.278306 0.000000 -2.297412
v -0.213588 0.000000 -2.324219
v 0.305113 4.287844 -2.232693
v 0.278306 4.292422 -2.297411
v 0.213588 4.294318 -2.324218
v 0.213588 0.000000 -2.324219
v 0.278306 0.000000 -2.297412
v 0.305113 0.000000 -2.232694
v -0.213588 -0.000000 2.324217
v -0.278306 -0.000000 2.297410
v -0.305113 -0.000000 2.232693
v -0.305113 4.287843 2.232693
v -0.278306 4.292421 2.297411
v -0.213588 4.294317 2.324218
v 0.305113 -0.000000 2.232693
v 0.278306 -0.000000 2.297410
v 0.213588 -0.000000 2.324217
v 0.213588 4.294317 2.324218
v 0.278306 4.292421 2.297411
v 0.305113 4.287843 2.232693
v -0.213588 4.294317 1.675782
v -0.278306 4.296014 1.702589
v -0.305113 4.300112 1.767306
v -0.305113 -0.000000 1.767306
v -0.278306 -0.000000 1.702588
v -0.213588 -0.000000 1.675781
v 0.305113 4.300112 1.767306
v 0.278306 4.296014 1.702589
v 0.213588 4.294317 1.675782
v 0.213588 -0.000000 1.675781
v 0.278306 -0.000000 1.702588
v 0.305113 -0.000000 1.767306
v 0.305113 4.956604 -1.683836
v 0.278306 4.925992 -1.622490
v 0.213588 4.913311 -1.597080
v 0.305113 5.011228 -2.129840
v 0.278306 5.038468 -2.191335
v 0.213588 5.049752 -2.216807
v -0.213588 5.049752 -2.216807
v -0.278306 5.038468 -2.191335
v -0.305113 5.011228 -2.129840
v -0.305113 4.956604 -1.683836
v -0.278306 4.925992 -1.622490
v -0.213588 4.913311 -1.597080
v 0.305113 5.361671 -1.267384
v 0.278306 5.304195 -1.233656
v 0.213588 5.280387 -1.219685
v 0.305113 5.687735 -1.568350
v 0.278306 5.742764 -1.606782
v 0.213588 5.765557 -1.622701
v -0.213588 5.765557 -1.622701
v -0.278306 5.742764 -1.606782
v -0.305113 5.687735 -1.568350
v -0.305113 5.361671 -1.267384
v -0.278306 5.304195 -1.233656
v -0.213588 5.280387 -1.219685
v 0.305113 5.595386 -0.483569
v 0.278306 5.530669 -0.474126
v 0.213588 5.503861 -0.470214
v 0.305113 6.041978 -0.570955
v 0.278306 6.106696 -0.582107
v 0.213588 6.133502 -0.586726
v -0.213588 6.133502 -0.586726
v -0.278306 6.106696 -0.582107
v -0.305113 6.041978 -0.570955
v -0.305113 5.595386 -0.483569
v -0.278306 5.530669 -0.474126
v -0.213588 5.503861 -0.470214
v 0.305113 5.595386 0.483569
v 0.278306 5.530669 0.474126
v 0.213588 5.503861 0.470214
v 0.305113 6.041978 0.570956
v 0.278306 6.106696 0.582108
v 0.213588 6.133502 0.586727
v -0.213588 6.133502 0.586727
v -0.278306 6.106696 0.582108
v -0.305113 6.041978 0.570956
v -0.305113 5.595386 0.483569
v -0.278306 5.530669 0.474126
v -0.213588 5.503861 0.470214
v 0.305113 5.361671 1.267384
v 0.278306 5.304195 1.233656
v 0.213588 5.280387 1.219686
v 0.305113 5.687734 1.568351
v 0.278306 5.742763 1.606783
v 0.213588 5.765556 1.622702
v -0.213588 5.765556 1.622702
v -0.278306 5.742763 1.606783
v -0.305113 5.687734 1.568351
v -0.305113 5.361671 1.267384
v -0.278306 5.304195 1.233656
v -0.213588 5.280387 1.219686
v 0.305113 4.956604 1.683837
v 0.278306 4.925991 1.622490
v 0.213588 4.913310 1.597080
v 0.305113 5.011227 2.129840
v 0.278306 5.038467 2.191335
v 0.213588 5.049751 2.216807
v -0.213588 5.049751 2.216807
v -0.278306 5.038467 2.191335
v -0.305113 5.011227 2.129840
v -0.305113 4.956604 1.683837
v -0.278306 4.925991 1.622490
v -0.213588 4.913310 1.597080
vt 0.070180 0.947751
vt 0.062623 0.947588
vt 0.069373 0.481835
vt 0.076789 0.482308
vt 0.055066 0.947428
vt 0.061947 0.481338
vt 0.009125 0.946606
vt 0.001592 0.946476
vt 0.008921 0.478607
vt 0.016442 0.478814
vt 0.256266 0.949377
vt 0.248730 0.949357
vt 0.252021 0.484797
vt 0.259512 0.484480
vt 0.126081 0.491232
vt 0.133585 0.491533
vt 0.128562 0.948531
vt 0.120926 0.948402
vt 0.141105 0.491871
vt 0.136208 0.948651
vt 0.187183 0.492330
vt 0.194734 0.492210
vt 0.190450 0.949002
vt 0.182816 0.948964
vt 0.202267 0.492119
vt 0.198077 0.949035
vt 0.387800 0.161864
vt 0.395437 0.161808
vt 0.396121 0.618767
vt 0.388577 0.619007
vt 0.403082 0.161759
vt 0.403684 0.618507
vt 0.449715 0.161863
vt 0.457358 0.161896
vt 0.457526 0.618215
vt 0.449960 0.617986
vt 0.464988 0.161938
vt 0.465076 0.618409
vt 0.338955 0.627510
vt 0.331508 0.627971
vt 0.329487 0.162125
vt 0.337046 0.162032
vt 0.324050 0.628465
vt 0.321934 0.162215
vt 0.278345 0.630476
vt 0.270823 0.630663
vt 0.268456 0.162638
vt 0.275990 0.162580
vt 0.522295 0.626953
vt 0.514810 0.626530
vt 0.515661 0.162092
vt 0.523196 0.162143
vt 0.503046 0.705500
vt 0.461091 0.688124
vt 0.446761 0.687396
vt 0.403352 0.686583
vt 0.388968 0.687262
vt 0.345685 0.703802
vt 0.330031 0.704673
vt 0.282788 0.706619
vt 0.198698 0.422591
vt 0.240568 0.406214
vt 0.141475 0.422005
vt 0.184504 0.423084
vt 0.084513 0.405335
vt 0.127233 0.421432
vt 0.021736 0.405144
vt 0.068906 0.404764
vt 0.199447 0.339853
vt 0.243348 0.336944
vt 0.141259 0.338197
vt 0.185072 0.338982
vt 0.082792 0.337076
vt 0.126822 0.339226
vt 0.021182 0.343602
vt 0.067679 0.339341
vt 0.208208 0.232134
vt 0.257214 0.248342
vt 0.140716 0.229955
vt 0.191834 0.228525
vt 0.074778 0.247715
vt 0.124230 0.233225
vt 0.014582 0.256606
vt 0.059977 0.251945
vt 0.514889 0.973909
vt 0.466415 0.988569
vt 0.461410 0.871177
vt 0.508726 0.868819
vt 0.450397 0.991118
vt 0.400790 0.991912
vt 0.401112 0.871229
vt 0.446533 0.871950
vt 0.384650 0.989020
vt 0.334166 0.974109
vt 0.340040 0.866791
vt 0.386291 0.870193
vt 0.319025 0.970596
vt 0.273337 0.965942
vt 0.279474 0.861555
vt 0.325157 0.865142
vt 0.460513 0.769193
vt 0.504543 0.775389
vt 0.401871 0.768321
vt 0.446024 0.769365
vt 0.343553 0.772645
vt 0.387390 0.767805
vt 0.282912 0.769896
vt 0.328736 0.771527
vt 0.076718 0.405053
vt 0.134364 0.421760
vt 0.191578 0.422880
vt 0.510661 0.706205
vt 0.275217 0.706804
vt 0.014166 0.405090
vt 0.248199 0.405801
vt 0.192277 0.339371
vt 0.134027 0.338672
vt 0.075272 0.338242
vt 0.013683 0.343985
vt 0.250773 0.338050
vt 0.200088 0.229951
vt 0.132425 0.231207
vt 0.067374 0.250172
vt 0.007080 0.256692
vt 0.264441 0.251065
vt 0.458446 0.990214
vt 0.453982 0.871601
vt 0.392700 0.990844
vt 0.393683 0.870747
vt 0.326582 0.972019
vt 0.332619 0.865948
vt 0.265812 0.965883
vt 0.271967 0.861161
vt 0.522346 0.972098
vt 0.516193 0.868140
vt 0.453284 0.769295
vt 0.394598 0.768086
vt 0.336182 0.772076
vt 0.275406 0.769741
vt 0.512000 0.775101
vt 0.453918 0.687705
vt 0.396184 0.686873
vt 0.337866 0.704248
vn -0.9987 -0.0001 0.0506
vn -0.9239 -0.0000 0.3827
vn -0.9240 -0.0063 0.3823
vn -0.9988 -0.0008 0.0486
vn -0.3827 -0.0000 0.9239
vn -0.0544 -0.0000 0.9985
vn -0.0553 -0.0160 0.9983
vn -0.3830 -0.0149 0.9236
vn 0.0544 -0.0000 0.9985
vn 0.3827 -0.0000 0.9239
vn 0.3830 -0.0149 0.9236
vn 0.0553 -0.0160 0.9983
vn 0.9239 -0.0000 0.3827
vn 0.9987 -0.0000 0.0506
vn 0.9988 -0.0008 0.0486
vn 0.9240 -0.0063 0.3823
vn -0.9986 0.0011 -0.0528
vn -0.9240 0.0079 -0.3822
vn -0.9239 0.0000 -0.3827
vn -0.9987 0.0000 -0.0504
vn -0.3831 0.0196 -0.9235
vn -0.0536 0.0212 -0.9983
vn -0.0544 -0.0001 -0.9985
vn -0.3827 0.0000 -0.9239
vn 0.0536 0.0212 -0.9983
vn 0.3831 0.0196 -0.9235
vn 0.3827 0.0000 -0.9239
vn 0.0544 0.0000 -0.9985
vn 0.9240 0.0079 -0.3822
vn 0.9986 0.0011 -0.0528
vn 0.9987 0.0001 -0.0504
vn 0.9239 0.0000 -0.3827
vn -0.9987 -0.0001 0.0504
vn -0.9240 0.0079 0.3822
vn -0.9986 0.0011 0.0528
vn -0.0536 0.0212 0.9983
vn -0.3831 0.0196 0.9235
vn 0.0544 -0.0001 0.9985
vn 0.3831 0.0196 0.9235
vn 0.0536 0.0212 0.9983
vn 0.9987 -0.0000 0.0504
vn 0.9986 0.0011 0.0528
vn 0.9240 0.0079 0.3822
vn -0.9988 -0.0008 -0.0486
vn -0.9240 -0.0063 -0.3823
vn -0.9987 0.0000 -0.0506
vn -0.3830 -0.0149 -0.9236
vn -0.0553 -0.0160 -0.9983
vn -0.0544 0.0001 -0.9985
vn 0.0553 -0.0160 -0.9983
vn 0.3830 -0.0149 -0.9236
vn 0.9240 -0.0063 -0.3823
vn 0.9988 -0.0008 -0.0486
vn 0.9987 0.0001 -0.0506
vn 0.9995 -0.0130 -0.0278
vn 0.9970 0.0333 0.0701
vn 0.0528 0.4298 0.9014
vn -0.0528 0.4298 0.9014
vn -0.9970 0.0333 0.0701
vn -0.9995 -0.0130 -0.0278
vn -0.0624 -0.4191 -0.9058
vn 0.0624 -0.4191 -0.9058
vn 0.9970 0.0333 -0.0701
vn 0.9995 -0.0130 0.0278
vn -0.0528 0.4298 -0.9014
vn 0.0528 0.4298 -0.9014
vn -0.9995 -0.0130 0.0278
vn -0.9970 0.0333 -0.0701
vn 0.0624 -0.4191 0.9058
vn -0.0624 -0.4191 0.9058
vn 0.9966 0.0685 -0.0454
vn 0.9994 -0.0302 0.0160
vn -0.0528 0.8316 -0.5528
vn 0.0528 0.8316 -0.5528
vn -0.9994 -0.0302 0.0160
vn -0.9966 0.0685 -0.0454
vn 0.0594 -0.8841 0.4635
vn -0.0594 -0.8841 0.4635
vn 0.9976 0.0681 -0.0113
vn 0.9992 -0.0400 0.0053
vn -0.0530 0.9850 -0.1640
vn 0.0530 0.9850 -0.1640
vn -0.9992 -0.0400 0.0053
vn -0.9976 0.0681 -0.0113
vn 0.0569 -0.9898 0.1309
vn -0.0569 -0.9898 0.1309
vn 0.9976 0.0681 0.0113
vn 0.9992 -0.0400 -0.0053
vn -0.0530 0.9850 0.1640
vn 0.0530 0.9850 0.1640
vn -0.9992 -0.0400 -0.0053
vn -0.9976 0.0681 0.0113
vn 0.0569 -0.9898 -0.1309
vn -0.0569 -0.9898 -0.1309
vn 0.9966 0.0685 0.0454
vn 0.9994 -0.0302 -0.0160
vn -0.0528 0.8316 0.5528
vn 0.0528 0.8316 0.5528
vn -0.9994 -0.0302 -0.0160
vn -0.9966 0.0685 0.0454
vn 0.0594 -0.8841 -0.4635
vn -0.0594 -0.8841 -0.4635
vn -0.9313 -0.1545 0.3299
vn -0.4017 -0.3854 0.8308
vn -0.3953 0.3951 -0.8292
vn -0.9289 0.1590 -0.3345
vn 0.9289 0.1590 -0.3345
vn 0.3953 0.3951 -0.8292
vn 0.9313 -0.1545 -0.3299
vn 0.4017 -0.3854 -0.8308
vn 0.4017 -0.3854 0.8308
vn 0.9313 -0.1545 0.3299
vn 0.9286 0.3093 -0.2049
vn 0.3946 0.7654 -0.5084
vn -0.3946 0.7654 -0.5084
vn -0.9286 0.3093 -0.2049
vn -0.9276 -0.3301 0.1748
vn -0.3920 -0.8144 0.4278
vn 0.3920 -0.8144 0.4278
vn 0.9276 -0.3301 0.1748
vn 0.9258 0.3728 -0.0618
vn 0.3875 0.9094 -0.1514
vn -0.3875 0.9094 -0.1514
vn -0.9258 0.3728 -0.0618
vn -0.9253 -0.3760 0.0500
vn -0.3861 -0.9145 0.1211
vn 0.3861 -0.9145 0.1211
vn 0.9253 -0.3760 0.0500
vn 0.9258 0.3728 0.0618
vn 0.3875 0.9094 0.1513
vn -0.3875 0.9094 0.1513
vn -0.9258 0.3728 0.0618
vn -0.9253 -0.3760 -0.0500
vn -0.3861 -0.9145 -0.1211
vn 0.3861 -0.9145 -0.1211
vn 0.9253 -0.3760 -0.0500
vn 0.9286 0.3093 0.2049
vn 0.3946 0.7654 0.5084
vn -0.3946 0.7654 0.5084
vn -0.9286 0.3093 0.2049
vn -0.9276 -0.3301 -0.1748
vn -0.3920 -0.8144 -0.4278
vn 0.3920 -0.8144 -0.4278
vn 0.9276 -0.3301 -0.1748
vn 0.9289 0.1590 0.3345
vn 0.3953 0.3951 0.8292
vn -0.3953 0.3951 0.8292
vn -0.9289 0.1590 0.3345
vn -0.9313 -0.1545 -0.3299
vn -0.4017 -0.3854 -0.8308
s 1
f 3/1/1 2/2/2 5/3/3 4/4/4
f 2/2/5 1/5/6 6/6/7 5/3/8
f 9/7/9 8/8/10 11/9/11 10/10/12
f 8/11/13 7/12/14 12/13/15 11/14/16
f 15/15/17 14/16/18 17/17/19 16/18/20
f 14/16/21 13/19/22 18/20/23 17/17/24
f 21/21/25 20/22/26 23/23/27 22/24/28
f 20/22/29 19/25/30 24/26/31 23/23/32
f 27/27/33 26/28/2 29/29/34 28/30/35
f 26/28/5 25/31/6 30/32/36 29/29/37
f 33/33/38 32/34/10 35/35/39 34/36/40
f 32/34/13 31/37/41 36/38/42 35/35/43
f 39/39/44 38/40/45 41/41/19 40/42/46
f 38/40/47 37/43/48 42/44/49 41/41/24
f 45/45/50 44/46/51 47/47/27 46/48/28
f 44/49/52 43/50/53 48/51/54 47/52/32
f 6/6/7 1/5/6 9/7/9 10/10/12
f 13/19/22 21/21/25 22/24/28 18/20/23
f 12/13/15 7/12/14 24/26/31 19/25/30
f 15/15/17 16/18/20 3/1/1 4/4/4
f 30/32/36 25/31/6 33/33/38 34/36/40
f 37/43/48 45/45/50 46/48/28 42/44/49
f 36/38/42 31/37/41 48/51/54 43/50/53
f 39/39/44 40/42/46 27/27/33 28/30/35
f 109/53/55 112/54/56 36/38/42 43/50/53
f 114/55/57 115/56/58 30/32/36 34/36/40
f 117/57/59 118/58/60 39/39/44 28/30/35
f 120/59/61 111/60/62 45/45/50 37/43/48
f 12/13/15 19/25/30 52/61/63 49/62/64
f 21/21/25 13/19/22 55/63/65 54/64/66
f 15/15/17 4/4/4 58/65/67 57/66/68
f 6/6/7 10/10/12 51/67/69 60/68/70
f 49/62/64 52/61/63 64/69/71 61/70/72
f 54/64/66 55/63/65 67/71/73 66/72/74
f 57/66/68 58/65/67 70/73/75 69/74/76
f 60/68/70 51/67/69 63/75/77 72/76/78
f 61/70/72 64/69/71 76/77/79 73/78/80
f 66/72/74 67/71/73 79/79/81 78/80/82
f 69/74/76 70/73/75 82/81/83 81/82/84
f 72/76/78 63/75/77 75/83/85 84/84/86
f 73/85/80 76/86/79 88/87/87 85/88/88
f 78/89/82 79/90/81 91/91/89 90/92/90
f 81/93/84 82/94/83 94/95/91 93/96/92
f 84/97/86 75/98/85 87/99/93 96/100/94
f 85/88/88 88/87/87 100/101/95 97/102/96
f 90/92/90 91/91/89 103/103/97 102/104/98
f 93/96/92 94/95/91 106/105/99 105/106/100
f 96/100/94 87/99/93 99/107/101 108/108/102
f 97/102/96 100/101/95 112/54/56 109/53/55
f 102/104/98 103/103/97 115/56/58 114/55/57
f 105/106/100 106/105/99 118/58/60 117/57/59
f 108/108/102 99/107/101 111/60/62 120/59/61
f 4/4/4 5/3/3 59/109/103 58/65/67
f 5/3/8 6/6/7 60/68/70 59/109/104
f 13/19/22 14/16/21 56/110/105 55/63/65
f 14/16/18 15/15/17 57/66/68 56/110/106
f 19/25/30 20/22/29 53/111/107 52/61/63
f 20/22/26 21/21/25 54/64/66 53/111/108
f 43/50/53 44/49/52 110/112/109 109/53/55
f 44/46/51 45/45/50 111/60/62 110/113/110
f 10/10/12 11/9/11 50/114/111 51/67/69
f 11/14/16 12/13/15 49/62/64 50/115/112
f 52/61/63 53/111/107 65/116/113 64/69/71
f 53/111/108 54/64/66 66/72/74 65/116/114
f 55/63/65 56/110/105 68/117/115 67/71/73
f 56/110/106 57/66/68 69/74/76 68/117/116
f 58/65/67 59/109/103 71/118/117 70/73/75
f 59/109/104 60/68/70 72/76/78 71/118/118
f 51/67/69 50/114/111 62/119/119 63/75/77
f 50/115/112 49/62/64 61/70/72 62/120/120
f 64/69/71 65/116/113 77/121/121 76/77/79
f 65/116/114 66/72/74 78/80/82 77/121/122
f 67/71/73 68/117/115 80/122/123 79/79/81
f 68/117/116 69/74/76 81/82/84 80/122/124
f 70/73/75 71/118/117 83/123/125 82/81/83
f 71/118/118 72/76/78 84/84/86 83/123/126
f 63/75/77 62/119/119 74/124/127 75/83/85
f 62/120/120 61/70/72 73/78/80 74/125/128
f 76/86/79 77/126/121 89/127/129 88/87/87
f 77/126/122 78/89/82 90/92/90 89/127/130
f 79/90/81 80/128/123 92/129/131 91/91/89
f 80/128/124 81/93/84 93/96/92 92/129/132
f 82/94/83 83/130/125 95/131/133 94/95/91
f 83/130/126 84/97/86 96/100/94 95/131/134
f 75/98/85 74/132/127 86/133/135 87/99/93
f 74/134/128 73/85/80 85/88/88 86/135/136
f 88/87/87 89/127/129 101/136/137 100/101/95
f 89/127/130 90/92/90 102/104/98 101/136/138
f 91/91/89 92/129/131 104/137/139 103/103/97
f 92/129/132 93/96/92 105/106/100 104/137/140
f 94/95/91 95/131/133 107/138/141 106/105/99
f 95/131/134 96/100/94 108/108/102 107/138/142
f 87/99/93 86/133/135 98/139/143 99/107/101
f 86/135/136 85/88/88 97/102/96 98/140/144
f 100/101/95 101/136/137 113/141/145 112/54/56
f 101/136/138 102/104/98 114/55/57 113/141/146
f 103/103/97 104/137/139 116/142/147 115/56/58
f 104/137/140 105/106/100 117/57/59 116/142/148
f 106/105/99 107/138/141 119/143/149 118/58/60
f 107/138/142 108/108/102 120/59/61 119/143/150
f 99/107/101 98/139/143 110/113/110 111/60/62
f 98/140/144 97/102/96 109/53/55 110/112/109
f 34/36/40 35/35/39 113/141/146 114/55/57
f 35/35/43 36/38/42 112/54/56 113/141/145
f 28/30/35 29/29/34 116/142/148 117/57/59
f 29/29/37 30/32/36 115/56/58 116/142/147
f 37/43/48 38/40/47 119/143/150 120/59/61
f 38/40/45 39/39/44 118/58/60 119/143/149
