# Blender v2.92.0 OBJ File: 'fruit.blend'
# www.blender.org
o Pumpkin_Cube.006
v 0.005545 0.198558 -0.001784
v 0.024879 0.247691 0.012275
v -0.065535 0.023286 -0.050037
v 0.061752 0.050402 -0.079012
v 0.078511 0.039961 0.056672
v 0.000857 0.199606 0.016182
v -0.007233 0.221144 0.005684
v -0.037805 0.186929 0.052590
v -0.052296 0.195224 -0.003477
v -0.047464 0.001061 -0.020538
v -0.017054 0.002740 -0.049131
v -0.004964 0.196734 -0.003382
v 0.027032 0.007404 -0.058186
v 0.042724 0.001075 -0.012078
v 0.012204 0.195063 0.013970
v 0.042310 0.005643 0.034007
v -0.013569 0.195765 0.026628
v 0.025569 0.244829 0.020910
v 0.036196 0.237920 0.012323
v 0.021220 0.233827 0.024578
v 0.033122 0.240003 0.006441
v -0.017883 0.198484 -0.000418
v 0.018253 0.235967 0.009306
v -0.004845 0.202602 0.002793
v 0.004013 0.232509 0.021254
v 0.000700 0.229853 0.013080
v 0.006786 0.211549 0.007572
v -0.061904 0.064486 0.081911
v -0.077210 0.155772 -0.050295
v 0.055446 0.165039 -0.064435
v 0.069055 0.153151 0.063569
v 0.012248 0.077749 0.105555
v 0.103653 0.089464 0.029633
v -0.011157 0.105569 -0.102017
v 0.028771 0.118119 -0.099500
v -0.106204 0.093676 -0.025272
v -0.082198 0.108214 -0.060959
v -0.079195 0.062496 -0.059559
v 0.068167 0.114159 -0.081643
v 0.081253 0.109292 0.069559
v -0.028396 0.001908 0.044200
v -0.037482 0.020905 0.070830
v -0.085958 0.027620 -0.023192
v -0.011295 0.050697 -0.094685
v 0.019135 0.025305 -0.082437
v 0.091872 0.039450 0.023836
v 0.013263 0.038117 0.089924
v -0.066141 0.114640 0.088006
v 0.037275 0.189100 -0.041384
v 0.042853 0.190297 0.042530
v 0.003849 0.159084 0.092258
v -0.028037 0.149511 0.094655
v 0.084240 0.162999 -0.003269
v 0.093911 0.136987 0.031924
v -0.014415 0.154304 -0.087318
v -0.092110 0.137331 0.054290
v -0.096876 0.151014 0.016875
v -0.101163 0.141178 -0.019129
v 0.002293 0.205836 0.002882
v -0.011521 0.202879 0.022941
v -0.012195 0.220518 0.014167
v 0.001500 0.211864 0.019365
v -0.057793 0.161825 0.073492
v -0.009962 0.202276 -0.033939
v 0.056611 0.188276 -0.006646
v -0.045612 0.189648 -0.049197
v -0.071682 0.177077 0.044099
v 0.031436 0.197572 -0.002024
v 0.005985 0.196592 0.041520
v 0.032757 0.236210 0.016556
v 0.050782 0.050223 0.083321
v -0.025102 0.064268 0.100314
v 0.085021 0.046971 -0.047446
v 0.099471 0.053013 -0.011644
v -0.048540 0.060514 -0.086185
v 0.027093 0.059424 -0.097785
v -0.071714 0.021039 0.040687
v -0.099869 0.056963 0.011223
v -0.022287 0.021073 -0.076570
v 0.067547 0.014788 -0.026058
v 0.070110 0.015199 0.017357
v 0.024841 0.014790 0.066822
v 0.048622 0.125247 0.095242
v 0.009121 0.124150 0.105858
v -0.029663 0.108347 0.105226
v 0.092289 0.121289 -0.046700
v 0.102142 0.118380 -0.008554
v -0.050782 0.125713 -0.088321
v -0.094943 0.086307 0.055570
v -0.106463 0.111629 0.018072
v -0.023670 0.195410 0.014177
v 0.031674 0.171688 0.075715
v -0.013874 0.176665 0.077572
v 0.071459 0.169455 -0.031240
v 0.069382 0.176523 0.027747
v -0.047695 0.170398 -0.070142
v -0.012892 0.184995 -0.067901
v 0.017637 0.178635 -0.070483
v -0.083032 0.175683 -0.012429
vt 0.298087 0.464338
vt 0.384094 0.418456
vt 0.419950 0.515552
vt 0.294491 0.329680
vt 0.390926 0.334071
vt 0.227936 0.384814
vt 0.188842 0.360460
vt 0.184272 0.309140
vt 0.199464 0.659576
vt 0.261584 0.631392
vt 0.276341 0.705714
vt 0.355127 0.595074
vt 0.395721 0.663957
vt 0.341283 0.757713
vt 0.455172 0.562569
vt 0.143355 0.198929
vt 0.011679 0.091858
vt 0.204895 0.089991
vt 0.191509 0.013942
vt 0.152758 0.610786
vt 0.045484 0.603000
vt 0.012790 0.573385
vt 0.164605 0.906805
vt 0.094158 0.821610
vt 0.142441 0.819673
vt 0.099948 0.946120
vt 0.072275 0.870741
vt 0.221352 0.870592
vt 0.029399 0.921516
vt 0.113575 0.506590
vt 0.126442 0.481362
vt 0.189128 0.482820
vt 0.029871 0.482386
vt 0.170974 0.456499
vt 0.058219 0.533804
vt 0.031599 0.513528
vt 0.047567 0.460894
vt 0.203969 0.404864
vt 0.183488 0.550679
vt 0.257526 0.518100
vt 0.034546 0.553334
vt 0.233702 0.592979
vt 0.623016 0.599899
vt 0.643031 0.555934
vt 0.690978 0.600668
vt 0.572232 0.692714
vt 0.671563 0.646332
vt 0.692703 0.695815
vt 0.550903 0.640022
vt 0.521544 0.876910
vt 0.687821 0.809246
vt 0.725678 0.875825
vt 0.542264 0.806370
vt 0.605361 0.751389
vt 0.704239 0.749548
vt 0.539241 0.202353
vt 0.642889 0.115113
vt 0.668979 0.193255
vt 0.481424 0.136067
vt 0.643630 0.316475
vt 0.646326 0.258081
vt 0.729569 0.318755
vt 0.562874 0.323352
vt 0.677269 0.013114
vt 0.757385 0.130702
vt 0.608252 0.464077
vt 0.654990 0.417895
vt 0.726167 0.457986
vt 0.642552 0.509822
vt 0.721087 0.528438
vt 0.569273 0.509385
vt 0.569642 0.421831
vt 0.593202 0.373692
vt 0.710930 0.370525
vt 0.807915 0.517209
vt 0.829542 0.357170
vt 0.748878 0.224470
vt 0.870599 0.117583
vt 0.990125 0.171760
vt 0.875236 0.245848
vt 0.938051 0.861591
vt 0.815860 0.820455
vt 0.893159 0.767682
vt 0.775854 0.739208
vt 0.815264 0.677357
vt 0.749614 0.623813
vt 0.495639 0.681203
vt 0.495689 0.589719
vt 0.516061 0.550403
vt 0.554195 0.595572
vt 0.578236 0.553937
vt 0.437355 0.778427
vt 0.515503 0.739835
vt 0.335629 0.917457
vt 0.522665 0.982980
vt 0.379863 0.829258
vt 0.518721 0.272777
vt 0.432191 0.234420
vt 0.481380 0.341302
vt 0.434209 0.300082
vt 0.322951 0.215241
vt 0.277593 0.122816
vt 0.441619 0.036110
vt 0.535846 0.466715
vt 0.509448 0.428215
vt 0.520284 0.382996
vt 0.495653 0.508914
vt 0.169789 0.638715
vt 0.267710 0.426046
vt 0.301449 0.527948
vt 0.171339 0.395634
vt 0.464031 0.627557
vt 0.425968 0.714530
vt 0.362900 0.271220
vt 0.203870 0.216778
vt 0.465308 0.465316
vt 0.457716 0.395033
vt 0.017742 0.450688
vt 0.237849 0.827864
vt 0.205678 0.764454
vt 0.755632 0.969470
vn -0.4275 0.8833 0.1926
vn -0.3449 0.9383 0.0271
vn -0.2455 0.8850 0.3957
vn 0.0025 0.9819 -0.1896
vn -0.4027 0.8179 -0.4110
vn -0.0037 0.9596 -0.2813
vn 0.2357 0.7701 -0.5928
vn 0.1950 0.9808 -0.0061
vn 0.0363 0.9979 0.0527
vn 0.0202 0.9651 0.2612
vn 0.3659 0.8655 0.3420
vn 0.5030 0.8592 -0.0939
vn -0.0911 0.7541 0.6504
vn 0.2403 -0.9692 -0.0532
vn -0.1604 -0.9428 0.2921
vn -0.1115 -0.9380 -0.3282
vn -0.3039 -0.9458 -0.1146
vn 0.8174 -0.5657 -0.1087
vn 0.5636 0.2558 -0.7855
vn 0.9990 -0.0348 0.0267
vn -0.0319 0.9625 -0.2694
vn 0.1736 0.7119 0.6805
vn 0.7427 -0.3091 0.5940
vn -0.1219 0.2881 -0.9498
vn 0.2618 -0.1140 0.9584
vn -0.4885 0.6540 0.5776
vn -0.5757 0.8038 -0.1498
vn -0.8144 0.5607 0.1493
vn -0.4283 0.5003 -0.7525
vn -0.0715 0.4829 -0.8728
vn 0.4662 -0.4595 0.7560
vn -0.2119 0.3078 0.9275
vn 0.7097 0.4511 0.5412
vn 0.1582 -0.1768 0.9714
vn -0.2370 -0.3120 0.9201
vn 0.1046 -0.5345 0.8387
vn 0.7643 0.0619 0.6418
vn 0.4674 -0.3616 0.8067
vn 0.6881 -0.4773 0.5465
vn 0.4646 0.1905 0.8648
vn 0.8843 0.1941 -0.4246
vn 0.9351 -0.3261 -0.1389
vn 0.8014 -0.3908 -0.4528
vn 0.9777 0.1810 -0.1062
vn 0.9666 -0.0353 0.2540
vn 0.8536 -0.4895 0.1780
vn -0.1321 0.0629 -0.9892
vn 0.2123 -0.2311 -0.9495
vn -0.1469 -0.3128 -0.9384
vn 0.2398 0.1968 -0.9506
vn -0.7491 -0.2327 -0.6202
vn -0.4763 -0.2450 -0.8444
vn -0.5666 -0.6346 -0.5255
vn -0.7591 0.0662 -0.6476
vn 0.5913 -0.3595 -0.7219
vn 0.1594 -0.6327 -0.7578
vn -0.8584 -0.1589 0.4877
vn -0.9349 -0.3351 0.1169
vn -0.6504 -0.6734 0.3513
vn -0.5721 -0.3114 0.7587
vn -0.3077 -0.6697 0.6759
vn -0.5793 0.0896 0.8101
vn -0.9889 0.0549 0.1379
vn -0.9553 -0.0545 -0.2905
vn -0.7857 -0.5862 -0.1975
vn -0.2354 -0.6641 -0.7096
vn 0.2483 -0.8616 -0.4427
vn 0.5987 -0.7634 -0.2425
vn 0.5930 -0.7938 0.1351
vn 0.2909 -0.9187 0.2671
vn 0.2071 -0.7946 0.5707
vn 0.6684 0.4845 0.5644
vn 0.0848 0.5211 0.8493
vn -0.2438 0.4172 0.8755
vn 0.0997 0.1920 0.9763
vn -0.2569 0.0432 0.9655
vn 0.8271 0.5583 -0.0642
vn 0.8998 0.3462 0.2654
vn 0.5354 0.5809 -0.6131
vn 0.6360 0.1350 -0.7598
vn 0.7077 0.6353 -0.3092
vn -0.4775 0.1755 -0.8609
vn -0.0805 0.4181 -0.9048
vn -0.7350 0.4086 -0.5412
vn -0.4415 0.5365 -0.7192
vn 0.2054 0.6861 -0.6979
vn -0.8311 0.2847 0.4777
vn -0.8974 0.4196 0.1364
vn -0.9221 0.2993 -0.2453
vn -0.4772 0.5425 0.6914
vn -0.0234 0.4509 -0.8923
vn -0.2514 0.9493 -0.1887
vn -0.1852 0.9102 0.3705
vn 0.3060 0.6717 0.6747
vn 0.6777 0.7008 0.2226
vn -0.0423 0.7466 -0.6639
vn 0.3570 0.8695 -0.3414
vn -0.5882 0.7267 0.3548
vn -0.7200 0.6806 -0.1353
s 1
f 91/1/1 9/2/2 8/3/3
f 9/2/2 64/4/4 66/5/5
f 12/6/6 1/7/7 68/8/8
f 12/6/6 68/8/8 64/4/4
f 1/9/7 15/10/9 68/11/8
f 68/11/8 15/10/9 69/12/10
f 68/11/8 50/13/11 65/14/12
f 69/12/10 8/3/3 93/15/13
f 14/16/14 41/17/15 11/18/16
f 11/18/16 41/17/15 10/19/17
f 27/20/18 21/21/19 19/22/20
f 2/23/21 19/24/20 21/25/19
f 19/24/20 18/26/22 70/27/23
f 23/28/24 2/23/21 21/25/19
f 18/26/22 20/29/25 70/27/23
f 25/30/26 26/31/27 61/32/28
f 26/31/27 2/33/21 7/34/29
f 20/35/25 18/36/22 25/30/26
f 7/34/29 23/37/24 24/38/30
f 62/39/31 20/35/25 60/40/32
f 61/32/28 26/31/27 7/34/29
f 27/20/18 70/41/23 6/42/33
f 32/43/34 72/44/35 47/45/36
f 40/46/37 71/47/38 5/48/39
f 83/49/40 32/43/34 71/47/38
f 86/50/41 74/51/42 73/52/43
f 87/53/44 33/54/45 74/51/42
f 33/54/45 5/48/39 46/55/46
f 34/56/47 76/57/48 44/58/49
f 34/56/47 35/59/50 76/57/48
f 38/60/51 75/61/52 3/62/53
f 37/63/54 75/61/52 38/60/51
f 76/57/48 4/64/55 45/65/56
f 89/66/57 78/67/58 77/68/59
f 28/69/60 77/68/59 42/70/61
f 48/71/62 89/66/57 28/69/60
f 90/72/63 36/73/64 78/67/58
f 36/73/64 38/60/51 43/74/65
f 41/75/15 77/68/59 10/76/17
f 42/70/61 77/68/59 41/75/15
f 78/67/58 43/74/65 77/68/59
f 44/58/49 45/65/56 79/77/66
f 13/78/67 14/79/14 11/80/16
f 13/81/67 80/82/68 14/83/14
f 46/55/46 5/48/39 81/84/69
f 81/84/69 16/85/70 14/83/14
f 14/83/14 16/85/70 41/75/15
f 5/48/39 71/47/38 82/86/71
f 47/45/36 42/70/61 82/86/71
f 31/87/72 83/49/40 40/46/37
f 51/88/73 52/89/74 84/90/75
f 52/89/74 48/71/62 85/91/76
f 84/90/75 85/91/76 32/43/34
f 53/92/77 54/93/78 87/53/44
f 30/94/79 86/50/41 39/95/80
f 94/96/81 53/92/77 86/50/41
f 54/93/78 40/46/37 33/54/45
f 88/97/82 55/98/83 34/56/47
f 29/99/84 96/100/85 88/97/82
f 55/98/83 98/101/86 35/59/50
f 35/59/50 30/102/79 39/103/80
f 56/104/87 90/72/63 89/66/57
f 57/105/88 58/106/89 90/72/63
f 63/107/90 56/104/87 48/71/62
f 1/9/7 27/20/18 6/42/33
f 15/10/9 1/9/7 6/42/33
f 1/9/7 59/108/91 27/20/18
f 91/1/1 7/34/29 22/109/92
f 60/40/32 61/32/28 91/1/1
f 15/10/9 60/40/32 17/110/93
f 6/42/33 62/39/31 60/40/32
f 12/6/6 22/109/92 24/38/30
f 12/6/6 59/111/91 1/7/7
f 50/13/11 92/112/94 31/87/72
f 69/12/10 93/15/13 92/112/94
f 93/15/13 63/107/90 52/89/74
f 92/112/94 51/88/73 83/49/40
f 65/14/12 53/92/77 94/96/81
f 65/14/12 95/113/95 53/92/77
f 95/113/95 31/87/72 54/93/78
f 66/5/5 97/114/96 96/100/85
f 64/4/4 98/101/86 97/114/96
f 98/101/86 49/115/97 30/102/79
f 96/100/85 97/114/96 55/98/83
f 63/107/90 67/116/98 56/104/87
f 8/3/3 67/116/98 63/107/90
f 9/2/2 66/5/5 99/117/99
f 99/117/99 29/99/84 58/106/89
f 57/105/88 99/117/99 58/106/89
f 67/116/98 57/105/88 56/104/87
f 8/3/3 9/2/2 67/116/98
f 9/2/2 91/1/1 22/109/92
f 9/2/2 22/109/92 64/4/4
f 22/109/92 12/6/6 64/4/4
f 23/37/24 21/118/19 59/111/91 24/38/30
f 68/11/8 69/12/10 50/13/11
f 69/12/10 17/110/93 8/3/3
f 8/3/3 17/110/93 91/1/1
f 27/20/18 19/22/20 70/41/23
f 27/20/18 59/108/91 21/21/19
f 68/11/8 65/14/12 49/119/97 64/120/4
f 19/24/20 2/23/21 18/26/22
f 26/31/27 25/30/26 18/36/22
f 26/31/27 18/36/22 2/33/21
f 62/39/31 70/41/23 20/35/25
f 28/69/60 72/44/35 85/91/76 48/71/62
f 23/37/24 7/34/29 2/33/21
f 6/42/33 70/41/23 62/39/31
f 60/40/32 20/35/25 25/30/26
f 60/40/32 25/30/26 61/32/28
f 71/47/38 32/43/34 47/45/36
f 40/46/37 83/49/40 71/47/38
f 32/43/34 85/91/76 72/44/35
f 73/52/43 4/121/55 39/95/80 86/50/41
f 72/44/35 28/69/60 42/70/61
f 47/45/36 72/44/35 42/70/61
f 74/51/42 33/54/45 46/55/46
f 4/64/55 76/57/48 35/59/50 39/103/80
f 86/50/41 87/53/44 74/51/42
f 33/54/45 40/46/37 5/48/39
f 75/61/52 34/56/47 44/58/49
f 37/63/54 88/97/82 75/61/52
f 75/61/52 88/97/82 34/56/47
f 13/78/67 11/80/16 79/77/66 45/65/56
f 44/58/49 76/57/48 45/65/56
f 78/67/58 36/73/64 43/74/65
f 28/69/60 89/66/57 77/68/59
f 89/66/57 90/72/63 78/67/58
f 36/73/64 37/63/54 38/60/51
f 43/74/65 38/60/51 3/62/53
f 77/68/59 43/74/65 10/76/17
f 43/74/65 3/62/53 10/76/17
f 80/82/68 13/81/67 4/121/55 73/52/43
f 3/62/53 11/80/16 10/76/17
f 3/62/53 79/77/66 11/80/16
f 3/62/53 75/61/52 79/77/66
f 75/61/52 44/58/49 79/77/66
f 45/65/56 4/64/55 13/78/67
f 80/82/68 81/84/69 14/83/14
f 81/84/69 80/82/68 74/51/42 46/55/46
f 73/52/43 74/51/42 80/82/68
f 37/63/54 36/73/64 58/106/89 29/99/84
f 81/84/69 5/48/39 16/85/70
f 16/85/70 82/86/71 41/75/15
f 82/86/71 42/70/61 41/75/15
f 16/85/70 5/48/39 82/86/71
f 71/47/38 47/45/36 82/86/71
f 84/90/75 52/89/74 85/91/76
f 83/49/40 51/88/73 84/90/75
f 52/89/74 63/107/90 48/71/62
f 83/49/40 84/90/75 32/43/34
f 86/50/41 53/92/77 87/53/44
f 87/53/44 54/93/78 33/54/45
f 30/94/79 94/96/81 86/50/41
f 54/93/78 31/87/72 40/46/37
f 34/56/47 55/98/83 35/59/50
f 37/63/54 29/99/84 88/97/82
f 88/97/82 96/100/85 55/98/83
f 35/59/50 98/101/86 30/102/79
f 56/104/87 57/105/88 90/72/63
f 90/72/63 58/106/89 36/73/64
f 48/71/62 56/104/87 89/66/57
f 94/96/81 30/94/79 49/119/97 65/14/12
f 17/110/93 60/40/32 91/1/1
f 91/1/1 61/32/28 7/34/29
f 15/10/9 6/42/33 60/40/32
f 69/12/10 15/10/9 17/110/93
f 22/109/92 7/34/29 24/38/30
f 12/6/6 24/38/30 59/111/91
f 92/112/94 93/15/13 51/88/73
f 51/88/73 93/15/13 52/89/74
f 31/87/72 92/112/94 83/49/40
f 50/13/11 69/12/10 92/112/94
f 93/15/13 8/3/3 63/107/90
f 65/14/12 50/13/11 95/113/95
f 95/113/95 50/13/11 31/87/72
f 53/92/77 95/113/95 54/93/78
f 29/99/84 66/5/5 96/100/85
f 66/5/5 64/4/4 97/114/96
f 98/101/86 64/4/4 49/115/97
f 55/98/83 97/114/96 98/101/86
f 57/105/88 67/116/98 99/117/99
f 67/116/98 9/2/2 99/117/99
f 99/117/99 66/5/5 29/99/84
