# Blender v2.92.0 OBJ File: ''
# www.blender.org
o Loaf_of_Bread_Cube.004
v -0.112590 0.000801 0.074259
v -0.130421 0.001870 -0.005086
v -0.130669 0.030153 0.081763
v -0.130059 0.057845 0.046340
v -0.138759 0.046475 0.003351
v -0.070459 0.056696 -0.063380
v 0.030559 0.001147 -0.084086
v -0.070812 0.005812 -0.064878
v 0.032887 0.064085 -0.079884
v 0.121066 0.028822 -0.067180
v 0.135005 0.002358 0.022727
v 0.109616 0.003446 -0.058253
v 0.122168 0.077150 0.012340
v 0.112176 0.066478 0.052395
v 0.094569 0.005825 0.071662
v 0.058297 0.000971 0.074840
v 0.078425 0.067810 0.068325
v 0.065993 0.049686 0.080735
v -0.025954 0.073802 0.068878
v -0.100008 0.062579 0.072548
v -0.144922 0.030316 0.055443
v -0.140296 0.004607 0.038887
v -0.149311 0.021539 0.011071
v -0.134267 0.022299 -0.019205
v -0.087969 0.032739 -0.060229
v -0.052601 0.033850 -0.077764
v 0.031666 0.029142 -0.093320
v 0.079286 0.008581 -0.082291
v 0.081606 0.031628 -0.089209
v 0.133939 0.020593 -0.045641
v 0.140064 0.046500 -0.036796
v 0.143911 0.008862 -0.008796
v 0.143673 0.055748 0.023457
v 0.153990 0.028843 0.012901
v 0.144467 0.022952 0.041207
v 0.103072 0.035233 0.072994
v 0.064709 0.021523 0.084315
v -0.085944 0.011921 0.091356
v -0.091147 0.036523 0.092111
v -0.056523 0.004235 0.082468
v -0.080163 0.000493 -0.046890
v 0.091044 0.063066 -0.068850
v -0.033308 0.085998 -0.044223
v 0.035675 0.090500 -0.038533
v -0.071045 0.076942 -0.038704
v 0.114541 0.073885 -0.033672
v 0.056786 0.098606 0.009980
v 0.003072 0.090121 0.033934
v 0.068633 0.092366 0.037699
v -0.088805 0.083533 0.019543
v -0.046440 0.093475 0.034853
vt 0.762250 0.536582
vt 0.862720 0.466010
vt 0.846575 0.565760
vt 0.790421 0.623282
vt 0.873519 0.629643
vt 0.910416 0.553097
vt 0.724731 0.643116
vt 0.710530 0.537123
vt 0.781370 0.434400
vt 0.975093 0.461389
vt 0.977332 0.538852
vt 0.979118 0.609605
vt 0.218129 0.525069
vt 0.216830 0.416973
vt 0.345521 0.519089
vt 0.383799 0.443673
vt 0.369919 0.624113
vt 0.612862 0.923760
vt 0.649352 0.856590
vt 0.683033 0.949141
vt 0.503823 0.906504
vt 0.575131 0.818886
vt 0.475656 0.800396
vt 0.596301 0.766000
vt 0.676606 0.799340
vt 0.662476 0.716488
vt 0.443786 0.745488
vt 0.564257 0.713002
vt 0.654057 0.656825
vt 0.613933 0.619329
vt 0.680821 0.616163
vt 0.443567 0.651683
vt 0.502074 0.626815
vt 0.545595 0.672527
vt 0.541931 0.450969
vt 0.417420 0.530713
vt 0.552850 0.399038
vt 0.625048 0.447109
vt 0.666464 0.411947
vt 0.657536 0.477022
vt 0.757854 0.924994
vt 0.968052 0.944628
vt 0.812115 0.970508
vt 0.728657 0.918792
vt 0.711292 0.791472
vt 0.745052 0.720349
vt 0.879021 0.706924
vt 0.960435 0.731315
vt 0.979833 0.775737
vt 0.887164 0.049122
vt 0.658641 0.141838
vt 0.687812 0.036247
vt 0.932967 0.154456
vt 0.697392 0.215916
vt 0.480012 0.132242
vt 0.432246 0.031367
vt 0.365517 0.230358
vt 0.359071 0.181676
vt 0.361416 0.117864
vt 0.181227 0.043863
vt 0.116290 0.082996
vt 0.595515 0.374344
vt 0.442715 0.278592
vt 0.721886 0.273819
vt 0.137484 0.221626
vt 0.023143 0.145150
vt 0.357516 0.881884
vt 0.205026 0.828548
vt 0.233650 0.640244
vt 0.748590 0.403489
vt 0.208292 0.933575
vt 0.081964 0.889830
vt 0.053185 0.613317
vt 0.404146 0.818573
vt 0.417031 0.904061
vt 0.055866 0.479425
vt 0.577492 0.965633
vt 0.455423 0.968346
vt 0.462703 0.687216
vt 0.432751 0.436820
vt 0.158948 0.322458
vt 0.915608 0.301361
vt 0.331722 0.357217
vn -0.9374 0.0634 0.3424
vn -0.7803 0.5585 -0.2814
vn -0.9785 -0.1150 -0.1712
vn -0.6621 -0.7337 0.1528
vn -0.4907 -0.8265 -0.2760
vn -0.7771 -0.0662 -0.6259
vn -0.3279 -0.8255 0.4593
vn -0.6579 0.0581 0.7509
vn -0.6597 0.7240 0.2016
vn -0.4161 0.5049 -0.7562
vn -0.6031 0.0795 -0.7937
vn -0.3414 -0.6098 -0.7152
vn 0.2882 0.0751 -0.9546
vn 0.6628 -0.0257 -0.7484
vn 0.2488 -0.6212 -0.7431
vn 0.3778 -0.8345 -0.4011
vn -0.0251 -0.7860 -0.6177
vn 0.8211 -0.3454 -0.4544
vn 0.7521 -0.6331 -0.1830
vn 0.8533 0.3377 -0.3972
vn 0.9966 -0.0670 0.0478
vn 0.8150 0.5273 0.2403
vn 0.8078 -0.2019 0.5537
vn 0.4745 -0.8652 0.1622
vn 0.3439 -0.6521 0.6756
vn 0.5152 0.6151 0.5969
vn 0.4728 0.1103 0.8742
vn 0.1487 -0.1564 0.9764
vn 0.0634 -0.8479 0.5263
vn 0.2128 0.6332 0.7441
vn 0.1480 0.3290 0.9327
vn -0.1304 0.2621 0.9562
vn 0.0067 0.7269 0.6867
vn -0.0886 -0.4416 0.8928
vn 0.0312 -0.7943 0.6067
vn -0.1887 -0.9521 -0.2407
vn 0.3406 0.6605 -0.6692
vn 0.0399 0.9465 -0.3203
vn 0.4883 0.8065 -0.3333
vn -0.0007 0.6262 -0.7796
vn -0.1453 0.8989 -0.4133
vn 0.0965 0.9953 -0.0034
vn 0.5379 0.8413 0.0540
vn -0.0961 0.9742 0.2044
vn 0.0003 0.9703 0.2420
vn 0.1459 0.9106 0.3867
vn -0.3919 0.9199 -0.0094
vn -0.3958 0.8241 -0.4052
vn -0.2634 0.0544 -0.9632
vn -0.0528 0.0245 -0.9983
vn -0.2957 0.7448 0.5982
s 1
f 21/1/1 5/2/2 23/3/3
f 22/4/4 23/3/3 2/5/5
f 5/2/2 24/6/6 23/3/3
f 22/4/4 1/7/7 3/8/8 21/1/1
f 3/8/8 4/9/9 21/1/1
f 6/10/10 25/11/11 24/6/6
f 24/6/6 25/11/11 8/12/12
f 2/5/5 24/6/6 8/12/12
f 29/13/13 10/14/14 28/15/15
f 28/15/15 12/16/16 7/17/17
f 30/18/18 32/19/19 12/20/16
f 31/21/20 32/19/19 30/18/18
f 31/21/20 34/22/21 32/19/19
f 31/21/20 33/23/22 34/22/21
f 33/23/22 35/24/23 34/22/21
f 11/25/24 35/24/23 15/26/25
f 14/27/26 36/28/27 35/24/23
f 35/24/23 36/28/27 15/26/25
f 32/19/19 11/25/24 12/20/16
f 15/29/25 37/30/28 16/31/29
f 17/32/30 18/33/31 36/34/27
f 18/33/31 39/35/32 37/30/28
f 18/33/31 19/36/33 39/35/32
f 39/35/32 3/37/8 38/38/34
f 38/38/34 1/39/7 40/40/35
f 41/41/36 1/42/7 2/43/5
f 8/44/12 7/45/17 41/41/36
f 12/46/16 11/47/24 7/45/17
f 11/47/24 15/48/25 16/49/29
f 8/44/12 41/41/36 2/43/5
f 42/50/37 44/51/38 46/52/39
f 9/53/40 43/54/41 44/51/38
f 46/52/39 47/55/42 13/56/43
f 43/54/41 51/57/44 48/58/45
f 49/59/46 14/60/26 13/56/43
f 49/59/46 17/61/30 14/60/26
f 48/58/45 17/61/30 49/59/46
f 5/62/2 50/63/47 45/64/48
f 19/65/33 18/66/31 17/61/30
f 21/1/1 23/3/3 22/4/4
f 21/1/1 4/9/9 5/2/2
f 2/5/5 23/3/3 24/6/6
f 5/2/2 6/10/10 24/6/6
f 1/7/7 22/4/4 2/5/5
f 7/17/17 8/67/12 26/68/49 27/69/50
f 3/8/8 20/70/51 4/9/9
f 8/67/12 25/71/11 26/68/49
f 25/71/11 6/72/10 26/68/49
f 9/73/40 27/69/50 26/68/49 6/72/10
f 28/15/15 7/17/17 27/69/50 29/13/13
f 13/74/43 33/23/22 31/21/20 46/75/39
f 27/69/50 9/73/40 29/13/13
f 29/13/13 9/73/40 42/76/37
f 29/13/13 42/76/37 10/14/14
f 28/15/15 10/14/14 12/16/16
f 10/77/14 31/21/20 30/18/18
f 32/19/19 34/22/21 11/25/24
f 11/25/24 34/22/21 35/24/23
f 33/23/22 14/27/26 35/24/23
f 10/77/14 30/18/18 12/20/16
f 10/77/14 42/78/37 31/21/20
f 31/21/20 42/78/37 46/75/39
f 48/58/45 47/55/42 44/51/38 43/54/41
f 13/74/43 14/27/26 33/23/22
f 15/29/25 36/34/27 37/30/28
f 36/34/27 18/33/31 37/30/28
f 16/31/29 37/30/28 40/40/35
f 40/40/35 37/30/28 38/38/34
f 37/30/28 39/35/32 38/38/34
f 14/79/26 17/32/30 36/34/27
f 39/35/32 19/36/33 20/80/51
f 39/35/32 20/80/51 3/37/8
f 38/38/34 3/37/8 1/39/7
f 16/31/29 40/40/35 1/39/7
f 41/41/36 7/45/17 1/42/7
f 1/42/7 7/45/17 11/47/24
f 1/42/7 11/47/24 16/49/29
f 42/50/37 9/53/40 44/51/38
f 46/52/39 44/51/38 47/55/42
f 51/57/44 43/54/41 45/64/48 50/63/47
f 47/55/42 49/59/46 13/56/43
f 47/55/42 48/58/45 49/59/46
f 48/58/45 19/65/33 17/61/30
f 48/58/45 51/57/44 19/65/33
f 51/57/44 50/63/47 20/81/51
f 6/82/10 43/54/41 9/53/40
f 6/82/10 45/64/48 43/54/41
f 6/82/10 5/62/2 45/64/48
f 50/63/47 5/62/2 4/83/9
f 50/63/47 4/83/9 20/81/51
f 19/65/33 51/57/44 20/81/51
